<svg width="100" height="101" viewBox="0 0 100 101" fill="none" xmlns="http://www.w3.org/2000/svg">
<path fill-rule="evenodd" clip-rule="evenodd" d="M79.0875 93.4198H23.7813C23.6515 93.4215 23.5225 93.3976 23.4019 93.3495C23.2813 93.3014 23.1713 93.23 23.0783 93.1394C22.9853 93.0488 22.9111 92.9408 22.8598 92.8215C22.8085 92.7022 22.7812 92.5739 22.7795 92.4441V9.48483C22.7795 9.22261 22.8837 8.97112 23.0691 8.7857C23.2546 8.60027 23.5061 8.49609 23.7683 8.49609H79.0744C79.3362 8.49678 79.587 8.60127 79.7719 8.78662C79.9567 8.97197 80.0606 9.22306 80.0606 9.48483V92.4441C80.0606 92.7056 79.9567 92.9564 79.7717 93.1414C79.5868 93.3263 79.336 93.4302 79.0744 93.4302L79.0875 93.4198ZM24.7649 91.4449H78.0988V10.4527H24.7649V91.4449Z" fill="white"/>
<path fill-rule="evenodd" clip-rule="evenodd" d="M47.2282 40.5508C47.0975 40.5533 46.9677 40.5296 46.8463 40.4812C46.7249 40.4329 46.6143 40.3607 46.5212 40.269L40.5862 34.3314C39.9382 33.6835 39.5742 32.8047 39.5742 31.8883C39.5742 30.972 39.9382 30.0931 40.5862 29.4452C41.2342 28.7972 42.113 28.4332 43.0293 28.4332C43.9457 28.4332 44.8245 28.7972 45.4724 29.4452L47.2177 31.1878L58.0441 20.364C58.6924 19.7154 59.5719 19.3508 60.489 19.3506C61.4061 19.3503 62.2857 19.7144 62.9343 20.3627C63.583 21.011 63.9475 21.8904 63.9478 22.8075C63.948 23.7246 63.5839 24.6042 62.9356 25.2529L47.9273 40.269C47.7407 40.4518 47.4893 40.5531 47.2282 40.5508Z" fill="white"/>
<path fill-rule="evenodd" clip-rule="evenodd" d="M40.5684 57.8617H32.6664C32.5365 57.862 32.4078 57.8367 32.2876 57.7872C32.1675 57.7376 32.0584 57.6648 31.9665 57.5729C31.8746 57.481 31.8018 57.3719 31.7523 57.2518C31.7027 57.1317 31.6774 57.0029 31.6777 56.873V48.9736C31.6777 48.7114 31.7819 48.4599 31.9673 48.2745C32.1527 48.089 32.4042 47.9849 32.6664 47.9849H40.5684C40.8302 47.9856 41.081 48.09 41.2659 48.2754C41.4508 48.4607 41.5545 48.7118 41.5545 48.9736V56.873C41.5549 57.0027 41.5296 57.1312 41.4802 57.2512C41.4308 57.3711 41.3583 57.4801 41.2667 57.572C41.1751 57.6638 41.0662 57.7367 40.9464 57.7864C40.8266 57.8361 40.6981 57.8617 40.5684 57.8617ZM33.6525 55.8869H39.5797V49.9597H33.6525V55.8869Z" fill="white"/>
<path fill-rule="evenodd" clip-rule="evenodd" d="M64.2717 51.9374H45.5041C45.2419 51.9374 44.9904 51.8333 44.805 51.6479C44.6196 51.4624 44.5154 51.2109 44.5154 50.9487C44.5154 50.6865 44.6196 50.435 44.805 50.2496C44.9904 50.0641 45.2419 49.96 45.5041 49.96H64.2717C64.4056 49.9531 64.5396 49.9735 64.6653 50.02C64.7911 50.0666 64.9061 50.1382 65.0034 50.2305C65.1006 50.3229 65.1781 50.4341 65.231 50.5573C65.2839 50.6806 65.3112 50.8133 65.3112 50.9474C65.3112 51.0815 65.2839 51.2142 65.231 51.3375C65.1781 51.4607 65.1006 51.5719 65.0034 51.6643C64.9061 51.7566 64.7911 51.8282 64.6653 51.8748C64.5396 51.9213 64.4056 51.9417 64.2717 51.9348V51.9374Z" fill="white"/>
<path fill-rule="evenodd" clip-rule="evenodd" d="M72.1742 56.8727H45.5046C45.2515 56.8597 45.013 56.75 44.8385 56.5662C44.6639 56.3825 44.5667 56.1387 44.5667 55.8853C44.5667 55.6318 44.6639 55.3881 44.8385 55.2043C45.013 55.0206 45.2515 54.9108 45.5046 54.8978H72.1742C72.4273 54.9108 72.6657 55.0206 72.8403 55.2043C73.0148 55.3881 73.1121 55.6318 73.1121 55.8853C73.1121 56.1387 73.0148 56.3825 72.8403 56.5662C72.6657 56.75 72.4273 56.8597 72.1742 56.8727Z" fill="white"/>
<path fill-rule="evenodd" clip-rule="evenodd" d="M40.5684 70.7028H32.6664C32.5367 70.7032 32.4082 70.6779 32.2883 70.6285C32.1683 70.5791 32.0593 70.5065 31.9675 70.4149C31.8756 70.3233 31.8027 70.2145 31.753 70.0947C31.7033 69.9749 31.6777 69.8464 31.6777 69.7167V61.8147C31.6777 61.685 31.7033 61.5565 31.753 61.4367C31.8027 61.3169 31.8756 61.2081 31.9675 61.1165C32.0593 61.0249 32.1683 60.9523 32.2883 60.9029C32.4082 60.8535 32.5367 60.8283 32.6664 60.8286H40.5684C40.83 60.8286 41.0808 60.9325 41.2657 61.1174C41.4506 61.3024 41.5545 61.5532 41.5545 61.8147V69.7167C41.5545 69.9783 41.4506 70.2291 41.2657 70.414C41.0808 70.5989 40.83 70.7028 40.5684 70.7028Z" fill="white"/>
<path fill-rule="evenodd" clip-rule="evenodd" d="M64.2722 64.7757H45.5046C45.2515 64.7627 45.013 64.653 44.8385 64.4692C44.6639 64.2855 44.5667 64.0417 44.5667 63.7883C44.5667 63.5349 44.6639 63.2911 44.8385 63.1073C45.013 62.9236 45.2515 62.8139 45.5046 62.8009H64.2722C64.4061 62.794 64.5401 62.8144 64.6659 62.8609C64.7916 62.9074 64.9066 62.9791 65.0039 63.0714C65.1011 63.1638 65.1786 63.275 65.2315 63.3982C65.2844 63.5215 65.3117 63.6542 65.3117 63.7883C65.3117 63.9224 65.2844 64.0551 65.2315 64.1784C65.1786 64.3016 65.1011 64.4128 65.0039 64.5051C64.9066 64.5975 64.7916 64.6691 64.6659 64.7156C64.5401 64.7622 64.4061 64.7826 64.2722 64.7757Z" fill="white"/>
<path fill-rule="evenodd" clip-rule="evenodd" d="M72.1742 69.7145H45.5046C45.2515 69.7015 45.013 69.5918 44.8385 69.408C44.6639 69.2243 44.5667 68.9805 44.5667 68.7271C44.5667 68.4736 44.6639 68.2299 44.8385 68.0461C45.013 67.8624 45.2515 67.7527 45.5046 67.7397H72.1742C72.4273 67.7527 72.6657 67.8624 72.8403 68.0461C73.0148 68.2299 73.1121 68.4736 73.1121 68.7271C73.1121 68.9805 73.0148 69.2243 72.8403 69.408C72.6657 69.5918 72.4273 69.7015 72.1742 69.7145Z" fill="white"/>
<path fill-rule="evenodd" clip-rule="evenodd" d="M40.5684 83.5433H32.6664C32.5365 83.5437 32.4078 83.5184 32.2876 83.4688C32.1675 83.4192 32.0584 83.3464 31.9665 83.2545C31.8746 83.1626 31.8018 83.0535 31.7523 82.9334C31.7027 82.8133 31.6774 82.6845 31.6777 82.5546V74.6552C31.6777 74.393 31.7819 74.1415 31.9673 73.9561C32.1527 73.7707 32.4042 73.6665 32.6664 73.6665H40.5684C40.8302 73.6672 41.081 73.7717 41.2659 73.957C41.4508 74.1423 41.5545 74.3935 41.5545 74.6552V82.5546C41.5549 82.6843 41.5296 82.8129 41.4802 82.9328C41.4308 83.0527 41.3583 83.1617 41.2667 83.2536C41.1751 83.3454 41.0662 83.4183 40.9464 83.468C40.8266 83.5178 40.6981 83.5433 40.5684 83.5433Z" fill="white"/>
<path fill-rule="evenodd" clip-rule="evenodd" d="M55.389 77.6158H45.5122C45.3782 77.6227 45.2443 77.6023 45.1185 77.5558C44.9927 77.5092 44.8777 77.4376 44.7805 77.3453C44.6832 77.2529 44.6058 77.1417 44.5529 77.0185C44.5 76.8952 44.4727 76.7625 44.4727 76.6284C44.4727 76.4943 44.5 76.3615 44.5529 76.2383C44.6058 76.1151 44.6832 76.0039 44.7805 75.9115C44.8777 75.8191 44.9927 75.7475 45.1185 75.701C45.2443 75.6545 45.3782 75.6341 45.5122 75.641H55.389C55.523 75.6341 55.6569 75.6545 55.7827 75.701C55.9085 75.7475 56.0235 75.8191 56.1208 75.9115C56.218 76.0039 56.2954 76.1151 56.3483 76.2383C56.4013 76.3615 56.4285 76.4943 56.4285 76.6284C56.4285 76.7625 56.4013 76.8952 56.3483 77.0185C56.2954 77.1417 56.218 77.2529 56.1208 77.3453C56.0235 77.4376 55.9085 77.5092 55.7827 77.5558C55.6569 77.6023 55.523 77.6227 55.389 77.6158Z" fill="white"/>
<path fill-rule="evenodd" clip-rule="evenodd" d="M62.2973 82.5549H45.5046C45.2515 82.5419 45.013 82.4321 44.8385 82.2484C44.6639 82.0646 44.5667 81.8209 44.5667 81.5675C44.5667 81.314 44.6639 81.0703 44.8385 80.8865C45.013 80.7028 45.2515 80.5931 45.5046 80.58H62.2973C62.4313 80.5732 62.5652 80.5936 62.691 80.6401C62.8168 80.6866 62.9318 80.7582 63.0291 80.8506C63.1263 80.943 63.2037 81.0542 63.2566 81.1774C63.3095 81.3006 63.3368 81.4334 63.3368 81.5675C63.3368 81.7016 63.3095 81.8343 63.2566 81.9575C63.2037 82.0808 63.1263 82.1919 63.0291 82.2843C62.9318 82.3767 62.8168 82.4483 62.691 82.4948C62.5652 82.5413 62.4313 82.5618 62.2973 82.5549Z" fill="white"/>
<path fill-rule="evenodd" clip-rule="evenodd" d="M88.9635 27.2433C87.9868 27.2433 87.0321 26.9537 86.2199 26.4111C85.4078 25.8685 84.7748 25.0972 84.401 24.1948C84.0273 23.2924 83.9295 22.2994 84.12 21.3415C84.3106 20.3835 84.7809 19.5036 85.4716 18.813C86.1622 18.1223 87.0421 17.652 88.0001 17.4614C88.9581 17.2709 89.951 17.3687 90.8534 17.7424C91.7558 18.1162 92.5271 18.7492 93.0697 19.5613C93.6123 20.3734 93.902 21.3282 93.902 22.3049C93.9006 23.6143 93.3798 24.8696 92.454 25.7954C91.5282 26.7212 90.2729 27.242 88.9635 27.2433ZM88.9635 19.344C88.3774 19.344 87.8044 19.5178 87.3171 19.8434C86.8297 20.1691 86.4499 20.6319 86.2256 21.1734C86.0013 21.715 85.9426 22.3108 86.0569 22.8857C86.1713 23.4606 86.4535 23.9886 86.868 24.4031C87.2825 24.8176 87.8105 25.0998 88.3854 25.2142C88.9603 25.3285 89.5562 25.2698 90.0977 25.0455C90.6392 24.8212 91.102 24.4414 91.4277 23.954C91.7533 23.4667 91.9272 22.8937 91.9272 22.3076C91.9272 21.5216 91.6149 20.7678 91.0591 20.212C90.5033 19.6562 89.7495 19.344 88.9635 19.344Z" fill="white"/>
<path fill-rule="evenodd" clip-rule="evenodd" d="M12.9132 82.554C11.5459 82.554 10.2093 82.1485 9.07243 81.3889C7.93555 80.6293 7.0495 79.5496 6.52625 78.2863C6.00301 77.0231 5.86609 75.6331 6.13284 74.292C6.39959 72.951 7.058 71.7192 8.02484 70.7523C8.99168 69.7855 10.2235 69.1271 11.5645 68.8603C12.9056 68.5936 14.2956 68.7305 15.5588 69.2537C16.8221 69.777 17.9018 70.6631 18.6614 71.7999C19.4211 72.9368 19.8265 74.2734 19.8265 75.6407C19.8244 77.4736 19.0955 79.2308 17.7994 80.5269C16.5034 81.8229 14.7461 82.5519 12.9132 82.554ZM12.9132 70.7023C11.9358 70.7018 10.9802 70.9912 10.1672 71.5339C9.35426 72.0767 8.72052 72.8483 8.34622 73.7513C7.97193 74.6543 7.87389 75.648 8.06446 76.6067C8.25502 77.5654 8.72563 78.446 9.4168 79.1372C10.108 79.8283 10.9887 80.299 11.9474 80.4896C12.9061 80.6801 13.8997 80.5821 14.8027 80.2078C15.7057 79.8335 16.4773 79.1997 17.02 78.3868C17.5628 77.5739 17.8522 76.6182 17.8517 75.6407C17.8469 74.3325 17.325 73.0792 16.3999 72.1541C15.4749 71.229 14.2215 70.7071 12.9132 70.7023Z" fill="white"/>
</svg>
