<svg width="100" height="101" viewBox="0 0 100 101" fill="none" xmlns="http://www.w3.org/2000/svg">
<path fill-rule="evenodd" clip-rule="evenodd" d="M55.8607 80.0183C55.608 80.0183 55.3657 79.9181 55.1868 79.7397C55.0079 79.5612 54.907 79.3192 54.9062 79.0665V58.1219C54.9191 57.8779 55.0252 57.648 55.2026 57.4798C55.3799 57.3116 55.615 57.2178 55.8594 57.2178C56.1038 57.2178 56.3389 57.3116 56.5163 57.4798C56.6936 57.648 56.7997 57.8779 56.8126 58.1219V79.0665C56.8126 79.3189 56.7122 79.561 56.5337 79.7395C56.3552 79.918 56.1131 80.0183 55.8607 80.0183Z" fill="white"/>
<path fill-rule="evenodd" clip-rule="evenodd" d="M62.0475 80.0184H49.6637C49.5387 80.0184 49.4149 79.9938 49.2994 79.946C49.184 79.8981 49.0791 79.828 48.9907 79.7397C48.9023 79.6513 48.8322 79.5464 48.7844 79.4309C48.7366 79.3154 48.7119 79.1917 48.7119 79.0667V75.7765C44.6139 74.1187 41.2201 71.0872 39.1121 67.2016C37.004 63.316 36.313 58.8181 37.1575 54.4789C38.0019 50.1397 40.3293 46.2293 43.7406 43.4178C47.152 40.6063 51.435 39.0688 55.8556 39.0688C60.2762 39.0688 64.5593 40.6063 67.9706 43.4178C71.382 46.2293 73.7093 50.1397 74.5538 54.4789C75.3982 58.8181 74.7072 63.316 72.5991 67.2016C70.4911 71.0872 67.0972 74.1187 62.9992 75.7765V79.0667C62.9978 79.3191 62.8968 79.5608 62.7181 79.739C62.5393 79.9173 62.2974 80.0177 62.0449 80.0184H62.0475ZM50.6182 78.1122H61.093V75.1217C61.0936 74.926 61.1542 74.7351 61.2665 74.5749C61.3789 74.4147 61.5376 74.2928 61.7214 74.2256C65.5084 72.8468 68.6887 70.1779 70.7035 66.6876C72.7184 63.1972 73.4391 59.1085 72.7391 55.1396C72.0391 51.1707 69.9632 47.5753 66.8759 44.9848C63.7885 42.3943 59.8871 40.9744 55.8569 40.9744C51.8267 40.9744 47.9254 42.3943 44.8381 44.9848C41.7507 47.5753 39.6748 51.1707 38.9748 55.1396C38.2748 59.1085 38.9955 63.1972 41.0104 66.6876C43.0253 70.1779 46.2055 72.8468 49.9925 74.2256C50.1758 74.2932 50.3339 74.4153 50.4457 74.5755C50.5576 74.7357 50.6178 74.9263 50.6182 75.1217V78.1122Z" fill="white"/>
<path fill-rule="evenodd" clip-rule="evenodd" d="M80.1367 60.0178L73.9514 59.9966C73.699 59.9966 73.4569 59.8963 73.2784 59.7178C73.0999 59.5393 72.9996 59.2972 72.9996 59.0448C72.9996 58.7924 73.0999 58.5503 73.2784 58.3718C73.4569 58.1933 73.699 58.093 73.9514 58.093L80.134 58.1142C83.3636 58.0668 86.4448 56.7506 88.7119 54.45C90.9789 52.1494 92.2498 49.0492 92.2498 45.8192C92.2498 42.5893 90.9789 39.4891 88.7119 37.1885C86.4448 34.8879 83.3636 33.5717 80.134 33.5243C79.9166 33.5243 79.6859 33.5242 79.4288 33.5455C79.2422 33.5561 79.0567 33.5115 78.8954 33.4172C78.7341 33.3229 78.6042 33.183 78.5221 33.0152C77.5899 31.1297 76.2703 29.4621 74.6496 28.1214C73.0289 26.7807 71.1436 25.7971 69.1167 25.2349C67.0899 24.6726 64.9672 24.5444 62.8874 24.8585C60.8077 25.1727 58.8176 25.9221 57.0473 27.058C56.9287 27.1344 56.7948 27.1836 56.6549 27.2019C56.515 27.2202 56.3728 27.2072 56.2386 27.1638C56.1043 27.1204 55.9815 27.0477 55.8788 26.951C55.7761 26.8543 55.6961 26.736 55.6448 26.6046C53.8411 22.0277 50.497 18.2235 46.189 15.8481C41.881 13.4727 36.8792 12.6748 32.046 13.5921C27.2128 14.5095 22.8512 17.0845 19.7131 20.8731C16.575 24.6618 14.8572 29.4266 14.8559 34.3461C14.856 35.5132 14.9518 36.6784 15.1423 37.8298C15.1814 38.0694 15.1278 38.3149 14.9924 38.5163C14.8569 38.7178 14.6498 38.86 14.4132 38.9142C12.0996 39.4386 10.0606 40.7976 8.68605 42.7311C7.31152 44.6646 6.698 47.0369 6.96282 49.3944C7.22765 51.7519 8.35218 53.929 10.1214 55.5093C11.8907 57.0897 14.1805 57.9623 16.5527 57.9604L36.5402 58.0135C36.7926 58.0135 37.0347 58.1138 37.2132 58.2923C37.3917 58.4708 37.492 58.7128 37.492 58.9653C37.492 59.2177 37.3917 59.4598 37.2132 59.6383C37.0347 59.8168 36.7926 59.917 36.5402 59.917L16.5527 59.8667C13.7881 59.8676 11.1149 58.8768 9.01874 57.0742C6.92261 55.2716 5.54265 52.7769 5.12963 50.0433C4.71661 47.3097 5.29792 44.5187 6.76793 42.1773C8.23794 39.8359 10.4991 38.0995 13.1406 37.2837C12.7232 34.0379 13.0023 30.7404 13.9593 27.6109C14.9164 24.4815 16.5293 21.5919 18.6907 19.1347C20.8521 16.6776 23.5123 14.7092 26.4941 13.3609C29.476 12.0125 32.7109 11.3151 35.9834 11.3151C40.4201 11.3143 44.7626 12.5949 48.489 15.003C52.2153 17.411 55.1669 20.844 56.989 24.8893C58.9375 23.8164 61.0789 23.1396 63.29 22.8978C65.5012 22.656 67.7382 22.8541 69.8725 23.4805C72.0068 24.1069 73.9961 25.1493 75.7259 26.5477C77.4556 27.9461 78.8915 29.6729 79.9511 31.6286H80.1393C83.9054 31.6286 87.5172 33.1247 90.1801 35.7877C92.8431 38.4507 94.3392 42.0625 94.3392 45.8285C94.3392 49.5946 92.8431 53.2063 90.1801 55.8693C87.5172 58.5323 83.9054 60.0284 80.1393 60.0284L80.1367 60.0178Z" fill="white"/>
<path fill-rule="evenodd" clip-rule="evenodd" d="M22.524 34.304C22.2716 34.304 22.0295 34.2037 21.851 34.0252C21.6725 33.8467 21.5723 33.6046 21.5723 33.3522C21.5765 29.3122 23.183 25.439 26.0394 22.5821C28.8958 19.7251 32.7688 18.1179 36.8088 18.113C36.9382 18.1062 37.0676 18.1258 37.1892 18.1706C37.3107 18.2154 37.4219 18.2845 37.5159 18.3737C37.6099 18.4629 37.6848 18.5702 37.7359 18.6893C37.7871 18.8083 37.8135 18.9365 37.8135 19.0661C37.8135 19.1957 37.7871 19.3239 37.7359 19.443C37.6848 19.562 37.6099 19.6694 37.5159 19.7586C37.4219 19.8477 37.3107 19.9168 37.1892 19.9617C37.0676 20.0065 36.9382 20.0261 36.8088 20.0192C33.2739 20.0235 29.8851 21.4295 27.3856 23.929C24.8861 26.4285 23.48 29.8173 23.4758 33.3522C23.4762 33.4773 23.4518 33.6012 23.4041 33.7168C23.3564 33.8324 23.2863 33.9375 23.1978 34.026C23.1094 34.1144 23.0043 34.1845 22.8887 34.2322C22.773 34.2799 22.6491 34.3043 22.524 34.304Z" fill="white"/>
<path fill-rule="evenodd" clip-rule="evenodd" d="M84.4295 21.9228C83.2997 21.9223 82.1953 21.5868 81.2561 20.9586C80.3169 20.3305 79.5849 19.438 79.1529 18.394C78.7209 17.35 78.6081 16.2013 78.8289 15.0932C79.0496 13.9851 79.594 12.9673 80.3932 12.1686C81.1923 11.3698 82.2104 10.8259 83.3186 10.6057C84.4268 10.3854 85.5753 10.4987 86.6191 10.9312C87.6629 11.3638 88.5551 12.0961 89.1828 13.0356C89.8105 13.9751 90.1456 15.0796 90.1456 16.2095C90.1435 17.7245 89.5405 19.1769 88.4689 20.248C87.3973 21.3191 85.9446 21.9214 84.4295 21.9228ZM84.4295 12.3997C83.676 12.3997 82.9394 12.6231 82.3128 13.0417C81.6863 13.4604 81.1981 14.0554 80.9097 14.7515C80.6213 15.4477 80.5459 16.2137 80.6929 16.9527C80.8399 17.6917 81.2028 18.3706 81.7356 18.9034C82.2684 19.4362 82.9472 19.799 83.6862 19.946C84.4252 20.093 85.1913 20.0176 85.8874 19.7292C86.5836 19.4409 87.1786 18.9526 87.5973 18.3261C88.0159 17.6995 88.2394 16.963 88.2394 16.2095C88.2387 15.1993 87.837 14.2306 87.1227 13.5163C86.4084 12.802 85.4397 12.4004 84.4295 12.3997Z" fill="white"/>
<path fill-rule="evenodd" clip-rule="evenodd" d="M16.8117 90.4964C15.3046 90.4969 13.8311 90.0505 12.5777 89.2135C11.3243 88.3766 10.3473 87.1868 9.77019 85.7945C9.19308 84.4023 9.04185 82.8701 9.33555 81.3919C9.62926 79.9137 10.3547 78.5558 11.4202 77.4899C12.4857 76.424 13.8434 75.698 15.3216 75.4038C16.7997 75.1096 18.3318 75.2603 19.7243 75.837C21.1167 76.4136 22.3069 77.3902 23.1443 78.6433C23.9817 79.8964 24.4286 81.3697 24.4286 82.8768C24.4258 84.8963 23.6225 86.8324 22.1947 88.2606C20.7669 89.6889 18.8312 90.4929 16.8117 90.4964ZM16.8117 77.1608C15.6811 77.1603 14.5756 77.4951 13.6353 78.1228C12.6949 78.7506 11.9619 79.6431 11.5289 80.6875C11.0958 81.7319 10.9823 82.8813 11.2025 83.9903C11.4228 85.0993 11.967 86.118 12.7663 86.9177C13.5656 87.7173 14.584 88.262 15.6929 88.4828C16.8018 88.7035 17.9512 88.5905 18.9958 88.158C20.0405 87.7254 20.9333 86.9928 21.5615 86.0527C22.1897 85.1127 22.525 84.0074 22.525 82.8768C22.5236 81.3617 21.9213 79.909 20.8503 78.8375C19.7792 77.7659 18.3268 77.1629 16.8117 77.1608Z" fill="white"/>
<path fill-rule="evenodd" clip-rule="evenodd" d="M62.9697 84.7804H48.7486C47.8648 84.7804 47.0171 84.4293 46.3921 83.8043C45.7671 83.1793 45.416 82.3317 45.416 81.4478C45.416 80.564 45.7671 79.7163 46.3921 79.0913C47.0171 78.4664 47.8648 78.1152 48.7486 78.1152H62.9697C63.8536 78.1152 64.7012 78.4664 65.3262 79.0913C65.9512 79.7163 66.3023 80.564 66.3023 81.4478C66.3023 82.3317 65.9512 83.1793 65.3262 83.8043C64.7012 84.4293 63.8536 84.7804 62.9697 84.7804ZM48.746 80.0082C48.367 80.0082 48.0035 80.1588 47.7355 80.4268C47.4675 80.6947 47.3169 81.0582 47.3169 81.4372C47.3169 81.8162 47.4675 82.1797 47.7355 82.4477C48.0035 82.7156 48.367 82.8662 48.746 82.8662H62.9697C63.3487 82.8662 63.7121 82.7156 63.9801 82.4477C64.2481 82.1797 64.3986 81.8162 64.3986 81.4372C64.3986 81.0582 64.2481 80.6947 63.9801 80.4268C63.7121 80.1588 63.3487 80.0082 62.9697 80.0082H48.746Z" fill="white"/>
<path fill-rule="evenodd" clip-rule="evenodd" d="M62.9687 89.5436H48.7476C48.3019 89.5562 47.8581 89.4792 47.4426 89.3174C47.0272 89.1555 46.6484 88.9119 46.3287 88.6011C46.009 88.2903 45.7548 87.9185 45.5813 87.5078C45.4077 87.097 45.3184 86.6556 45.3184 86.2097C45.3184 85.7638 45.4077 85.3224 45.5813 84.9117C45.7548 84.5009 46.009 84.1292 46.3287 83.8184C46.6484 83.5075 47.0272 83.264 47.4426 83.1021C47.8581 82.9402 48.3019 82.8633 48.7476 82.8758H62.9687C63.4144 82.8633 63.8581 82.9402 64.2736 83.1021C64.6891 83.264 65.0678 83.5075 65.3876 83.8184C65.7073 84.1292 65.9615 84.5009 66.135 84.9117C66.3086 85.3224 66.3979 85.7638 66.3979 86.2097C66.3979 86.6556 66.3086 87.097 66.135 87.5078C65.9615 87.9185 65.7073 88.2903 65.3876 88.6011C65.0678 88.9119 64.6891 89.1555 64.2736 89.3174C63.8581 89.4792 63.4144 89.5562 62.9687 89.5436ZM48.7449 84.7714C48.5523 84.7631 48.3599 84.7939 48.1795 84.8619C47.999 84.9299 47.8342 85.0337 47.6949 85.1671C47.5557 85.3005 47.4448 85.4607 47.3691 85.6381C47.2934 85.8154 47.2544 86.0063 47.2544 86.1991C47.2544 86.3919 47.2934 86.5828 47.3691 86.7602C47.4448 86.9375 47.5557 87.0977 47.6949 87.2311C47.8342 87.3645 47.999 87.4683 48.1795 87.5363C48.3599 87.6043 48.5523 87.6351 48.7449 87.6268H62.9687C63.1614 87.6351 63.3537 87.6043 63.5342 87.5363C63.7146 87.4683 63.8794 87.3645 64.0187 87.2311C64.158 87.0977 64.2687 86.9375 64.3444 86.7602C64.4201 86.5828 64.4592 86.3919 64.4592 86.1991C64.4592 86.0063 64.4201 85.8154 64.3444 85.6381C64.2687 85.4607 64.158 85.3005 64.0187 85.1671C63.8794 85.0337 63.7146 84.9299 63.5342 84.8619C63.3537 84.7939 63.1614 84.7631 62.9687 84.7714H48.7449Z" fill="white"/>
<path fill-rule="evenodd" clip-rule="evenodd" d="M58.716 61.9199C57.9625 61.9199 57.2259 61.6964 56.5994 61.2778C55.9729 60.8592 55.4846 60.2642 55.1963 59.568C54.9079 58.8719 54.8324 58.1058 54.9794 57.3668C55.1264 56.6278 55.4893 55.949 56.0221 55.4161C56.5549 54.8833 57.2338 54.5205 57.9728 54.3735C58.7118 54.2265 59.4779 54.3019 60.174 54.5903C60.8702 54.8787 61.4651 55.367 61.8837 55.9935C62.3024 56.62 62.5258 57.3566 62.5258 58.1101C62.5251 59.1203 62.1235 60.0889 61.4091 60.8032C60.6948 61.5176 59.7262 61.9192 58.716 61.9199Z" fill="white"/>
<path fill-rule="evenodd" clip-rule="evenodd" d="M53.0012 61.9199C52.2477 61.9199 51.5111 61.6964 50.8846 61.2778C50.2581 60.8592 49.7697 60.2642 49.4813 59.568C49.193 58.8719 49.1176 58.1058 49.2646 57.3668C49.4116 56.6278 49.7744 55.949 50.3073 55.4161C50.8401 54.8833 51.5188 54.5205 52.2579 54.3735C52.9969 54.2265 53.7629 54.3019 54.4591 54.5903C55.1552 54.8787 55.7503 55.367 56.1689 55.9935C56.5875 56.62 56.811 57.3566 56.811 58.1101C56.8096 59.1201 56.4077 60.0883 55.6936 60.8025C54.9794 61.5166 54.0112 61.9185 53.0012 61.9199Z" fill="white"/>
</svg>
