<svg width="100" height="101" viewBox="0 0 100 101" fill="none" xmlns="http://www.w3.org/2000/svg">
<path fill-rule="evenodd" clip-rule="evenodd" d="M51.4994 93.496H21.8494C21.7195 93.4963 21.5908 93.471 21.4707 93.4214C21.3506 93.3718 21.2414 93.2989 21.1495 93.2071C21.0576 93.1152 20.9849 93.0061 20.9353 92.886C20.8857 92.7658 20.8603 92.6371 20.8606 92.5071V64.8324C20.8539 64.6985 20.8744 64.5646 20.921 64.4389C20.9676 64.3132 21.0392 64.1983 21.1316 64.1011C21.224 64.004 21.3351 63.9266 21.4583 63.8738C21.5815 63.8209 21.7142 63.7936 21.8482 63.7936C21.9823 63.7936 22.115 63.8209 22.2382 63.8738C22.3614 63.9266 22.4725 64.004 22.5648 64.1011C22.6572 64.1983 22.7289 64.3132 22.7754 64.4389C22.822 64.5646 22.8426 64.6985 22.8358 64.8324V91.5183H50.5105V47.0409C50.5105 46.7787 50.6147 46.5271 50.8001 46.3417C50.9856 46.1563 51.2371 46.0521 51.4994 46.0521C51.7616 46.0521 52.0132 46.1563 52.1986 46.3417C52.384 46.5271 52.4882 46.7787 52.4882 47.0409V92.5071C52.4875 92.7692 52.3832 93.0203 52.1979 93.2056C52.0126 93.3909 51.7614 93.4953 51.4994 93.496Z" fill="white"/>
<path fill-rule="evenodd" clip-rule="evenodd" d="M43.5924 65.8217H11.9599C11.7877 65.8218 11.6186 65.7769 11.4691 65.6915C11.3197 65.6062 11.195 65.4832 11.1076 65.3349C11.0202 65.1867 10.9731 65.0181 10.9708 64.846C10.9685 64.6739 11.0111 64.5041 11.0946 64.3536L20.9779 46.5621C21.0646 46.409 21.1904 46.2816 21.3424 46.1929C21.4944 46.1043 21.6672 46.0576 21.8432 46.0576H51.4931C51.6578 46.0575 51.8198 46.0987 51.9645 46.1773C52.1092 46.2559 52.2319 46.3694 52.3214 46.5076C52.411 46.6458 52.4645 46.8042 52.4771 46.9684C52.4897 47.1326 52.461 47.2973 52.3936 47.4475L44.5006 65.2339C44.4233 65.4089 44.2967 65.5577 44.1364 65.6621C43.976 65.7664 43.7888 65.8219 43.5975 65.8217H43.5924ZM13.645 63.8465H42.9517L49.9796 48.0328H22.4308L13.645 63.8465Z" fill="white"/>
<path fill-rule="evenodd" clip-rule="evenodd" d="M51.5 85.5871H21.8501C21.5879 85.5871 21.3363 85.4829 21.1509 85.2974C20.9655 85.112 20.8613 84.8604 20.8613 84.5982C20.8613 84.3359 20.9655 84.0845 21.1509 83.899C21.3363 83.7136 21.5879 83.6094 21.8501 83.6094H51.5C51.7623 83.6094 52.0138 83.7136 52.1993 83.899C52.3847 84.0845 52.4889 84.3359 52.4889 84.5982C52.4889 84.8604 52.3847 85.112 52.1993 85.2974C52.0138 85.4829 51.7623 85.5871 51.5 85.5871Z" fill="white"/>
<path fill-rule="evenodd" clip-rule="evenodd" d="M81.1543 93.4961H51.5044C51.2422 93.4961 50.9906 93.3919 50.8052 93.2064C50.6198 93.021 50.5156 92.7695 50.5156 92.5073V47.0411C50.5156 46.7788 50.6198 46.5273 50.8052 46.3418C50.9906 46.1564 51.2422 46.0522 51.5044 46.0522C51.7667 46.0522 52.0182 46.1564 52.2037 46.3418C52.3891 46.5273 52.4933 46.7788 52.4933 47.0411V91.5184H80.1655V64.8325C80.1655 64.5703 80.2697 64.3187 80.4551 64.1333C80.6405 63.9478 80.8921 63.8436 81.1543 63.8436C81.4166 63.8436 81.6681 63.9478 81.8536 64.1333C82.039 64.3187 82.1432 64.5703 82.1432 64.8325V92.5073C82.1425 92.7693 82.0381 93.0204 81.8528 93.2057C81.6675 93.391 81.4164 93.4954 81.1543 93.4961Z" fill="white"/>
<path fill-rule="evenodd" clip-rule="evenodd" d="M91.0363 65.8199H59.4087C59.2174 65.82 59.0302 65.7646 58.8698 65.6602C58.7095 65.5559 58.5829 65.4071 58.5056 65.2321L50.6 47.4431C50.5325 47.2927 50.5039 47.1278 50.5166 46.9634C50.5294 46.799 50.5831 46.6404 50.6729 46.5022C50.7628 46.3639 50.8858 46.2504 51.0309 46.172C51.1759 46.0935 51.3382 46.0527 51.5031 46.0532H81.153C81.3286 46.0531 81.5012 46.0999 81.6528 46.1885C81.8045 46.2772 81.9297 46.4046 82.0157 46.5577L91.9015 64.3492C91.9841 64.4999 92.0262 64.6694 92.0236 64.8413C92.0209 65.0131 91.9736 65.1813 91.8863 65.3293C91.7991 65.4774 91.6749 65.6002 91.5258 65.6858C91.3768 65.7713 91.2082 65.8166 91.0363 65.8173V65.8199ZM60.052 63.8447H89.3563L80.5753 48.0309H53.0217L60.052 63.8447Z" fill="white"/>
<path fill-rule="evenodd" clip-rule="evenodd" d="M81.1543 85.5871H51.5044C51.2422 85.5871 50.9906 85.4829 50.8052 85.2974C50.6198 85.112 50.5156 84.8604 50.5156 84.5982C50.5156 84.3359 50.6198 84.0845 50.8052 83.899C50.9906 83.7136 51.2422 83.6094 51.5044 83.6094H81.1543C81.4166 83.6094 81.6681 83.7136 81.8536 83.899C82.039 84.0845 82.1432 84.3359 82.1432 84.5982C82.1432 84.8604 82.039 85.112 81.8536 85.2974C81.6681 85.4829 81.4166 85.5871 81.1543 85.5871Z" fill="white"/>
<path fill-rule="evenodd" clip-rule="evenodd" d="M30.9708 47.6635C30.7754 47.6633 30.5844 47.6052 30.422 47.4966C30.2595 47.3879 30.1329 47.2335 30.0581 47.053C29.9834 46.8724 29.9639 46.6737 30.002 46.482C30.0401 46.2903 30.134 46.1142 30.2721 45.976L34.1114 42.1341C33.6296 41.2008 33.2246 40.2298 32.9005 39.2307H27.4771C27.215 39.23 26.964 39.1256 26.7787 38.9403C26.5934 38.755 26.4889 38.5039 26.4883 38.2418V28.3838C26.4883 28.1215 26.5925 27.87 26.778 27.6846C26.9634 27.4991 27.2148 27.3949 27.4771 27.3949H32.8981C33.2202 26.3963 33.6243 25.426 34.1064 24.494L30.262 20.6497C30.0767 20.4638 29.9727 20.2121 29.9727 19.9497C29.9727 19.6872 30.0767 19.4355 30.262 19.2497L37.2343 12.2799C37.3258 12.1877 37.4346 12.1146 37.5546 12.0648C37.6745 12.015 37.8032 11.9895 37.9331 11.9898C38.0625 11.9897 38.1907 12.0153 38.3102 12.0651C38.4297 12.1149 38.5382 12.1879 38.6293 12.2799L42.4736 16.1242C43.4066 15.6435 44.3767 15.2386 45.3745 14.9134V9.48494C45.3752 9.22289 45.4796 8.97177 45.6649 8.78647C45.8502 8.60117 46.1013 8.49676 46.3634 8.49609H56.2215C56.4835 8.49676 56.7347 8.60117 56.92 8.78647C57.1053 8.97177 57.2096 9.22289 57.2103 9.48494V14.9084C58.2095 15.232 59.1807 15.6369 60.1138 16.1192L63.953 12.2799C64.1388 12.0946 64.3905 11.9905 64.653 11.9905C64.9154 11.9905 65.1673 12.0946 65.3531 12.2799L72.3228 19.2497C72.4148 19.3413 72.4878 19.4502 72.5376 19.5701C72.5874 19.69 72.613 19.8185 72.613 19.9484C72.613 20.0782 72.5874 20.2068 72.5376 20.3267C72.4878 20.4466 72.4148 20.5555 72.3228 20.6471L68.481 24.4915C68.961 25.4245 69.365 26.3946 69.6893 27.3924H75.1178C75.2478 27.3921 75.3764 27.4175 75.4966 27.467C75.6167 27.5166 75.7259 27.5894 75.8178 27.6813C75.9097 27.7732 75.9824 27.8823 76.032 28.0025C76.0816 28.1226 76.107 28.2513 76.1066 28.3813V38.2393C76.107 38.3692 76.0816 38.498 76.032 38.6181C75.9824 38.7382 75.9097 38.8474 75.8178 38.9393C75.7259 39.0312 75.6167 39.104 75.4966 39.1536C75.3764 39.2032 75.2478 39.2285 75.1178 39.2282H69.6968C69.3728 40.2281 68.9679 41.2 68.4861 42.1341L72.3253 45.9734C72.417 46.0654 72.4899 46.1744 72.5395 46.2945C72.5891 46.4145 72.6145 46.5432 72.6144 46.673C72.6143 46.8029 72.5886 46.9315 72.5387 47.0515C72.4889 47.1714 72.416 47.2804 72.3241 47.3722C72.2321 47.4639 72.123 47.5367 72.0029 47.5863C71.8829 47.6359 71.7543 47.6614 71.6244 47.6612C71.4946 47.6611 71.366 47.6354 71.2461 47.5856C71.1261 47.5358 71.0171 47.4629 70.9253 47.3709L66.5664 43.012C66.4131 42.859 66.3142 42.6598 66.285 42.4451C66.2558 42.2305 66.298 42.0123 66.405 41.8239C67.0951 40.6103 67.6339 39.3166 68.0093 37.972C68.0681 37.7646 68.1931 37.5821 68.3652 37.4523C68.5374 37.3225 68.7473 37.2525 68.9628 37.253H74.129V29.3701H68.9704C68.7548 29.3703 68.5451 29.2999 68.3734 29.1696C68.2016 29.0393 68.0773 28.8563 68.0194 28.6486C67.6413 27.3065 67.1026 26.0148 66.4151 24.8017C66.3088 24.6138 66.2669 24.3963 66.2956 24.1823C66.3243 23.9683 66.422 23.7695 66.574 23.6162L70.2316 19.9509L64.6594 14.3761L60.9941 18.0414C60.8409 18.1937 60.6422 18.2917 60.4281 18.3204C60.214 18.3491 59.9964 18.3069 59.8086 18.2003C58.5952 17.5109 57.3025 16.9713 55.9591 16.5935C55.7514 16.5356 55.5685 16.4112 55.4382 16.2395C55.3079 16.0677 55.2375 15.858 55.2377 15.6425V10.4738H47.3548V15.6475C47.355 15.8631 47.2845 16.0728 47.1542 16.2445C47.0239 16.4163 46.841 16.5406 46.6333 16.5985C45.2922 16.9773 44.0014 17.5159 42.7889 18.2028C42.6007 18.3097 42.3827 18.352 42.1682 18.3233C41.9536 18.2946 41.7544 18.1965 41.6008 18.0439L37.9432 14.3761L32.3709 19.9484L36.0387 23.6162C36.191 23.7693 36.289 23.9681 36.3177 24.1822C36.3464 24.3963 36.3042 24.6139 36.1976 24.8017C35.51 26.0148 34.9714 27.3065 34.5933 28.6486C34.5354 28.8563 34.411 29.0393 34.2393 29.1696C34.0675 29.2999 33.8579 29.3703 33.6423 29.3701H28.4685V37.253H33.6346C33.8502 37.2525 34.06 37.3225 34.2321 37.4523C34.4043 37.5821 34.5294 37.7646 34.5882 37.972C34.9645 39.3159 35.5041 40.6087 36.195 41.8214C36.2987 42.0106 36.339 42.2281 36.3099 42.4419C36.2809 42.6558 36.1841 42.8547 36.0336 43.0095L31.6722 47.3709C31.5808 47.4641 31.4716 47.538 31.3512 47.5883C31.2307 47.6385 31.1013 47.6641 30.9708 47.6635Z" fill="white"/>
<path fill-rule="evenodd" clip-rule="evenodd" d="M51.3128 29.1035C50.4801 29.1025 49.6658 29.3485 48.9729 29.8103C48.28 30.2721 47.7397 30.9289 47.4201 31.6979C47.1005 32.4668 47.0161 33.3132 47.1776 34.1301C47.339 34.9469 47.739 35.6976 48.3271 36.2871C48.9152 36.8766 49.6649 37.2784 50.4814 37.4419C51.2979 37.6053 52.1446 37.5229 52.9142 37.2052C53.6839 36.8875 54.3421 36.3487 54.8055 35.6569C55.269 34.9651 55.5168 34.1513 55.5178 33.3187C55.5165 32.2029 55.0734 31.1331 54.2854 30.3432C53.4974 29.5533 52.4285 29.1075 51.3128 29.1035Z" fill="white"/>
<path fill-rule="evenodd" clip-rule="evenodd" d="M51.3104 44.4646C49.1031 44.4676 46.9444 43.8156 45.1078 42.5912C43.2712 41.3667 41.8391 39.6249 40.9929 37.5862C40.1467 35.5475 39.9243 33.3035 40.354 31.1384C40.7837 28.9733 41.8463 26.9843 43.4069 25.4233C44.9676 23.8622 46.9563 22.7994 49.1213 22.3692C51.2864 21.939 53.5303 22.1608 55.5692 23.0065C57.6081 23.8523 59.3502 25.284 60.5751 27.1203C61.7999 28.9567 62.4525 31.1152 62.45 33.3225C62.4433 36.2751 61.2676 39.1049 59.1801 41.1929C57.0925 43.2809 54.263 44.4573 51.3104 44.4646ZM51.3104 39.4977C52.5344 39.4967 53.7306 39.1328 54.7476 38.4519C55.7647 37.771 56.557 36.8038 57.0243 35.6726C57.4917 34.5414 57.6131 33.297 57.3731 32.0968C57.1332 30.8967 56.5427 29.7946 55.6763 28.9301C54.81 28.0655 53.7067 27.4772 52.5061 27.2397C51.3054 27.0022 50.0613 27.1262 48.931 27.5958C47.8008 28.0655 46.8351 28.8598 46.1564 29.8782C45.4776 30.8967 45.1162 32.0935 45.1177 33.3175C45.1197 34.9581 45.7731 36.5308 46.9344 37.6898C48.0957 38.8487 49.6698 39.499 51.3104 39.4977Z" fill="white"/>
<path fill-rule="evenodd" clip-rule="evenodd" d="M85.1121 20.3571C83.9391 20.3571 82.7925 20.0092 81.8173 19.3576C80.842 18.7059 80.0819 17.7797 79.6331 16.6961C79.1842 15.6124 79.0668 14.42 79.2956 13.2696C79.5244 12.1192 80.0892 11.0625 80.9186 10.2331C81.748 9.40371 82.8047 8.83888 83.9551 8.61005C85.1055 8.38123 86.298 8.49865 87.3816 8.94751C88.4653 9.39638 89.3915 10.1565 90.0431 11.1318C90.6948 12.107 91.0425 13.2536 91.0425 14.4266C91.0405 15.9988 90.4151 17.5061 89.3033 18.6178C88.1916 19.7296 86.6843 20.3551 85.1121 20.3571ZM85.1121 18.5307C85.9238 18.5307 86.7173 18.2901 87.3922 17.8391C88.0671 17.3881 88.5933 16.7471 88.9039 15.9972C89.2145 15.2473 89.2958 14.422 89.1374 13.6259C88.9791 12.8298 88.5881 12.0985 88.0141 11.5245C87.4401 10.9505 86.7089 10.5597 85.9128 10.4013C85.1167 10.2429 84.2915 10.3242 83.5415 10.6348C82.7916 10.9455 82.1506 11.4715 81.6996 12.1464C81.2487 12.8214 81.0079 13.6148 81.0079 14.4266C81.0092 15.5147 81.442 16.5578 82.2114 17.3272C82.9808 18.0966 84.024 18.5294 85.1121 18.5307Z" fill="white"/>
<path fill-rule="evenodd" clip-rule="evenodd" d="M15.9182 33.2072C14.3537 33.2092 12.8239 32.7471 11.522 31.8793C10.2202 31.0116 9.20496 29.7772 8.60486 28.3323C8.00477 26.8875 7.84674 25.2971 8.15073 23.7624C8.45473 22.2278 9.20718 20.8177 10.3127 19.7107C11.4183 18.6037 12.8273 17.8495 14.3616 17.5436C15.8959 17.2376 17.4865 17.3936 18.9321 17.9919C20.3777 18.5902 21.6135 19.6037 22.4829 20.9045C23.3523 22.2052 23.8163 23.7346 23.8163 25.2991C23.8137 27.3956 22.9796 29.4055 21.4971 30.888C20.0147 32.3705 18.0047 33.2045 15.9081 33.2072H15.9182ZM15.9182 31.3809C17.1212 31.3814 18.2973 31.0251 19.2978 30.3571C20.2983 29.6892 21.0782 28.7395 21.5389 27.6282C21.9996 26.517 22.1205 25.294 21.8861 24.1141C21.6517 22.9342 21.0727 21.8502 20.2222 20.9994C19.3717 20.1486 18.288 19.5691 17.1082 19.3343C15.9284 19.0994 14.7054 19.2196 13.5939 19.6799C12.4824 20.1401 11.5325 20.9197 10.8641 21.9199C10.1957 22.9201 9.83891 24.0961 9.83891 25.2991C9.84091 26.911 10.482 28.4564 11.6216 29.5964C12.7611 30.7365 14.3063 31.3782 15.9182 31.3809Z" fill="white"/>
</svg>
