<svg width="100" height="101" viewBox="0 0 100 101" fill="none" xmlns="http://www.w3.org/2000/svg">
<path d="M33.221 19.7031H53.7693C54.0175 19.7031 54.2555 19.8017 54.431 19.9772C54.6065 20.1527 54.7051 20.3908 54.7051 20.639V37.4514C54.7051 37.6996 54.6065 37.9377 54.431 38.1132C54.2555 38.2887 54.0175 38.3872 53.7693 38.3872H33.221C32.9728 38.3872 32.7348 38.2887 32.5593 38.1132C32.3838 37.9377 32.2852 37.6996 32.2852 37.4514V20.639C32.2848 20.516 32.3088 20.3941 32.3557 20.2805C32.4026 20.1668 32.4716 20.0634 32.5585 19.9765C32.6455 19.8895 32.7488 19.8206 32.8625 19.7737C32.9762 19.7268 33.098 19.7028 33.221 19.7031Z" fill="white"/>
<path fill-rule="evenodd" clip-rule="evenodd" d="M73.387 43.0547H33.2212C32.9818 43.0422 32.7562 42.9384 32.5911 42.7644C32.426 42.5905 32.334 42.3599 32.334 42.1201C32.334 41.8803 32.426 41.6497 32.5911 41.4758C32.7562 41.3019 32.9818 41.198 33.2212 41.1855H73.387C73.6264 41.198 73.8519 41.3019 74.017 41.4758C74.1821 41.6497 74.2742 41.8803 74.2742 42.1201C74.2742 42.3599 74.1821 42.5905 74.017 42.7644C73.8519 42.9384 73.6264 43.0422 73.387 43.0547Z" fill="white"/>
<path fill-rule="evenodd" clip-rule="evenodd" d="M73.387 47.7232H33.2212C32.9818 47.7107 32.7562 47.6068 32.5911 47.4329C32.426 47.259 32.334 47.0283 32.334 46.7885C32.334 46.5488 32.426 46.3182 32.5911 46.1443C32.7562 45.9703 32.9818 45.8664 33.2212 45.854H73.387C73.6264 45.8664 73.8519 45.9703 74.017 46.1443C74.1821 46.3182 74.2742 46.5488 74.2742 46.7885C74.2742 47.0283 74.1821 47.259 74.017 47.4329C73.8519 47.6068 73.6264 47.7107 73.387 47.7232Z" fill="white"/>
<path fill-rule="evenodd" clip-rule="evenodd" d="M55.6398 52.3954H33.2224C32.9748 52.3954 32.7375 52.2971 32.5624 52.1221C32.3874 51.947 32.2891 51.7097 32.2891 51.4621C32.2891 51.2146 32.3874 50.9772 32.5624 50.8021C32.7375 50.6271 32.9748 50.5288 33.2224 50.5288H55.6398C55.8874 50.5288 56.1247 50.6271 56.2998 50.8021C56.4748 50.9772 56.5731 51.2146 56.5731 51.4621C56.5731 51.7097 56.4748 51.947 56.2998 52.1221C56.1247 52.2971 55.8874 52.3954 55.6398 52.3954Z" fill="white"/>
<path fill-rule="evenodd" clip-rule="evenodd" d="M55.6387 57.0571H33.2212C32.9818 57.0447 32.7562 56.9408 32.5911 56.7669C32.426 56.593 32.334 56.3623 32.334 56.1225C32.334 55.8827 32.426 55.6521 32.5911 55.4782C32.7562 55.3043 32.9818 55.2004 33.2212 55.188H55.6387C55.8781 55.2004 56.1037 55.3043 56.2688 55.4782C56.4339 55.6521 56.5259 55.8827 56.5259 56.1225C56.5259 56.3623 56.4339 56.593 56.2688 56.7669C56.1037 56.9408 55.8781 57.0447 55.6387 57.0571Z" fill="white"/>
<path fill-rule="evenodd" clip-rule="evenodd" d="M55.6398 61.7348H33.2224C32.9748 61.7348 32.7375 61.6365 32.5624 61.4615C32.3874 61.2864 32.2891 61.0491 32.2891 60.8015C32.2891 60.554 32.3874 60.3166 32.5624 60.1415C32.7375 59.9665 32.9748 59.8682 33.2224 59.8682H55.6398C55.8874 59.8682 56.1247 59.9665 56.2998 60.1415C56.4748 60.3166 56.5731 60.554 56.5731 60.8015C56.5731 61.0491 56.4748 61.2864 56.2998 61.4615C56.1247 61.6365 55.8874 61.7348 55.6398 61.7348Z" fill="white"/>
<path fill-rule="evenodd" clip-rule="evenodd" d="M55.6387 66.4073H33.2212C32.9818 66.3948 32.7562 66.291 32.5911 66.117C32.426 65.9431 32.334 65.7125 32.334 65.4727C32.334 65.2329 32.426 65.0022 32.5911 64.8283C32.7562 64.6544 32.9818 64.5505 33.2212 64.5381H55.6387C55.8781 64.5505 56.1037 64.6544 56.2688 64.8283C56.4339 65.0022 56.5259 65.2329 56.5259 65.4727C56.5259 65.7125 56.4339 65.9431 56.2688 66.117C56.1037 66.291 55.8781 66.3948 55.6387 66.4073Z" fill="white"/>
<path fill-rule="evenodd" clip-rule="evenodd" d="M65.8201 93.4941H19.2119C19.1741 93.4968 19.1361 93.4968 19.0983 93.4941H18.7452C16.3925 93.4914 14.1369 92.5556 12.4732 90.892C10.8096 89.2283 9.87376 86.9727 9.87109 84.62V45.8568C9.87176 45.6097 9.97037 45.373 10.1453 45.1985C10.3203 45.024 10.5573 44.926 10.8044 44.926H25.7451V9.42941C25.7451 9.30663 25.7694 9.18507 25.8165 9.07166C25.8635 8.95826 25.9324 8.85528 26.0194 8.76858C26.1063 8.68188 26.2095 8.61318 26.323 8.56643C26.4366 8.51967 26.5582 8.49577 26.681 8.4961H80.8541C80.9769 8.49577 81.0985 8.51967 81.212 8.56643C81.3255 8.61318 81.4288 8.68188 81.5157 8.76858C81.6026 8.85528 81.6716 8.95826 81.7187 9.07166C81.7657 9.18507 81.7899 9.30663 81.7899 9.42941V77.5216C81.7839 81.7564 80.0989 85.816 77.1042 88.8102C74.1096 91.8044 70.0498 93.4887 65.815 93.4941H65.8201ZM24.1837 91.6275H65.8201C69.5595 91.6221 73.1442 90.1342 75.7884 87.49C78.4326 84.8458 79.9205 81.2611 79.9258 77.5216V10.3652H27.6168V84.62C27.6169 85.9725 27.3077 87.3071 26.7126 88.5217C26.1176 89.7363 25.2525 90.7986 24.1837 91.6275ZM11.7377 46.7926V84.6301C11.72 85.5613 11.8882 86.4868 12.2324 87.3523C12.5765 88.2178 13.0898 89.006 13.7421 89.6708C14.3944 90.3356 15.1728 90.8638 16.0316 91.2243C16.8904 91.5848 17.8126 91.7705 18.744 91.7705C19.6754 91.7705 20.5975 91.5848 21.4563 91.2243C22.3151 90.8638 23.0935 90.3356 23.7458 89.6708C24.3981 89.006 24.9114 88.2178 25.2555 87.3523C25.5997 86.4868 25.7679 85.5613 25.7502 84.6301V46.7926H11.7377Z" fill="white"/>
<path fill-rule="evenodd" clip-rule="evenodd" d="M86.4613 93.4952C85.5372 93.4957 84.6338 93.2221 83.8652 92.7091C83.0966 92.1961 82.4974 91.4666 82.1434 90.613C81.7894 89.7594 81.6966 88.82 81.8766 87.9136C82.0565 87.0073 82.5013 86.1746 83.1545 85.521C83.8078 84.8674 84.6402 84.4223 85.5465 84.2418C86.4527 84.0613 87.3922 84.1537 88.2459 84.5072C89.0997 84.8607 89.8295 85.4595 90.3429 86.2278C90.8564 86.9961 91.1304 87.8994 91.1304 88.8235C91.1291 90.0617 90.6368 91.2488 89.7615 92.1245C88.8863 93.0003 87.6994 93.4932 86.4613 93.4952ZM86.4613 86.021C85.9069 86.0205 85.3648 86.1845 84.9036 86.4921C84.4424 86.7997 84.0828 87.2372 83.8703 87.7493C83.6578 88.2613 83.602 88.8249 83.7098 89.3687C83.8177 89.9125 84.0844 90.4121 84.4762 90.8043C84.8681 91.1965 85.3674 91.4636 85.9111 91.5719C86.4548 91.6803 87.0184 91.625 87.5306 91.4129C88.0429 91.2009 88.4808 90.8417 88.7888 90.3808C89.0969 89.9199 89.2613 89.3779 89.2613 88.8235C89.2606 88.0809 88.9655 87.3688 88.4406 86.8435C87.9157 86.3181 87.2039 86.0224 86.4613 86.021Z" fill="white"/>
<path fill-rule="evenodd" clip-rule="evenodd" d="M14.5383 31.8474C13.2452 31.8474 11.9811 31.4639 10.9059 30.7455C9.83063 30.027 8.99259 29.0059 8.49772 27.8111C8.00285 26.6164 7.87335 25.3018 8.12563 24.0335C8.37791 22.7652 9.00062 21.6002 9.91502 20.6858C10.8294 19.7714 11.9944 19.1487 13.2627 18.8964C14.5311 18.6441 15.8457 18.7736 17.0405 19.2685C18.2352 19.7633 19.2563 20.6013 19.9747 21.6765C20.6931 22.7518 21.0766 24.0159 21.0766 25.309C21.0713 27.0415 20.3808 28.7014 19.1558 29.9264C17.9307 31.1515 16.2708 31.8421 14.5383 31.8474ZM14.5383 20.6399C13.6143 20.6399 12.7109 20.914 11.9426 21.4274C11.1743 21.9409 10.5755 22.6706 10.222 23.5244C9.86851 24.3782 9.77613 25.3177 9.95659 26.2239C10.1371 27.1302 10.5823 27.9626 11.2359 28.6159C11.8895 29.2691 12.7221 29.7138 13.6285 29.8938C14.5349 30.0738 15.4743 29.9809 16.3279 29.6269C17.1815 29.2729 17.9109 28.6738 18.4239 27.9052C18.9369 27.1366 19.2105 26.2331 19.21 25.309C19.2087 24.0707 18.716 22.8835 17.8401 22.0081C16.9642 21.1326 15.7767 20.6406 14.5383 20.6399Z" fill="white"/>
</svg>
