<svg width="101" height="98" viewBox="0 0 101 98" fill="none" xmlns="http://www.w3.org/2000/svg">
<path fill-rule="evenodd" clip-rule="evenodd" d="M93.612 97.507H7.39102C5.5644 97.5055 3.81307 96.7794 2.52117 95.488C1.22928 94.1967 0.502357 92.4456 0.5 90.619V86.6185C0.502357 84.7919 1.22928 83.0408 2.52117 81.7495C3.81307 80.4581 5.5644 79.732 7.39102 79.7305H39.3889C39.6841 79.7305 39.9671 79.8477 40.1758 80.0564C40.3845 80.2651 40.5018 80.5482 40.5018 80.8434V84.1761H60.5012V80.8404C60.5012 80.6944 60.5301 80.5498 60.586 80.4149C60.642 80.2801 60.724 80.1576 60.8274 80.0545C60.9307 79.9514 61.0535 79.8697 61.1885 79.8141C61.3235 79.7585 61.4681 79.7301 61.6141 79.7305H93.612C95.4383 79.732 97.1894 80.4582 98.4809 81.7496C99.7723 83.041 100.498 84.7922 100.5 86.6185V90.619C100.498 92.4453 99.7723 94.1964 98.4809 95.4878C97.1894 96.7792 95.4383 97.5055 93.612 97.507ZM7.39102 81.9533C6.15341 81.9549 4.96695 82.4472 4.09183 83.3223C3.21671 84.1974 2.72438 85.3839 2.72281 86.6215V90.622C2.72439 91.8593 3.21684 93.0454 4.09205 93.9201C4.96725 94.7947 6.15369 95.2864 7.39102 95.2872H93.612C94.8493 95.2864 96.0358 94.7947 96.911 93.9201C97.7862 93.0454 98.2786 91.8593 98.2802 90.622V86.6215C98.2786 85.3839 97.7863 84.1974 96.9111 83.3223C96.036 82.4472 94.8496 81.9549 93.612 81.9533H62.7241V85.286C62.7241 85.5807 62.6072 85.8632 62.3991 86.0719C62.191 86.2805 61.9088 86.3981 61.6141 86.3989H39.3889C39.2429 86.3989 39.0983 86.3701 38.9635 86.3141C38.8286 86.2582 38.7061 86.1761 38.603 86.0727C38.4999 85.9693 38.4182 85.8467 38.3626 85.7117C38.307 85.5767 38.2786 85.432 38.279 85.286V81.9533H7.39102Z" fill="#F83718"/>
<path fill-rule="evenodd" clip-rule="evenodd" d="M24.3903 16.1147C22.7965 16.1153 21.2383 15.6431 19.9128 14.758C18.5874 13.8729 17.5542 12.6145 16.944 11.1421C16.3338 9.66969 16.174 8.04938 16.4848 6.48614C16.7956 4.92289 17.563 3.48698 18.69 2.35996C19.8171 1.23294 21.253 0.46548 22.8162 0.154681C24.3795 -0.156119 25.9998 0.00368482 27.4722 0.613893C28.9446 1.2241 30.2029 2.25729 31.0881 3.58276C31.9732 4.90824 32.4453 6.4665 32.4448 8.06034C32.4416 10.1955 31.592 12.2424 30.0822 13.7522C28.5724 15.262 26.5255 16.1115 24.3903 16.1147ZM24.3903 2.22578C23.2364 2.22578 22.1084 2.56801 21.1489 3.20912C20.1894 3.85022 19.4416 4.76141 19 5.82753C18.5584 6.89365 18.4428 8.06681 18.6679 9.19859C18.8931 10.3304 19.4488 11.37 20.2648 12.1859C21.0807 13.0019 22.1203 13.5576 23.2521 13.7828C24.3839 14.0079 25.557 13.8923 26.6232 13.4507C27.6893 13.0091 28.6005 12.2613 29.2416 11.3018C29.8827 10.3423 30.2249 9.2143 30.2249 8.06034C30.2226 6.5142 29.6069 5.03211 28.513 3.93938C27.4192 2.84665 25.9365 2.2325 24.3903 2.23172V2.22578Z" fill="#F83718"/>
<path fill-rule="evenodd" clip-rule="evenodd" d="M91.6113 81.9534H8.27789C8.13189 81.9534 7.98737 81.9246 7.85252 81.8687C7.71766 81.8127 7.59516 81.7306 7.49206 81.6272C7.38895 81.5239 7.30726 81.4012 7.25166 81.2662C7.19605 81.1312 7.16758 80.9865 7.16797 80.8405V33.6746C7.1719 30.6403 8.37926 27.7315 10.5251 25.5862C12.671 23.4409 15.5801 22.2343 18.6145 22.2312H81.2807C84.315 22.2351 87.2239 23.4424 89.3692 25.5883C91.5145 27.7341 92.721 30.6433 92.7241 33.6776V80.8435C92.7234 81.1381 92.6058 81.4204 92.3972 81.6285C92.1885 81.8365 91.9059 81.9534 91.6113 81.9534ZM9.38789 79.7306H90.5013V33.6776C90.499 31.2321 89.5265 28.8874 87.7972 27.1581C86.0679 25.4289 83.7233 24.4564 81.2777 24.454H18.6115C16.1659 24.4564 13.8213 25.4289 12.092 27.1581C10.3628 28.8874 9.39024 31.2321 9.38789 33.6776V79.7306Z" fill="#F83718"/>
<path fill-rule="evenodd" clip-rule="evenodd" d="M77.1648 16.4115C76.0653 16.4121 74.9903 16.0866 74.0758 15.4762C73.1613 14.8657 72.4484 13.9978 72.0273 12.9822C71.6061 11.9665 71.4956 10.8488 71.7097 9.77035C71.9238 8.69191 72.453 7.70124 73.2303 6.92357C74.0076 6.1459 74.998 5.61617 76.0763 5.40145C77.1546 5.18674 78.2724 5.29666 79.2882 5.71728C80.3041 6.13791 81.1724 6.85031 81.7833 7.76447C82.3942 8.67863 82.7203 9.75346 82.7203 10.853C82.7187 12.3262 82.133 13.7386 81.0915 14.7806C80.0501 15.8226 78.638 16.4091 77.1648 16.4115ZM77.1648 7.52319C76.5056 7.52319 75.8613 7.71865 75.3132 8.08486C74.7651 8.45106 74.3379 8.97154 74.0857 9.58052C73.8334 10.1895 73.7675 10.8596 73.8961 11.5061C74.0247 12.1526 74.342 12.7464 74.8081 13.2125C75.2742 13.6786 75.8681 13.996 76.5146 14.1246C77.161 14.2532 77.8312 14.1873 78.4402 13.935C79.0491 13.6828 79.5696 13.2556 79.9358 12.7075C80.302 12.1594 80.4975 11.5151 80.4975 10.8559C80.4994 10.417 80.4147 9.98202 80.2481 9.57596C80.0815 9.1699 79.8363 8.80078 79.5266 8.48973C79.2169 8.17868 78.8489 7.93186 78.4436 7.76345C78.0383 7.59504 77.6037 7.50834 77.1648 7.50834V7.52319Z" fill="#F83718"/>
<path fill-rule="evenodd" clip-rule="evenodd" d="M91.6115 73.3412H8.27809C7.99326 73.3265 7.72496 73.203 7.52856 72.9961C7.33216 72.7893 7.22266 72.515 7.22266 72.2298C7.22266 71.9446 7.33216 71.6703 7.52856 71.4635C7.72496 71.2566 7.99326 71.1332 8.27809 71.1184H91.6115C91.7622 71.1106 91.913 71.1336 92.0546 71.1859C92.1963 71.2382 92.3258 71.3188 92.4352 71.4228C92.5447 71.5268 92.6319 71.6519 92.6915 71.7907C92.7511 71.9294 92.7818 72.0788 92.7818 72.2298C92.7818 72.3808 92.7511 72.5302 92.6915 72.6689C92.6319 72.8077 92.5447 72.9328 92.4352 73.0368C92.3258 73.1408 92.1963 73.2214 92.0546 73.2737C91.913 73.3261 91.7622 73.349 91.6115 73.3412Z" fill="#F83718"/>
<path d="M36.0561 47.7861H29.3906V64.4528H36.0561V47.7861Z" fill="#F83718"/>
<path fill-rule="evenodd" clip-rule="evenodd" d="M38.2793 46.6759V64.4525H44.9448V44.4531H38.2793V46.6759Z" fill="#F83718"/>
<path fill-rule="evenodd" clip-rule="evenodd" d="M56.0586 40.0081V64.4531H62.7271V37.7793H56.0586V39.9368C56.0605 39.9605 56.0605 39.9843 56.0586 40.0081Z" fill="#F83718"/>
<path fill-rule="evenodd" clip-rule="evenodd" d="M64.9453 36.6749V64.4527H71.6108V34.4551H64.9453V36.6749Z" fill="#F83718"/>
<path fill-rule="evenodd" clip-rule="evenodd" d="M47.168 43.7114V64.4527H53.8335V41.1206H47.168V43.7114Z" fill="#F83718"/>
</svg>
