<svg width="576" height="443" viewBox="0 0 576 443" fill="none" xmlns="http://www.w3.org/2000/svg">
<ellipse cx="410.467" cy="72.4617" rx="2.46661" ry="2.4617" fill="white"/>
<ellipse cx="425.267" cy="72.4617" rx="2.46661" ry="2.4617" fill="white"/>
<ellipse cx="454.863" cy="72.4617" rx="2.46661" ry="2.4617" fill="white"/>
<ellipse cx="469.664" cy="72.4617" rx="2.46661" ry="2.4617" fill="white"/>
<ellipse cx="484.463" cy="72.4617" rx="2.46661" ry="2.4617" fill="white"/>
<ellipse cx="499.265" cy="72.4617" rx="2.46661" ry="2.4617" fill="white"/>
<ellipse cx="514.062" cy="72.4617" rx="2.46661" ry="2.4617" fill="white"/>
<ellipse cx="410.465" cy="87.2312" rx="2.46661" ry="2.4617" fill="white"/>
<ellipse cx="425.269" cy="87.2312" rx="2.46661" ry="2.4617" fill="white"/>
<ellipse cx="440.064" cy="87.2312" rx="2.46661" ry="2.4617" fill="white"/>
<ellipse cx="469.664" cy="87.2312" rx="2.46661" ry="2.4617" fill="white"/>
<ellipse cx="484.463" cy="87.2312" rx="2.46661" ry="2.4617" fill="white"/>
<ellipse cx="499.265" cy="87.2312" rx="2.46661" ry="2.4617" fill="white"/>
<ellipse cx="514.064" cy="87.2312" rx="2.46661" ry="2.4617" fill="white"/>
<ellipse cx="410.465" cy="102.003" rx="2.46661" ry="2.4617" fill="white"/>
<ellipse cx="425.269" cy="102.003" rx="2.46661" ry="2.4617" fill="white"/>
<ellipse cx="440.064" cy="102.003" rx="2.46661" ry="2.4617" fill="white"/>
<ellipse cx="454.863" cy="102.003" rx="2.46661" ry="2.4617" fill="white"/>
<ellipse cx="484.463" cy="102.003" rx="2.46661" ry="2.4617" fill="white"/>
<ellipse cx="499.265" cy="102.003" rx="2.46661" ry="2.4617" fill="white"/>
<ellipse cx="514.064" cy="102.003" rx="2.46661" ry="2.4617" fill="white"/>
<ellipse cx="410.465" cy="116.773" rx="2.46661" ry="2.4617" fill="white"/>
<ellipse cx="425.269" cy="116.773" rx="2.46661" ry="2.4617" fill="white"/>
<ellipse cx="440.064" cy="116.773" rx="2.46661" ry="2.4617" fill="white"/>
<ellipse cx="454.863" cy="116.773" rx="2.46661" ry="2.4617" fill="white"/>
<ellipse cx="469.664" cy="116.773" rx="2.46661" ry="2.4617" fill="white"/>
<ellipse cx="499.265" cy="116.773" rx="2.46661" ry="2.4617" fill="white"/>
<ellipse cx="514.064" cy="116.773" rx="2.46661" ry="2.4617" fill="white"/>
<ellipse cx="410.465" cy="131.542" rx="2.46661" ry="2.4617" fill="white"/>
<ellipse cx="425.269" cy="131.542" rx="2.46661" ry="2.4617" fill="white"/>
<ellipse cx="440.064" cy="131.542" rx="2.46661" ry="2.4617" fill="white"/>
<ellipse cx="454.863" cy="131.542" rx="2.46661" ry="2.4617" fill="white"/>
<ellipse cx="469.664" cy="131.542" rx="2.46661" ry="2.4617" fill="white"/>
<ellipse cx="484.463" cy="131.542" rx="2.46661" ry="2.4617" fill="white"/>
<ellipse cx="499.265" cy="131.542" rx="2.46661" ry="2.4617" fill="white"/>
<ellipse cx="514.064" cy="131.542" rx="2.46661" ry="2.4617" fill="white"/>
<ellipse cx="410.465" cy="146.312" rx="2.46661" ry="2.4617" fill="white"/>
<ellipse cx="425.269" cy="146.312" rx="2.46661" ry="2.4617" fill="white"/>
<ellipse cx="440.064" cy="146.312" rx="2.46661" ry="2.4617" fill="white"/>
<ellipse cx="454.863" cy="146.312" rx="2.46661" ry="2.4617" fill="white"/>
<ellipse cx="469.664" cy="146.312" rx="2.46661" ry="2.4617" fill="white"/>
<ellipse cx="484.463" cy="146.312" rx="2.46661" ry="2.4617" fill="white"/>
<ellipse cx="514.064" cy="146.312" rx="2.46661" ry="2.4617" fill="white"/>
<ellipse cx="410.465" cy="161.083" rx="2.46661" ry="2.4617" fill="white"/>
<ellipse cx="425.269" cy="161.083" rx="2.46661" ry="2.4617" fill="white"/>
<ellipse cx="440.064" cy="161.083" rx="2.46661" ry="2.4617" fill="white"/>
<ellipse cx="454.863" cy="161.083" rx="2.46661" ry="2.4617" fill="white"/>
<ellipse cx="469.664" cy="161.083" rx="2.46661" ry="2.4617" fill="white"/>
<ellipse cx="484.463" cy="161.083" rx="2.46661" ry="2.4617" fill="white"/>
<ellipse cx="499.265" cy="161.083" rx="2.46661" ry="2.4617" fill="white"/>
<ellipse cx="410.465" cy="175.852" rx="2.46661" ry="2.4617" fill="white"/>
<ellipse cx="425.269" cy="175.852" rx="2.46661" ry="2.4617" fill="white"/>
<ellipse cx="440.064" cy="175.852" rx="2.46661" ry="2.4617" fill="white"/>
<ellipse cx="454.863" cy="175.852" rx="2.46661" ry="2.4617" fill="white"/>
<ellipse cx="469.664" cy="175.852" rx="2.46661" ry="2.4617" fill="white"/>
<ellipse cx="484.463" cy="175.852" rx="2.46661" ry="2.4617" fill="white"/>
<ellipse cx="499.265" cy="175.852" rx="2.46661" ry="2.4617" fill="white"/>
<ellipse cx="514.064" cy="175.852" rx="2.46661" ry="2.4617" fill="white"/>
<ellipse cx="410.465" cy="190.623" rx="2.46661" ry="2.4617" fill="white"/>
<ellipse cx="425.269" cy="190.623" rx="2.46661" ry="2.4617" fill="white"/>
<ellipse cx="440.064" cy="190.623" rx="2.46661" ry="2.4617" fill="white"/>
<ellipse cx="454.863" cy="190.623" rx="2.46661" ry="2.4617" fill="white"/>
<ellipse cx="469.664" cy="190.623" rx="2.46661" ry="2.4617" fill="white"/>
<ellipse cx="484.463" cy="190.623" rx="2.46661" ry="2.4617" fill="white"/>
<ellipse cx="499.265" cy="190.623" rx="2.46661" ry="2.4617" fill="white"/>
<ellipse cx="514.064" cy="190.623" rx="2.46661" ry="2.4617" fill="white"/>
<ellipse cx="410.465" cy="205.393" rx="2.46661" ry="2.4617" fill="white"/>
<ellipse cx="425.269" cy="205.393" rx="2.46661" ry="2.4617" fill="white"/>
<ellipse cx="440.064" cy="205.393" rx="2.46661" ry="2.4617" fill="white"/>
<ellipse cx="454.863" cy="205.393" rx="2.46661" ry="2.4617" fill="white"/>
<ellipse cx="469.664" cy="205.393" rx="2.46661" ry="2.4617" fill="white"/>
<ellipse cx="484.463" cy="205.393" rx="2.46661" ry="2.4617" fill="white"/>
<ellipse cx="499.265" cy="205.393" rx="2.46661" ry="2.4617" fill="white"/>
<ellipse cx="514.064" cy="205.393" rx="2.46661" ry="2.4617" fill="white"/>
<ellipse cx="410.465" cy="220.163" rx="2.46661" ry="2.4617" fill="white"/>
<ellipse cx="425.269" cy="220.163" rx="2.46661" ry="2.4617" fill="white"/>
<ellipse cx="440.064" cy="220.163" rx="2.46661" ry="2.4617" fill="white"/>
<ellipse cx="454.863" cy="220.163" rx="2.46661" ry="2.4617" fill="white"/>
<ellipse cx="469.664" cy="220.163" rx="2.46661" ry="2.4617" fill="white"/>
<ellipse cx="484.463" cy="220.163" rx="2.46661" ry="2.4617" fill="white"/>
<ellipse cx="499.265" cy="220.163" rx="2.46661" ry="2.4617" fill="white"/>
<ellipse cx="514.064" cy="220.163" rx="2.46661" ry="2.4617" fill="white"/>
<ellipse cx="410.465" cy="234.934" rx="2.46661" ry="2.4617" fill="white"/>
<ellipse cx="425.269" cy="234.934" rx="2.46661" ry="2.4617" fill="white"/>
<ellipse cx="440.064" cy="234.934" rx="2.46661" ry="2.4617" fill="white"/>
<ellipse cx="454.863" cy="234.934" rx="2.46661" ry="2.4617" fill="white"/>
<ellipse cx="469.664" cy="234.934" rx="2.46661" ry="2.4617" fill="white"/>
<ellipse cx="484.463" cy="234.934" rx="2.46661" ry="2.4617" fill="white"/>
<ellipse cx="499.265" cy="234.934" rx="2.46661" ry="2.4617" fill="white"/>
<ellipse cx="514.064" cy="234.934" rx="2.46661" ry="2.4617" fill="white"/>
<ellipse cx="528.271" cy="72.4617" rx="2.46661" ry="2.4617" fill="white"/>
<ellipse cx="543.07" cy="72.4617" rx="2.46661" ry="2.4617" fill="white"/>
<ellipse cx="557.867" cy="72.4617" rx="2.46661" ry="2.4617" fill="white"/>
<ellipse cx="572.67" cy="72.4617" rx="2.46661" ry="2.4617" fill="white"/>
<ellipse cx="528.271" cy="87.2312" rx="2.46661" ry="2.4617" fill="white"/>
<ellipse cx="543.074" cy="87.2312" rx="2.46661" ry="2.4617" fill="white"/>
<ellipse cx="557.867" cy="87.2312" rx="2.46661" ry="2.4617" fill="white"/>
<ellipse cx="572.67" cy="87.2312" rx="2.46661" ry="2.4617" fill="white"/>
<ellipse cx="528.271" cy="102.003" rx="2.46661" ry="2.4617" fill="white"/>
<ellipse cx="543.074" cy="102.003" rx="2.46661" ry="2.4617" fill="white"/>
<ellipse cx="557.867" cy="102.003" rx="2.46661" ry="2.4617" fill="white"/>
<ellipse cx="572.67" cy="102.003" rx="2.46661" ry="2.4617" fill="white"/>
<ellipse cx="528.271" cy="116.773" rx="2.46661" ry="2.4617" fill="white"/>
<ellipse cx="543.074" cy="116.773" rx="2.46661" ry="2.4617" fill="white"/>
<ellipse cx="557.867" cy="116.773" rx="2.46661" ry="2.4617" fill="white"/>
<ellipse cx="572.67" cy="116.773" rx="2.46661" ry="2.4617" fill="white"/>
<ellipse cx="528.271" cy="131.542" rx="2.46661" ry="2.4617" fill="white"/>
<ellipse cx="543.074" cy="131.542" rx="2.46661" ry="2.4617" fill="white"/>
<ellipse cx="557.867" cy="131.542" rx="2.46661" ry="2.4617" fill="white"/>
<ellipse cx="572.67" cy="131.542" rx="2.46661" ry="2.4617" fill="white"/>
<ellipse cx="528.271" cy="146.312" rx="2.46661" ry="2.4617" fill="white"/>
<ellipse cx="543.074" cy="146.312" rx="2.46661" ry="2.4617" fill="white"/>
<ellipse cx="557.867" cy="146.312" rx="2.46661" ry="2.4617" fill="white"/>
<ellipse cx="572.67" cy="146.312" rx="2.46661" ry="2.4617" fill="white"/>
<ellipse cx="528.271" cy="161.083" rx="2.46661" ry="2.4617" fill="white"/>
<ellipse cx="543.074" cy="161.083" rx="2.46661" ry="2.4617" fill="white"/>
<ellipse cx="557.867" cy="161.083" rx="2.46661" ry="2.4617" fill="white"/>
<ellipse cx="572.67" cy="161.083" rx="2.46661" ry="2.4617" fill="white"/>
<ellipse cx="543.074" cy="175.852" rx="2.46661" ry="2.4617" fill="white"/>
<ellipse cx="557.867" cy="175.852" rx="2.46661" ry="2.4617" fill="white"/>
<ellipse cx="572.67" cy="175.852" rx="2.46661" ry="2.4617" fill="white"/>
<ellipse cx="543.074" cy="190.623" rx="2.46661" ry="2.4617" fill="white"/>
<ellipse cx="557.867" cy="190.623" rx="2.46661" ry="2.4617" fill="white"/>
<ellipse cx="572.67" cy="190.623" rx="2.46661" ry="2.4617" fill="white"/>
<ellipse cx="543.074" cy="205.393" rx="2.46661" ry="2.4617" fill="white"/>
<ellipse cx="557.867" cy="205.393" rx="2.46661" ry="2.4617" fill="white"/>
<ellipse cx="572.67" cy="205.393" rx="2.46661" ry="2.4617" fill="white"/>
<ellipse cx="543.074" cy="220.163" rx="2.46661" ry="2.4617" fill="white"/>
<ellipse cx="557.867" cy="220.163" rx="2.46661" ry="2.4617" fill="white"/>
<ellipse cx="572.67" cy="220.163" rx="2.46661" ry="2.4617" fill="white"/>
<ellipse cx="543.074" cy="234.934" rx="2.46661" ry="2.4617" fill="white"/>
<ellipse cx="557.867" cy="234.934" rx="2.46661" ry="2.4617" fill="white"/>
<ellipse cx="572.67" cy="234.934" rx="2.46661" ry="2.4617" fill="white"/>
<ellipse cx="30.2674" cy="277.462" rx="2.46661" ry="2.4617" fill="white"/>
<ellipse cx="45.0643" cy="277.462" rx="2.46661" ry="2.4617" fill="white"/>
<ellipse cx="59.8631" cy="277.462" rx="2.46661" ry="2.4617" fill="white"/>
<ellipse cx="74.6639" cy="277.462" rx="2.46661" ry="2.4617" fill="white"/>
<ellipse cx="89.4627" cy="277.462" rx="2.46661" ry="2.4617" fill="white"/>
<ellipse cx="104.265" cy="277.462" rx="2.46661" ry="2.4617" fill="white"/>
<ellipse cx="119.062" cy="277.462" rx="2.46661" ry="2.4617" fill="white"/>
<ellipse cx="30.2694" cy="292.231" rx="2.46661" ry="2.4617" fill="white"/>
<ellipse cx="45.0643" cy="292.231" rx="2.46661" ry="2.4617" fill="white"/>
<ellipse cx="59.8631" cy="292.231" rx="2.46661" ry="2.4617" fill="white"/>
<ellipse cx="74.6639" cy="292.231" rx="2.46661" ry="2.4617" fill="white"/>
<ellipse cx="89.4627" cy="292.231" rx="2.46661" ry="2.4617" fill="white"/>
<ellipse cx="104.265" cy="292.231" rx="2.46661" ry="2.4617" fill="white"/>
<ellipse cx="119.064" cy="292.231" rx="2.46661" ry="2.4617" fill="white"/>
<ellipse cx="30.2694" cy="307.003" rx="2.46661" ry="2.4617" fill="white"/>
<ellipse cx="45.0643" cy="307.003" rx="2.46661" ry="2.4617" fill="white"/>
<ellipse cx="59.8631" cy="307.003" rx="2.46661" ry="2.4617" fill="white"/>
<ellipse cx="74.6639" cy="307.003" rx="2.46661" ry="2.4617" fill="white"/>
<ellipse cx="89.4627" cy="307.003" rx="2.46661" ry="2.4617" fill="white"/>
<ellipse cx="104.265" cy="307.003" rx="2.46661" ry="2.4617" fill="white"/>
<ellipse cx="119.064" cy="307.003" rx="2.46661" ry="2.4617" fill="white"/>
<ellipse cx="45.0643" cy="321.773" rx="2.46661" ry="2.4617" fill="white"/>
<ellipse cx="59.8631" cy="321.773" rx="2.46661" ry="2.4617" fill="white"/>
<ellipse cx="74.6639" cy="321.773" rx="2.46661" ry="2.4617" fill="white"/>
<ellipse cx="89.4627" cy="321.773" rx="2.46661" ry="2.4617" fill="white"/>
<ellipse cx="104.265" cy="321.773" rx="2.46661" ry="2.4617" fill="white"/>
<ellipse cx="119.064" cy="321.773" rx="2.46661" ry="2.4617" fill="white"/>
<ellipse cx="45.0643" cy="336.542" rx="2.46661" ry="2.4617" fill="white"/>
<ellipse cx="59.8631" cy="336.542" rx="2.46661" ry="2.4617" fill="white"/>
<ellipse cx="74.6639" cy="336.542" rx="2.46661" ry="2.4617" fill="white"/>
<ellipse cx="89.4627" cy="336.542" rx="2.46661" ry="2.4617" fill="white"/>
<ellipse cx="104.265" cy="336.542" rx="2.46661" ry="2.4617" fill="white"/>
<ellipse cx="119.064" cy="336.542" rx="2.46661" ry="2.4617" fill="white"/>
<ellipse cx="30.2694" cy="351.312" rx="2.46661" ry="2.4617" fill="white"/>
<ellipse cx="45.0643" cy="351.312" rx="2.46661" ry="2.4617" fill="white"/>
<ellipse cx="59.8631" cy="351.312" rx="2.46661" ry="2.4617" fill="white"/>
<ellipse cx="74.6639" cy="351.312" rx="2.46661" ry="2.4617" fill="white"/>
<ellipse cx="89.4627" cy="351.312" rx="2.46661" ry="2.4617" fill="white"/>
<ellipse cx="104.265" cy="351.312" rx="2.46661" ry="2.4617" fill="white"/>
<ellipse cx="119.064" cy="351.312" rx="2.46661" ry="2.4617" fill="white"/>
<ellipse cx="30.2694" cy="366.083" rx="2.46661" ry="2.4617" fill="white"/>
<ellipse cx="59.8631" cy="366.083" rx="2.46661" ry="2.4617" fill="white"/>
<ellipse cx="74.6639" cy="366.083" rx="2.46661" ry="2.4617" fill="white"/>
<ellipse cx="89.4627" cy="366.083" rx="2.46661" ry="2.4617" fill="white"/>
<ellipse cx="104.265" cy="366.083" rx="2.46661" ry="2.4617" fill="white"/>
<ellipse cx="119.064" cy="366.083" rx="2.46661" ry="2.4617" fill="white"/>
<ellipse cx="30.2694" cy="380.852" rx="2.46661" ry="2.4617" fill="white"/>
<ellipse cx="45.0643" cy="380.852" rx="2.46661" ry="2.4617" fill="white"/>
<ellipse cx="74.6639" cy="380.852" rx="2.46661" ry="2.4617" fill="white"/>
<ellipse cx="89.4627" cy="380.852" rx="2.46661" ry="2.4617" fill="white"/>
<ellipse cx="104.265" cy="380.852" rx="2.46661" ry="2.4617" fill="white"/>
<ellipse cx="119.064" cy="380.852" rx="2.46661" ry="2.4617" fill="white"/>
<ellipse cx="30.2694" cy="395.623" rx="2.46661" ry="2.4617" fill="white"/>
<ellipse cx="45.0643" cy="395.623" rx="2.46661" ry="2.4617" fill="white"/>
<ellipse cx="74.6639" cy="395.623" rx="2.46661" ry="2.4617" fill="white"/>
<ellipse cx="89.4627" cy="395.623" rx="2.46661" ry="2.4617" fill="white"/>
<ellipse cx="104.265" cy="395.623" rx="2.46661" ry="2.4617" fill="white"/>
<ellipse cx="119.064" cy="395.623" rx="2.46661" ry="2.4617" fill="white"/>
<ellipse cx="30.2694" cy="410.393" rx="2.46661" ry="2.4617" fill="white"/>
<ellipse cx="45.0643" cy="410.393" rx="2.46661" ry="2.4617" fill="white"/>
<ellipse cx="59.8631" cy="410.393" rx="2.46661" ry="2.4617" fill="white"/>
<ellipse cx="74.6639" cy="410.393" rx="2.46661" ry="2.4617" fill="white"/>
<ellipse cx="89.4627" cy="410.393" rx="2.46661" ry="2.4617" fill="white"/>
<ellipse cx="104.265" cy="410.393" rx="2.46661" ry="2.4617" fill="white"/>
<ellipse cx="119.064" cy="410.393" rx="2.46661" ry="2.4617" fill="white"/>
<ellipse cx="30.2694" cy="425.163" rx="2.46661" ry="2.4617" fill="white"/>
<ellipse cx="45.0643" cy="425.163" rx="2.46661" ry="2.4617" fill="white"/>
<ellipse cx="59.8631" cy="425.163" rx="2.46661" ry="2.4617" fill="white"/>
<ellipse cx="74.6639" cy="425.163" rx="2.46661" ry="2.4617" fill="white"/>
<ellipse cx="89.4627" cy="425.163" rx="2.46661" ry="2.4617" fill="white"/>
<ellipse cx="104.265" cy="425.163" rx="2.46661" ry="2.4617" fill="white"/>
<ellipse cx="119.064" cy="425.163" rx="2.46661" ry="2.4617" fill="white"/>
<ellipse cx="15.4666" cy="277.462" rx="2.46661" ry="2.4617" fill="white"/>
<ellipse cx="15.4666" cy="292.231" rx="2.46661" ry="2.4617" fill="white"/>
<ellipse cx="15.4666" cy="307.003" rx="2.46661" ry="2.4617" fill="white"/>
<ellipse cx="15.4666" cy="321.773" rx="2.46661" ry="2.4617" fill="white"/>
<ellipse cx="15.4666" cy="336.542" rx="2.46661" ry="2.4617" fill="white"/>
<ellipse cx="15.4666" cy="351.312" rx="2.46661" ry="2.4617" fill="white"/>
<ellipse cx="15.4666" cy="366.083" rx="2.46661" ry="2.4617" fill="white"/>
<ellipse cx="15.4666" cy="380.852" rx="2.46661" ry="2.4617" fill="white"/>
<ellipse cx="15.4666" cy="395.623" rx="2.46661" ry="2.4617" fill="white"/>
<ellipse cx="15.4666" cy="410.393" rx="2.46661" ry="2.4617" fill="white"/>
<ellipse cx="15.4666" cy="425.163" rx="2.46661" ry="2.4617" fill="white"/>
<ellipse cx="15.4666" cy="439.934" rx="2.46661" ry="2.4617" fill="white"/>
<ellipse cx="2.51349" cy="277.462" rx="2.46661" ry="2.4617" fill="white"/>
<ellipse cx="2.51349" cy="292.231" rx="2.46661" ry="2.4617" fill="white"/>
<ellipse cx="2.51349" cy="307.003" rx="2.46661" ry="2.4617" fill="white"/>
<ellipse cx="2.51349" cy="321.773" rx="2.46661" ry="2.4617" fill="white"/>
<ellipse cx="2.51349" cy="336.542" rx="2.46661" ry="2.4617" fill="white"/>
<ellipse cx="2.51349" cy="351.312" rx="2.46661" ry="2.4617" fill="white"/>
<ellipse cx="2.51349" cy="366.083" rx="2.46661" ry="2.4617" fill="white"/>
<ellipse cx="2.51349" cy="380.852" rx="2.46661" ry="2.4617" fill="white"/>
<ellipse cx="2.51349" cy="395.623" rx="2.46661" ry="2.4617" fill="white"/>
<ellipse cx="2.51349" cy="410.393" rx="2.46661" ry="2.4617" fill="white"/>
<ellipse cx="2.51349" cy="425.163" rx="2.46661" ry="2.4617" fill="white"/>
<ellipse cx="2.51349" cy="439.934" rx="2.46661" ry="2.4617" fill="white"/>
<ellipse cx="30.2694" cy="439.934" rx="2.46661" ry="2.4617" fill="white"/>
<ellipse cx="45.0643" cy="439.934" rx="2.46661" ry="2.4617" fill="white"/>
<ellipse cx="59.8631" cy="439.934" rx="2.46661" ry="2.4617" fill="white"/>
<ellipse cx="74.6639" cy="439.934" rx="2.46661" ry="2.4617" fill="white"/>
<ellipse cx="89.4627" cy="439.934" rx="2.46661" ry="2.4617" fill="white"/>
<ellipse cx="104.265" cy="439.934" rx="2.46661" ry="2.4617" fill="white"/>
<ellipse cx="119.064" cy="439.934" rx="2.46661" ry="2.4617" fill="white"/>
<ellipse cx="133.271" cy="277.462" rx="2.46661" ry="2.4617" fill="white"/>
<ellipse cx="148.07" cy="277.462" rx="2.46661" ry="2.4617" fill="white"/>
<ellipse cx="162.867" cy="277.462" rx="2.46661" ry="2.4617" fill="white"/>
<ellipse cx="177.67" cy="277.462" rx="2.46661" ry="2.4617" fill="white"/>
<ellipse cx="133.271" cy="292.231" rx="2.46661" ry="2.4617" fill="white"/>
<ellipse cx="148.074" cy="292.231" rx="2.46661" ry="2.4617" fill="white"/>
<ellipse cx="162.867" cy="292.231" rx="2.46661" ry="2.4617" fill="white"/>
<ellipse cx="177.67" cy="292.231" rx="2.46661" ry="2.4617" fill="white"/>
<ellipse cx="133.271" cy="307.003" rx="2.46661" ry="2.4617" fill="white"/>
<ellipse cx="148.074" cy="307.003" rx="2.46661" ry="2.4617" fill="white"/>
<ellipse cx="162.867" cy="307.003" rx="2.46661" ry="2.4617" fill="white"/>
<ellipse cx="177.67" cy="307.003" rx="2.46661" ry="2.4617" fill="white"/>
<ellipse cx="133.271" cy="321.773" rx="2.46661" ry="2.4617" fill="white"/>
<ellipse cx="148.074" cy="321.773" rx="2.46661" ry="2.4617" fill="white"/>
<ellipse cx="162.867" cy="321.773" rx="2.46661" ry="2.4617" fill="white"/>
<ellipse cx="177.67" cy="321.773" rx="2.46661" ry="2.4617" fill="white"/>
<ellipse cx="133.271" cy="336.542" rx="2.46661" ry="2.4617" fill="white"/>
<ellipse cx="148.074" cy="336.542" rx="2.46661" ry="2.4617" fill="white"/>
<ellipse cx="162.867" cy="336.542" rx="2.46661" ry="2.4617" fill="white"/>
<ellipse cx="177.67" cy="336.542" rx="2.46661" ry="2.4617" fill="white"/>
<ellipse cx="133.271" cy="351.312" rx="2.46661" ry="2.4617" fill="white"/>
<ellipse cx="148.074" cy="351.312" rx="2.46661" ry="2.4617" fill="white"/>
<ellipse cx="162.867" cy="351.312" rx="2.46661" ry="2.4617" fill="white"/>
<ellipse cx="177.67" cy="351.312" rx="2.46661" ry="2.4617" fill="white"/>
<ellipse cx="133.271" cy="366.083" rx="2.46661" ry="2.4617" fill="white"/>
<ellipse cx="148.074" cy="366.083" rx="2.46661" ry="2.4617" fill="white"/>
<ellipse cx="162.867" cy="366.083" rx="2.46661" ry="2.4617" fill="white"/>
<ellipse cx="177.67" cy="366.083" rx="2.46661" ry="2.4617" fill="white"/>
<ellipse cx="133.271" cy="380.852" rx="2.46661" ry="2.4617" fill="white"/>
<ellipse cx="148.074" cy="380.852" rx="2.46661" ry="2.4617" fill="white"/>
<ellipse cx="162.867" cy="380.852" rx="2.46661" ry="2.4617" fill="white"/>
<ellipse cx="177.67" cy="380.852" rx="2.46661" ry="2.4617" fill="white"/>
<ellipse cx="133.271" cy="395.623" rx="2.46661" ry="2.4617" fill="white"/>
<ellipse cx="148.074" cy="395.623" rx="2.46661" ry="2.4617" fill="white"/>
<ellipse cx="162.867" cy="395.623" rx="2.46661" ry="2.4617" fill="white"/>
<ellipse cx="177.67" cy="395.623" rx="2.46661" ry="2.4617" fill="white"/>
<ellipse cx="133.271" cy="410.393" rx="2.46661" ry="2.4617" fill="white"/>
<ellipse cx="148.074" cy="410.393" rx="2.46661" ry="2.4617" fill="white"/>
<ellipse cx="162.867" cy="410.393" rx="2.46661" ry="2.4617" fill="white"/>
<ellipse cx="177.67" cy="410.393" rx="2.46661" ry="2.4617" fill="white"/>
<ellipse cx="133.271" cy="425.163" rx="2.46661" ry="2.4617" fill="white"/>
<ellipse cx="148.074" cy="425.163" rx="2.46661" ry="2.4617" fill="white"/>
<ellipse cx="162.867" cy="425.163" rx="2.46661" ry="2.4617" fill="white"/>
<ellipse cx="133.271" cy="439.934" rx="2.46661" ry="2.4617" fill="white"/>
<ellipse cx="148.074" cy="439.934" rx="2.46661" ry="2.4617" fill="white"/>
<ellipse cx="162.867" cy="439.934" rx="2.46661" ry="2.4617" fill="white"/>
<path d="M294.896 422.942C446.117 422.942 568.706 417.581 568.706 410.968C568.706 404.355 446.117 398.994 294.896 398.994C143.675 398.994 21.0859 404.355 21.0859 410.968C21.0859 417.581 143.675 422.942 294.896 422.942Z" fill="#E2E2E2"/>
<path fill-rule="evenodd" clip-rule="evenodd" d="M294.893 398.993C358.596 398.993 417.197 399.945 463.71 401.54C577.541 336.591 538.123 209.958 497.254 138.334C440.372 38.6539 305.963 2.82662 250.369 82.3586C174.906 190.309 102.112 152.641 62.8028 234.626C23.4935 316.61 83.1904 395.204 126.076 401.554C172.59 399.958 231.202 399.007 294.893 399.007V398.993ZM195.215 124.589C157.784 153.035 95.8823 175.074 75.3139 144.837C59.9524 122.242 78.8715 79.8522 115.93 47.7144C152.988 15.5766 202.576 -3.8408 229.62 19.8051C261.709 47.868 224.043 102.679 195.215 124.589Z" fill="white"/>
<path fill-rule="evenodd" clip-rule="evenodd" d="M205.31 22.8809C221.187 23.8349 230.845 36.849 231.514 51.8574C231.784 58.2419 226.777 41.5464 209.175 39.226C198.259 37.7815 196.621 40.9939 192.71 36.4987C188.799 32.0034 192.51 22.0993 205.31 22.8809Z" fill="white"/>
<path fill-rule="evenodd" clip-rule="evenodd" d="M380.99 72.7636C449.373 87.9903 492.893 150.776 497.15 181.102C499.563 198.243 489.133 143.332 402.856 118.201C356.54 104.713 328.357 117.573 318.677 98.7972C308.998 80.0212 325.844 60.5068 380.99 72.7636Z" fill="white"/>
<path fill-rule="evenodd" clip-rule="evenodd" d="M474.277 369.753C477.398 365.853 481.787 362.635 483.074 357.811C484.594 352.122 481.247 346.134 482.078 340.294C483.117 332.955 490.197 328.199 494.041 321.858C497.801 315.659 496.039 313.56 496.384 306.31C496.897 295.385 505.872 281.597 517.83 285.289C529.976 289.062 527.987 300.319 525.849 308.795C524.33 314.832 525.309 315.699 526.802 321.747C528.589 329.05 534.36 336.111 531.931 343.237C530.441 347.643 526.114 350.616 524.548 354.998C522.772 359.959 524.923 365.341 525.749 370.548C527.493 381.503 524.994 390.62 517.017 399.654C515.431 401.166 513.687 402.505 511.816 403.648C501.88 403.085 490.834 402.57 478.798 402.085C478.071 401.458 477.381 400.789 476.731 400.082C469.446 392.146 467.27 378.498 474.277 369.753Z" fill="white"/>
<path fill-rule="evenodd" clip-rule="evenodd" d="M512.314 295.156C512.355 295.033 512.421 294.92 512.507 294.823C512.593 294.726 512.698 294.647 512.816 294.592C512.933 294.537 513.06 294.505 513.19 294.501C513.32 294.496 513.449 294.517 513.57 294.564C513.692 294.61 513.802 294.681 513.895 294.771C513.988 294.861 514.062 294.97 514.112 295.089C514.163 295.209 514.188 295.337 514.187 295.467C514.186 295.596 514.159 295.724 514.107 295.843C513.145 298.382 512.334 300.974 511.677 303.608C511.947 303.36 512.239 303.12 512.53 302.883C513.897 301.799 515.386 300.88 516.968 300.144C517.195 300.055 517.447 300.056 517.674 300.146C517.9 300.236 518.084 300.409 518.187 300.63C518.29 300.85 518.305 301.102 518.229 301.333C518.153 301.564 517.992 301.758 517.778 301.875C516.334 302.547 514.975 303.386 513.729 304.376C512.628 305.252 511.645 306.268 510.805 307.397C509.58 313.239 508.778 319.524 508.058 326.151C509.107 324.505 510.298 322.952 511.615 321.51C513.682 319.23 516.152 317.35 518.903 315.967C519.13 315.862 519.388 315.85 519.624 315.933C519.859 316.016 520.053 316.188 520.163 316.411C520.274 316.634 520.293 316.892 520.217 317.129C520.14 317.366 519.974 317.564 519.753 317.681C517.218 318.961 514.942 320.696 513.038 322.801C510.856 325.23 509.016 327.945 507.569 330.87L507.383 332.668C506.972 336.619 506.554 340.669 506.06 344.795C506.057 344.834 506.052 344.873 506.044 344.911C505.528 349.223 504.924 353.651 504.154 358.141C506.099 355.103 508.341 352.265 510.846 349.668C514.155 346.205 518.054 343.357 522.361 341.257C522.474 341.202 522.597 341.17 522.723 341.163C522.849 341.156 522.975 341.174 523.093 341.216C523.212 341.257 523.322 341.322 523.416 341.406C523.509 341.489 523.586 341.591 523.64 341.704C523.695 341.817 523.727 341.94 523.734 342.066C523.741 342.191 523.723 342.317 523.681 342.435C523.64 342.554 523.575 342.663 523.491 342.757C523.407 342.851 523.306 342.927 523.192 342.981C519.091 344.988 515.376 347.702 512.22 350.999C508.885 354.427 505.865 358.611 503.158 363.55C501.961 369.682 500.398 375.738 498.478 381.684V381.708C497.497 384.711 496.392 387.729 495.163 390.764C502.017 384.859 510.217 380.723 519.044 378.717C519.291 378.659 519.552 378.703 519.768 378.837C519.984 378.971 520.137 379.185 520.195 379.433C520.252 379.68 520.209 379.94 520.075 380.155C519.941 380.371 519.726 380.524 519.478 380.582C514.535 381.707 509.776 383.522 505.339 385.972C500.931 388.439 496.884 391.499 493.312 395.068C492.192 397.547 490.97 400.031 489.646 402.519L487.522 402.428C491.192 395.638 494.239 388.53 496.624 381.191C496.975 376.456 496.411 371.699 494.961 367.177C493.469 362.441 491.04 357.7 487.673 352.953C487.593 352.851 487.534 352.734 487.501 352.609C487.468 352.484 487.46 352.354 487.479 352.225C487.497 352.097 487.542 351.974 487.609 351.864C487.677 351.754 487.766 351.658 487.872 351.583C487.977 351.508 488.097 351.455 488.224 351.428C488.35 351.4 488.481 351.399 488.609 351.423C488.736 351.448 488.857 351.498 488.964 351.57C489.071 351.643 489.163 351.736 489.233 351.845C492.724 356.754 495.243 361.672 496.791 366.6C497.657 369.329 498.229 372.142 498.497 374.993C501.374 364.619 502.969 354.476 504.136 344.809C503.009 340.707 501.749 337.237 500.357 334.398C498.964 331.559 497.464 329.38 495.857 327.86C495.766 327.774 495.692 327.67 495.641 327.556C495.59 327.441 495.561 327.318 495.558 327.193C495.554 327.067 495.576 326.942 495.621 326.825C495.665 326.708 495.733 326.601 495.819 326.51C495.905 326.418 496.009 326.345 496.124 326.294C496.238 326.243 496.362 326.215 496.487 326.211C496.613 326.208 496.738 326.229 496.855 326.274C496.973 326.318 497.08 326.386 497.171 326.472C498.971 328.164 500.609 330.527 502.087 333.56C503.092 335.657 503.958 337.818 504.681 340.028C504.951 337.47 505.221 334.95 505.491 332.482L505.688 330.549C505.688 330.517 505.688 330.479 505.688 330.447C507.045 317.295 508.419 305.324 512.314 295.156Z" fill="#0D0D0D"/>
<path fill-rule="evenodd" clip-rule="evenodd" d="M506.39 374.874C509.721 373.085 513.735 372.139 516.061 369.161C518.809 365.657 518.253 360.485 520.564 356.669C523.465 351.864 529.809 350.646 534.368 347.366C538.829 344.154 538.222 342.178 540.614 337.228C544.215 329.773 554.555 322.823 561.789 328.932C569.129 335.131 564.405 342.407 560.402 347.676C557.549 351.433 557.973 352.33 557.22 356.982C556.296 362.598 558.213 369.22 554.423 373.47C552.077 376.1 548.18 376.893 545.785 379.48C543.086 382.412 542.976 386.797 542.007 390.667C540.484 396.749 537.62 401.417 532.829 405.034C524.208 404.376 514.188 403.754 502.954 403.18C501.252 401.312 499.937 399.127 499.086 396.749C496.378 389.055 498.91 378.917 506.39 374.874Z" fill="#0D0D0D"/>
<path fill-rule="evenodd" clip-rule="evenodd" d="M555.019 334.179C555.155 334.05 555.335 333.979 555.522 333.979C555.709 333.98 555.889 334.053 556.024 334.182C556.158 334.312 556.238 334.489 556.245 334.675C556.253 334.862 556.188 335.044 556.064 335.184C554.642 336.67 553.308 338.236 552.069 339.876C552.339 339.787 552.609 339.701 552.879 339.623C554.151 339.273 555.46 339.073 556.779 339.027C556.966 339.029 557.145 339.102 557.279 339.232C557.413 339.361 557.492 339.538 557.499 339.724C557.506 339.91 557.442 340.092 557.318 340.232C557.195 340.372 557.022 340.459 556.836 340.475C555.63 340.513 554.433 340.694 553.27 341.014C552.244 341.298 551.258 341.713 550.339 342.251C547.75 345.962 545.326 350.101 542.856 354.505C544.076 353.668 545.366 352.938 546.711 352.322C548.824 351.345 551.1 350.767 553.424 350.616C553.614 350.609 553.799 350.676 553.94 350.804C554.081 350.932 554.165 351.109 554.176 351.299C554.187 351.488 554.123 351.674 553.998 351.817C553.873 351.96 553.697 352.048 553.508 352.063C551.358 352.202 549.253 352.74 547.299 353.648C545.057 354.693 542.968 356.04 541.091 357.65L540.424 358.846C538.97 361.477 537.477 364.174 535.903 366.91C535.887 366.937 535.873 366.964 535.857 366.988C534.213 369.847 532.483 372.745 530.621 375.647C532.877 374.107 535.28 372.792 537.795 371.723C541.131 370.29 544.696 369.459 548.322 369.271C548.42 369.262 548.518 369.274 548.611 369.304C548.704 369.334 548.79 369.383 548.863 369.448C548.937 369.512 548.996 369.59 549.039 369.678C549.081 369.766 549.106 369.862 549.11 369.959C549.115 370.057 549.099 370.154 549.065 370.246C549.031 370.337 548.979 370.421 548.912 370.492C548.845 370.562 548.764 370.619 548.674 370.658C548.584 370.697 548.488 370.717 548.39 370.718C544.938 370.902 541.545 371.695 538.37 373.06C534.766 374.618 531.389 376.656 528.332 379.118C525.681 383.036 522.796 386.792 519.694 390.364H519.681C518.108 392.161 516.442 393.936 514.684 395.69C521.21 393.601 528.15 393.146 534.894 394.364C535.081 394.399 535.246 394.507 535.355 394.663C535.463 394.82 535.506 395.012 535.473 395.2C535.44 395.387 535.335 395.554 535.181 395.665C535.026 395.776 534.833 395.822 534.645 395.792C530.867 395.114 527.011 394.972 523.192 395.369C519.394 395.784 515.67 396.718 512.125 398.145C510.204 399.913 508.166 401.638 506.014 403.319L503.779 403.203C509.171 399.152 514.121 394.545 518.547 389.459C520.196 386.269 521.214 382.792 521.546 379.218C521.906 375.477 521.619 371.455 520.685 367.15C520.659 367.055 520.654 366.956 520.668 366.859C520.682 366.762 520.715 366.669 520.766 366.586C520.817 366.502 520.885 366.429 520.965 366.372C521.044 366.316 521.135 366.275 521.231 366.255C521.327 366.234 521.426 366.232 521.522 366.251C521.619 366.269 521.71 366.307 521.792 366.361C521.873 366.416 521.943 366.487 521.996 366.569C522.049 366.651 522.085 366.743 522.102 366.84C523.074 371.294 523.369 375.466 522.987 379.355C522.781 381.513 522.345 383.642 521.686 385.707C526.769 379.331 530.891 372.736 534.575 366.339C534.985 363.568 535.14 360.766 535.037 357.968C534.913 355.591 534.514 353.631 533.841 352.087C533.803 352 533.782 351.907 533.78 351.812C533.779 351.717 533.796 351.622 533.83 351.534C533.865 351.445 533.917 351.365 533.983 351.296C534.049 351.228 534.128 351.173 534.215 351.135C534.302 351.097 534.396 351.076 534.491 351.074C534.586 351.072 534.681 351.089 534.769 351.124C534.858 351.159 534.939 351.21 535.007 351.276C535.076 351.342 535.131 351.421 535.169 351.508C535.914 353.217 536.354 355.347 536.489 357.898C536.568 359.654 536.532 361.413 536.381 363.164C537.336 361.466 538.27 359.787 539.18 358.135L539.89 356.849C539.89 356.825 539.914 356.804 539.93 356.779C544.778 348.04 549.289 340.108 555.019 334.179Z" fill="#4D4D4D"/>
<path fill-rule="evenodd" clip-rule="evenodd" d="M133.676 361.784C130.188 357.426 125.281 353.826 123.84 348.433C122.139 342.07 125.883 335.376 124.954 328.857C123.791 320.651 115.877 315.331 111.577 308.24C107.369 301.295 109.342 298.961 108.961 290.855C108.381 278.636 98.3451 263.22 84.9757 267.354C71.4011 271.559 73.6172 284.155 76.0087 293.633C77.7093 300.387 76.5972 301.357 74.9452 308.119C72.9451 316.287 66.5073 324.181 69.1985 332.147C70.8612 337.077 75.701 340.402 77.4501 345.299C79.4368 350.845 77.0344 356.866 76.1005 362.687C74.1543 374.939 76.9481 385.131 85.8637 395.245C89.2764 398.497 93.3177 401.02 97.7405 402.659C105.709 402.298 114.192 401.958 123.135 401.643C126.051 400.14 128.681 398.139 130.906 395.73C139.08 386.837 141.514 371.572 133.676 361.784Z" fill="white"/>
<path fill-rule="evenodd" clip-rule="evenodd" d="M91.1419 278.392C91.0191 278.158 90.8146 277.977 90.5672 277.884C90.3198 277.791 90.0467 277.791 89.7997 277.886C89.5528 277.98 89.3491 278.162 89.2273 278.396C89.1055 278.63 89.0741 278.901 89.1391 279.157C90.2137 281.991 91.1204 284.885 91.8545 287.824C91.5468 287.544 91.2292 287.275 90.9017 287.016C89.3753 285.803 87.711 284.775 85.9432 283.952C85.8139 283.87 85.6687 283.817 85.5173 283.795C85.3659 283.774 85.2116 283.785 85.0648 283.828C84.918 283.87 84.7819 283.944 84.6655 284.043C84.5492 284.142 84.4553 284.265 84.39 284.403C84.3247 284.541 84.2895 284.691 84.2868 284.844C84.2841 284.996 84.3139 285.148 84.3742 285.288C84.4345 285.428 84.524 285.554 84.6367 285.658C84.7495 285.761 84.8829 285.839 85.0281 285.887C86.6443 286.638 88.1663 287.577 89.5629 288.684C90.7916 289.666 91.8893 290.8 92.8289 292.061C94.2002 298.596 95.0963 305.625 95.9034 313.033C94.7307 311.192 93.3994 309.456 91.9247 307.845C89.6207 305.295 86.8631 303.194 83.7918 301.647C83.6642 301.562 83.5201 301.506 83.369 301.482C83.2178 301.457 83.0632 301.465 82.9153 301.504C82.7675 301.544 82.6297 301.615 82.5113 301.711C82.3928 301.808 82.2963 301.929 82.2282 302.066C82.1602 302.203 82.122 302.353 82.1164 302.506C82.1107 302.658 82.1376 302.811 82.1954 302.952C82.2532 303.094 82.3404 303.221 82.4514 303.327C82.5623 303.432 82.6945 303.513 82.839 303.563C85.6753 304.995 88.2214 306.94 90.3483 309.298C92.6103 311.752 94.6492 314.759 96.4649 318.318L96.6727 320.329C97.1262 324.746 97.5958 329.276 98.1492 333.903C98.1519 333.948 98.1573 333.992 98.1654 334.035C98.7457 338.87 99.4205 343.807 100.271 348.826C98.0966 345.434 95.5951 342.263 92.802 339.358C89.0986 335.49 84.7386 332.306 79.9238 329.955C79.7951 329.874 79.6507 329.821 79.5001 329.799C79.3494 329.778 79.196 329.788 79.0497 329.83C78.9034 329.872 78.7676 329.945 78.6513 330.042C78.535 330.14 78.4407 330.262 78.3746 330.399C78.3085 330.536 78.2722 330.685 78.268 330.837C78.2638 330.989 78.2918 331.14 78.3501 331.28C78.4085 331.42 78.4959 331.547 78.6066 331.651C78.7173 331.755 78.8488 331.835 78.9926 331.885C83.5798 334.128 87.7339 337.162 91.2634 340.848C94.9884 344.681 98.366 349.359 101.396 354.884C102.734 361.74 104.482 368.51 106.63 375.158V375.185C107.726 378.543 108.962 381.918 110.336 385.31C102.673 378.706 93.5036 374.079 83.6326 371.835C83.3678 371.803 83.1002 371.869 82.8814 372.021C82.6626 372.174 82.5081 372.402 82.4477 372.661C82.3874 372.921 82.4254 373.193 82.5545 373.427C82.6835 373.66 82.8945 373.837 83.1467 373.924C88.675 375.184 93.9975 377.217 98.9563 379.963C103.887 382.718 108.414 386.139 112.409 390.129C114.161 394.01 116.129 397.909 118.348 401.809L120.777 401.717C115.816 393.13 111.774 384.046 108.717 374.614C108.321 369.321 108.951 364.002 110.574 358.948C112.242 353.655 114.962 348.355 118.734 343.047C118.837 342.935 118.914 342.801 118.962 342.656C119.009 342.511 119.025 342.357 119.008 342.206C118.992 342.054 118.943 341.908 118.866 341.776C118.788 341.644 118.684 341.531 118.559 341.443C118.434 341.354 118.292 341.294 118.142 341.264C117.992 341.235 117.838 341.238 117.689 341.273C117.54 341.307 117.4 341.373 117.279 341.466C117.157 341.559 117.057 341.676 116.985 341.81C113.087 347.301 110.271 352.801 108.536 358.309C107.564 361.361 106.925 364.508 106.628 367.696C103.407 356.094 101.626 344.751 100.322 333.93C101.582 329.342 102.987 325.46 104.538 322.285C106.09 319.111 107.768 316.675 109.572 314.979C109.696 314.889 109.799 314.773 109.875 314.64C109.95 314.507 109.996 314.359 110.01 314.207C110.024 314.055 110.006 313.901 109.956 313.757C109.906 313.612 109.825 313.48 109.72 313.369C109.615 313.257 109.487 313.17 109.346 313.112C109.204 313.054 109.051 313.026 108.898 313.031C108.745 313.037 108.595 313.074 108.457 313.142C108.32 313.21 108.199 313.306 108.101 313.424C106.097 315.316 104.266 317.957 102.608 321.347C101.484 323.689 100.514 326.102 99.704 328.57C99.3909 325.711 99.0993 322.892 98.8132 320.118L98.5892 317.962C98.5918 317.923 98.5918 317.883 98.5892 317.844C97.0371 303.137 95.5012 289.754 91.1419 278.392Z" fill="#0D0D0D"/>
<path fill-rule="evenodd" clip-rule="evenodd" d="M98.3102 368.012C94.4574 366.274 89.9082 365.531 87.0938 362.391C83.7554 358.685 83.9693 352.884 81.0975 348.808C77.4917 343.676 70.3146 342.808 64.9726 339.51C59.7431 336.272 60.2594 334.021 57.2158 328.687C52.6166 320.65 40.5363 313.703 32.9485 321.085C25.2445 328.586 31.0805 336.318 35.959 341.887C39.4319 345.854 39.0145 346.888 40.2334 352.014C41.7002 358.209 40.0788 365.746 44.6405 370.19C47.4575 372.94 51.868 373.521 54.7382 376.219C57.9855 379.28 58.4405 384.162 59.8222 388.404C62.5197 396.682 67.3548 400.223 75.6147 404.001C83.6515 404.001 91.5863 404.116 100.616 403.074C104.251 400.214 106.892 396.285 108.165 391.842C110.588 383.044 106.969 371.918 98.3102 368.012Z" fill="#0D0D0D"/>
<path fill-rule="evenodd" clip-rule="evenodd" d="M40.7351 326.521C40.575 326.377 40.3642 326.302 40.1491 326.314C39.934 326.325 39.7321 326.421 39.5879 326.581C39.4437 326.741 39.369 326.951 39.3802 327.166C39.3914 327.381 39.4877 327.582 39.6477 327.726C41.3518 329.27 42.9621 330.914 44.4701 332.649C44.1695 332.567 43.8611 332.491 43.5508 332.427C42.1032 332.135 40.6263 332.015 39.1503 332.067C38.9355 332.074 38.732 332.165 38.5846 332.321C38.4372 332.477 38.358 332.686 38.3644 332.9C38.3708 333.115 38.4622 333.318 38.6187 333.465C38.7751 333.612 38.9837 333.691 39.1985 333.685C40.5473 333.633 41.8974 333.742 43.2204 334.009C44.3869 334.248 45.5179 334.636 46.586 335.162C49.7647 339.1 52.791 343.527 55.889 348.246C54.4597 347.414 52.9617 346.705 51.4115 346.128C48.9792 345.201 46.3961 344.733 43.7926 344.745C43.6861 344.746 43.5809 344.769 43.4829 344.81C43.385 344.852 43.2962 344.913 43.2218 344.989C43.1473 345.065 43.0886 345.155 43.049 345.254C43.0093 345.353 42.9896 345.458 42.9908 345.564C42.992 345.671 43.0142 345.776 43.0561 345.874C43.098 345.971 43.1587 346.06 43.2349 346.134C43.3111 346.209 43.4012 346.267 43.5001 346.307C43.5989 346.346 43.7046 346.366 43.8111 346.365C46.2169 346.355 48.6035 346.791 50.8497 347.65C53.4309 348.641 55.8642 349.98 58.0819 351.629L58.9164 352.922C60.7373 355.744 62.6225 358.636 64.589 361.567C64.6065 361.596 64.6256 361.623 64.6462 361.65C66.7031 364.713 68.8649 367.806 71.1646 370.898C68.5261 369.357 65.7423 368.078 62.8532 367.081C59.0231 365.746 54.9865 365.098 50.93 365.167C50.8236 365.17 50.7187 365.193 50.6214 365.236C50.5241 365.28 50.4362 365.341 50.3628 365.418C50.2146 365.574 50.1344 365.782 50.1397 365.996C50.145 366.211 50.2355 366.415 50.3912 366.563C50.5469 366.711 50.7552 366.791 50.9701 366.785C54.835 366.721 58.6807 367.339 62.3298 368.611C66.1638 369.912 70.0535 371.906 73.9989 374.593C77.2617 378.746 80.7694 382.702 84.5034 386.439L84.518 386.455C86.4139 388.337 88.4095 390.188 90.5047 392.006C83.0631 390.187 75.2875 390.219 67.8606 392.101C67.6514 392.152 67.4707 392.283 67.3585 392.466C67.2462 392.65 67.2115 392.87 67.262 393.079C67.3125 393.288 67.4441 393.468 67.6277 393.58C67.8114 393.693 68.0321 393.727 68.2414 393.677C72.4032 392.626 76.6925 392.167 80.9826 392.313C85.2557 392.477 89.4857 393.229 93.5532 394.546C96.4838 396.89 99.5361 399.078 102.697 401.101C103.076 400.714 103.44 400.306 103.789 399.876C97.2544 395.704 91.1929 390.836 85.7104 385.358C83.6196 381.926 82.2134 378.123 81.5692 374.158C80.8664 370.014 80.8713 365.506 81.5841 360.633C81.5996 360.527 81.5943 360.42 81.5683 360.317C81.5424 360.214 81.4963 360.117 81.4328 360.032C81.3693 359.946 81.2896 359.874 81.1982 359.82C81.1068 359.765 81.0055 359.729 80.9001 359.713C80.7948 359.698 80.6874 359.703 80.584 359.729C80.4807 359.755 80.3835 359.801 80.298 359.864C80.2125 359.928 80.1403 360.008 80.0856 360.099C80.0309 360.19 79.9948 360.291 79.9792 360.396C79.2494 365.438 79.2454 370.114 79.967 374.424C80.3664 376.815 81.0191 379.156 81.914 381.409C75.7619 374.691 70.6377 367.658 66.027 360.81C65.3541 357.752 64.9634 354.639 64.8598 351.509C64.8145 348.849 65.1103 346.631 65.7474 344.855C65.8198 344.653 65.8086 344.43 65.7163 344.236C65.6241 344.042 65.4584 343.892 65.2556 343.82C65.0529 343.748 64.8297 343.759 64.6352 343.851C64.4407 343.943 64.2908 344.109 64.2185 344.311C63.5208 346.278 63.1968 348.688 63.2466 351.541C63.2942 353.506 63.4719 355.465 63.7786 357.407C62.5799 355.589 61.4081 353.793 60.2631 352.02L59.3549 350.641C59.3413 350.614 59.325 350.589 59.3064 350.566C53.2278 341.184 47.5765 332.688 40.7351 326.521Z" fill="#4D4D4D"/>
<path fill-rule="evenodd" clip-rule="evenodd" d="M347.614 241.849C346.804 253.073 345.136 254.62 334.42 255.488C345.136 256.348 346.796 257.897 347.614 269.122C348.424 257.897 350.092 256.348 360.811 255.488C350.092 254.62 348.434 253.063 347.614 241.849ZM391.183 271.45C390.745 277.444 389.86 278.269 384.14 278.727C389.86 279.188 390.745 280.015 391.183 286.003C391.62 280.012 392.505 279.185 398.23 278.727C392.505 278.263 391.62 277.439 391.183 271.45ZM372.104 225.331C371.662 231.4 370.755 232.236 364.967 232.705C370.765 233.173 371.662 234.009 372.104 240.081C372.547 234.009 373.454 233.173 379.238 232.705C373.43 232.236 372.533 231.4 372.091 225.331H372.104Z" fill="white"/>
<path d="M253.873 52.1162H44.3974C38.9323 52.1162 34.502 56.5396 34.502 61.9961V190.28C34.502 195.737 38.9323 200.16 44.3974 200.16H253.873C259.339 200.16 263.769 195.737 263.769 190.28V61.9961C263.769 56.5396 259.339 52.1162 253.873 52.1162Z" fill="#F9F9F9"/>
<path fill-rule="evenodd" clip-rule="evenodd" d="M263.768 61.9853V72.2263H34.4961V61.9853C34.4957 60.6878 34.7515 59.4029 35.2486 58.2041C35.7458 57.0052 36.4747 55.9159 37.3936 54.9984C38.3126 54.0809 39.4036 53.3532 40.6043 52.8568C41.8051 52.3604 43.092 52.1051 44.3916 52.1055H253.854C255.155 52.103 256.444 52.3567 257.647 52.8521C258.85 53.3475 259.943 54.0749 260.863 54.9925C261.784 55.9102 262.515 57.0002 263.013 58.2001C263.512 59.4 263.768 60.6863 263.768 61.9853Z" fill="#DE2C10"/>
<path fill-rule="evenodd" clip-rule="evenodd" d="M79.7922 62.1648C79.7927 63.2794 79.4622 64.3692 78.8423 65.2963C78.2224 66.2233 77.3411 66.946 76.3098 67.373C75.2786 67.7999 74.1436 67.9119 73.0486 67.6947C71.9536 67.4776 70.9476 66.9411 70.158 66.1531C69.3684 65.3651 68.8306 64.361 68.6126 63.2678C68.3946 62.1746 68.5062 61.0414 68.9333 60.0116C69.3604 58.9817 70.0838 58.1015 71.0121 57.4821C71.9403 56.8628 73.0316 56.5322 74.1481 56.5322C74.8891 56.5319 75.623 56.6773 76.3078 56.9602C76.9925 57.2431 77.6148 57.6579 78.1389 58.181C78.6631 58.7041 79.0788 59.3251 79.3625 60.0087C79.6462 60.6922 79.7922 61.4249 79.7922 62.1648Z" fill="white"/>
<path fill-rule="evenodd" clip-rule="evenodd" d="M65.0774 62.1657C65.0779 63.2804 64.7473 64.3702 64.1275 65.2972C63.5076 66.2243 62.6263 66.947 61.595 67.3739C60.5637 67.8009 59.4288 67.9129 58.3338 67.6957C57.2387 67.4786 56.2328 66.9421 55.4432 66.1541C54.6535 65.3661 54.1157 64.362 53.8977 63.2688C53.6797 62.1756 53.7913 61.0424 54.2184 60.0125C54.6456 58.9827 55.369 58.1024 56.2972 57.4831C57.2254 56.8638 58.3168 56.5332 59.4332 56.5332C60.1743 56.5328 60.9082 56.6783 61.5929 56.9612C62.2777 57.2441 62.8999 57.6589 63.4241 58.182C63.9482 58.7051 64.364 59.3261 64.6477 60.0096C64.9314 60.6932 65.0774 61.4258 65.0774 62.1657Z" fill="white"/>
<path fill-rule="evenodd" clip-rule="evenodd" d="M49.9817 62.1657C49.9822 63.2805 49.6516 64.3704 49.0316 65.2975C48.4116 66.2247 47.5301 66.9473 46.4987 67.3742C45.4672 67.8011 44.3322 67.9129 43.2371 67.6955C42.1419 67.4782 41.136 66.9414 40.3465 66.1532C39.557 65.3649 39.0194 64.3605 38.8017 63.2672C38.584 62.1738 38.696 61.0405 39.1235 60.0107C39.551 58.9809 40.2749 58.1008 41.2035 57.4818C42.1321 56.8628 43.2237 56.5327 44.3402 56.5332C45.8364 56.5332 47.2713 57.1266 48.3293 58.1829C49.3873 59.2392 49.9817 60.6719 49.9817 62.1657Z" fill="white"/>
<path d="M185.326 102.176H118.514V109.576H185.326V102.176Z" fill="#EBEBEB"/>
<path d="M245.094 102.176H194.064V109.576H245.094V102.176Z" fill="#C1C1C1"/>
<path d="M172.626 115.184H58.0723V122.581H172.626V115.184Z" fill="#EBEBEB"/>
<path d="M203.782 84.6572H89.2285V92.055H203.782V84.6572Z" fill="#EBEBEB"/>
<path d="M209.453 115.184H181.607V122.581H209.453V115.184Z" fill="#DDDDDD"/>
<path d="M245.09 115.185H218.189V122.582H245.09V115.185Z" fill="#C1C1C1"/>
<path d="M245.095 84.6572H212.348V92.055H245.095V84.6572Z" fill="#C1C1C1"/>
<path d="M118.517 128.192H58.0723V135.59H118.517V128.192Z" fill="#EBEBEB"/>
<path d="M209.449 128.192H127.494V135.59H209.449V128.192Z" fill="#DDDDDD"/>
<path d="M118.512 141.201H81.4082V148.599H118.512V141.201Z" fill="#DDDDDD"/>
<path d="M245.092 141.201H127.248V148.599H245.092V141.201Z" fill="#C1C1C1"/>
<path d="M109.534 154.21H58.0723V161.608H109.534V154.21Z" fill="#EBEBEB"/>
<path d="M209.452 154.21H118.514V161.608H209.452V154.21Z" fill="#DDDDDD"/>
<path d="M245.09 154.21H218.189V161.608H245.09V154.21Z" fill="#C1C1C1"/>
<path d="M144.243 167.219H58.0723V174.617H144.243V167.219Z" fill="#EBEBEB"/>
<path d="M185.327 167.219H153.225V174.617H185.327V167.219Z" fill="#DDDDDD"/>
<path d="M245.094 167.219H194.064V174.617H245.094V167.219Z" fill="#C1C1C1"/>
<path d="M209.45 180.228H95.7656V187.625H209.45V180.228Z" fill="#DDDDDD"/>
<path d="M245.09 180.228H218.189V187.625H245.09V180.228Z" fill="#C1C1C1"/>
<path fill-rule="evenodd" clip-rule="evenodd" d="M63.5218 86.332L54.6602 89.601V92.3634L63.5218 95.6324V93.0102L57.7886 90.9836L63.5218 88.9543V86.332Z" fill="#C1C1C1"/>
<path fill-rule="evenodd" clip-rule="evenodd" d="M63.9004 99.0595H66.9425L72.8727 82.1484H69.8361L63.9004 99.0595Z" fill="#C1C1C1"/>
<path fill-rule="evenodd" clip-rule="evenodd" d="M73.0703 86.3311V88.9533L78.8062 90.9826L73.0703 93.0092V95.6315L81.9347 92.3624V89.6001L73.0703 86.3311Z" fill="#C1C1C1"/>
<path fill-rule="evenodd" clip-rule="evenodd" d="M457.144 100.546V198.547C457.144 200.548 456.348 202.467 454.93 203.883C453.513 205.298 451.591 206.093 449.586 206.093H289.558C287.553 206.093 285.631 205.298 284.214 203.883C282.796 202.467 282 200.548 282 198.547V100.546C282 98.5447 282.796 96.6253 284.214 95.2102C285.631 93.795 287.553 93 289.558 93H449.581C450.574 92.9993 451.557 93.1939 452.475 93.5729C453.392 93.9518 454.226 94.5075 454.929 95.2083C455.631 95.909 456.188 96.7411 456.568 97.657C456.948 98.5729 457.144 99.5546 457.144 100.546Z" fill="#F9F9F9"/>
<path fill-rule="evenodd" clip-rule="evenodd" d="M456.745 101.003V108.819H281.604V101.003C281.604 99.0017 282.4 97.0823 283.817 95.6672C285.235 94.252 287.157 93.457 289.161 93.457H449.182C450.175 93.4563 451.158 93.651 452.076 94.0299C452.993 94.4088 453.827 94.9645 454.529 95.6653C455.232 96.3661 455.789 97.1982 456.169 98.114C456.549 99.0299 456.745 100.012 456.745 101.003Z" fill="#F83718"/>
<path fill-rule="evenodd" clip-rule="evenodd" d="M316.198 101.134C316.198 101.987 315.945 102.821 315.47 103.53C314.996 104.239 314.321 104.792 313.532 105.118C312.743 105.444 311.875 105.53 311.037 105.363C310.199 105.197 309.43 104.786 308.826 104.183C308.222 103.58 307.81 102.812 307.644 101.975C307.477 101.139 307.562 100.272 307.889 99.4841C308.216 98.6962 308.77 98.0228 309.48 97.549C310.19 97.0752 311.025 96.8223 311.879 96.8223C313.025 96.8223 314.123 97.2766 314.933 98.0852C315.743 98.8939 316.198 99.9906 316.198 101.134Z" fill="white"/>
<path fill-rule="evenodd" clip-rule="evenodd" d="M304.964 101.134C304.964 101.987 304.71 102.821 304.236 103.53C303.761 104.239 303.087 104.792 302.298 105.118C301.509 105.444 300.64 105.53 299.802 105.363C298.965 105.197 298.195 104.786 297.591 104.183C296.987 103.58 296.576 102.812 296.409 101.975C296.243 101.139 296.328 100.272 296.655 99.4841C296.982 98.6962 297.535 98.0228 298.246 97.549C298.956 97.0752 299.791 96.8223 300.645 96.8223C301.79 96.8223 302.889 97.2766 303.699 98.0852C304.509 98.8939 304.964 99.9906 304.964 101.134Z" fill="white"/>
<path fill-rule="evenodd" clip-rule="evenodd" d="M293.433 101.135C293.433 101.988 293.179 102.822 292.705 103.531C292.23 104.24 291.556 104.793 290.766 105.119C289.977 105.445 289.109 105.531 288.271 105.364C287.433 105.198 286.664 104.787 286.06 104.184C285.456 103.581 285.045 102.813 284.878 101.976C284.711 101.14 284.797 100.273 285.124 99.4851C285.451 98.6972 286.004 98.0237 286.714 97.5499C287.425 97.0761 288.26 96.8232 289.114 96.8232C290.259 96.8232 291.358 97.2775 292.168 98.0862C292.978 98.8948 293.433 99.9916 293.433 101.135Z" fill="white"/>
<path d="M521.905 166.164H456.178C450.96 166.164 446.73 170.387 446.73 175.597V241.22C446.73 246.429 450.96 250.652 456.178 250.652H521.905C527.122 250.652 531.352 246.429 531.352 241.22V175.597C531.352 170.387 527.122 166.164 521.905 166.164Z" fill="#F9F9F9"/>
<path fill-rule="evenodd" clip-rule="evenodd" d="M478.348 205.188L466.571 209.225L478.348 213.26V219.86L458.527 212.68V205.77L478.348 198.591V205.188Z" fill="#C1C1C1"/>
<path fill-rule="evenodd" clip-rule="evenodd" d="M491.758 190.134H499.529L486.705 226.689H478.934L491.758 190.134Z" fill="#C1C1C1"/>
<path fill-rule="evenodd" clip-rule="evenodd" d="M519.548 205.769V212.679L499.725 219.859V213.259L511.504 209.224L499.725 205.187V198.59L519.548 205.769Z" fill="#C1C1C1"/>
<path fill-rule="evenodd" clip-rule="evenodd" d="M73.62 253.204H40.7808C40.1611 253.205 39.5474 253.083 38.9748 252.846C38.4022 252.61 37.8819 252.263 37.4437 251.825C37.0055 251.388 36.6579 250.868 36.4209 250.297C36.184 249.725 36.0621 249.112 36.0625 248.494V215.709C36.0625 214.459 36.5596 213.261 37.4445 212.378C38.3293 211.494 39.5294 210.998 40.7808 210.998H73.62C74.8714 210.998 76.0715 211.494 76.9563 212.378C77.8412 213.261 78.3383 214.459 78.3383 215.709V248.494C78.3386 249.112 78.2169 249.725 77.9799 250.297C77.7429 250.868 77.3953 251.388 76.9571 251.825C76.5189 252.263 75.9986 252.61 75.426 252.846C74.8534 253.083 74.2397 253.205 73.62 253.204Z" fill="#EBEBEB"/>
<path fill-rule="evenodd" clip-rule="evenodd" d="M61.3382 244.824C61.3489 245.635 61.1182 246.431 60.6755 247.111C60.2327 247.79 59.5978 248.324 58.8512 248.643C58.1045 248.962 57.2797 249.053 56.4813 248.904C55.6829 248.755 54.9468 248.373 54.3662 247.806C53.7857 247.238 53.3868 246.512 53.2201 245.718C53.0534 244.925 53.1265 244.099 53.43 243.347C53.7335 242.595 54.2538 241.949 54.925 241.493C55.5961 241.036 56.388 240.788 57.2002 240.781C58.2854 240.771 59.3302 241.191 60.1059 241.949C60.8815 242.707 61.3247 243.741 61.3382 244.824Z" fill="white"/>
<path fill-rule="evenodd" clip-rule="evenodd" d="M68.981 225.476C65.5798 222.925 61.432 221.564 57.1784 221.601C52.9247 221.639 48.8017 223.073 45.4461 225.684C44.3664 226.516 42.8602 226.667 41.9641 225.832C41.0679 224.996 41.3541 223.269 42.7253 222.202C46.846 218.993 51.91 217.228 57.1355 217.18C62.3609 217.131 67.4571 218.801 71.6371 221.932C73.0272 222.978 73.3349 224.705 72.4468 225.552C71.5588 226.398 70.0715 226.29 68.981 225.476Z" fill="white"/>
<path fill-rule="evenodd" clip-rule="evenodd" d="M65.0659 231.993C62.7555 230.443 60.0298 229.626 57.2464 229.651C54.463 229.675 51.7521 230.539 49.4695 232.13C48.3655 232.89 46.8593 233.049 45.9605 232.222C45.0616 231.394 45.4072 229.578 46.9376 228.511C49.9526 226.411 53.5329 225.27 57.2087 225.238C60.8845 225.206 64.4842 226.284 67.5357 228.33C69.0851 229.37 69.4711 231.187 68.583 232.022C67.6949 232.858 66.1834 232.734 65.0659 231.993Z" fill="white"/>
<path fill-rule="evenodd" clip-rule="evenodd" d="M60.8234 238.575C59.6894 238.011 58.4382 237.724 57.1717 237.735C55.9052 237.746 54.6592 238.056 53.5354 238.639C52.3775 239.213 50.8686 239.389 49.9454 238.583C49.0223 237.777 49.5513 235.734 51.4894 234.723C53.2349 233.818 55.1699 233.338 57.1368 233.321C59.1036 233.304 61.0466 233.751 62.8074 234.626C64.7617 235.599 65.3285 237.648 64.427 238.456C63.5254 239.265 61.9895 239.13 60.8234 238.575Z" fill="white"/>
<path fill-rule="evenodd" clip-rule="evenodd" d="M228.1 230.169C228.1 230.169 229.857 225.873 231.79 225.698C233.722 225.522 239.866 224.558 240.306 225.428C240.746 226.299 240.306 229.471 238.988 230.597C237.671 231.724 229.506 233.578 229.506 233.578L228.1 230.169Z" fill="white"/>
<path fill-rule="evenodd" clip-rule="evenodd" d="M181.338 202.246C182.064 200.745 182.88 198.077 183.282 193.323C183.22 193.792 182.396 199.791 180.086 203.19C170.582 209.402 152.391 230.185 152.753 234.123C152.753 234.123 146.342 223.27 146.234 223.205C146.234 223.205 134.414 208.2 148.424 199.605C155.541 195.234 155.504 189.634 155.209 184.756C154.915 179.878 157.15 158.914 171.405 164.403C171.405 164.403 173.697 163.387 174.722 163.538C174.257 163.628 173.823 163.833 173.459 164.136C175.111 164.039 177.478 164.163 179.449 165.282C184.685 168.249 189.363 194.862 181.338 202.246Z" fill="#0D0D0D"/>
<path fill-rule="evenodd" clip-rule="evenodd" d="M179.507 203.498C179.556 203.517 174.918 205.923 171.444 204.967C168.168 204.075 166.03 199.846 166.073 199.825C167.463 199.555 167.863 197.644 167.83 189.468L168.456 189.589L179.002 191.678C179.002 191.678 178.762 194.987 178.759 198.108C178.749 200.733 178.905 203.215 179.507 203.498Z" fill="#FFD3CC"/>
<path fill-rule="evenodd" clip-rule="evenodd" d="M179.001 191.678C179.001 191.678 178.761 194.988 178.758 198.109C172.855 197.947 169.735 192.571 168.455 189.59L179.001 191.678Z" fill="#F2C4BD"/>
<path fill-rule="evenodd" clip-rule="evenodd" d="M167.37 188.445C167.37 188.445 164.28 183.567 163.535 179.395C163.008 176.431 164.525 165.381 175.638 166.969C177.876 167.277 180.015 168.084 181.898 169.329C184.308 170.946 187.788 174.469 183.901 184.103L182.886 187.356L167.37 188.445Z" fill="#0D0D0D"/>
<path fill-rule="evenodd" clip-rule="evenodd" d="M180.98 194.629C180.98 194.629 167.014 194.861 167.009 186.178C167.003 177.494 165.189 171.679 174.102 171.161C183.015 170.644 184.751 173.961 185.461 176.856C186.171 179.75 184.611 194.349 180.98 194.629Z" fill="#FFD3CC"/>
<path fill-rule="evenodd" clip-rule="evenodd" d="M180.457 170.949C180.457 170.949 176.638 181.136 170.77 182.643C164.901 184.149 162.361 182.581 162.361 182.581C162.361 182.581 166.858 179.01 167.792 172.782C167.792 172.782 177.577 166.101 180.457 170.949Z" fill="#0D0D0D"/>
<path fill-rule="evenodd" clip-rule="evenodd" d="M179.51 171.776C179.51 171.776 182.368 174.053 183.062 176.263C183.756 178.473 184.072 183.025 185.402 182.871C185.402 182.871 188.282 175.948 185.046 172.029C181.607 167.876 179.51 171.776 179.51 171.776Z" fill="#0D0D0D"/>
<path fill-rule="evenodd" clip-rule="evenodd" d="M142.738 274.165C143.491 276.254 145.802 276.788 148.898 276.429C154.801 275.742 163.565 271.783 169.879 269.05C179.515 264.878 183.891 268.794 186.955 266.142C190.018 263.49 183.445 257.591 189.146 230.199C191.076 220.912 178.843 200.996 178.843 200.996C178.843 200.996 177.788 206.764 166.084 199.827C165.674 199.584 161.063 206.392 156.636 214.787C151.745 224.049 147.062 235.239 148.439 241.006C151.049 251.983 140.541 268.102 142.738 274.165Z" fill="#FFE00C"/>
<path fill-rule="evenodd" clip-rule="evenodd" d="M178.836 200.995L186.048 230.543C186.048 230.543 186.947 232.138 188.356 234.41C191.657 239.744 197.774 248.802 201.688 249.723C203.615 250.176 207.726 248.57 212.269 246.282C220.861 241.946 231.021 235.154 231.021 235.154C231.677 231.219 228.249 228.012 228.249 228.012C228.249 228.012 207.669 235.736 205.629 235.879C201.172 236.2 196.64 214.732 192.475 207.582C189.466 202.394 178.836 200.995 178.836 200.995Z" fill="#FFE00C"/>
<path fill-rule="evenodd" clip-rule="evenodd" d="M142.738 274.165C143.491 276.253 145.802 276.787 148.898 276.428C152.979 274.65 170.629 267.826 170.427 263.201C170.135 256.353 167.037 256.135 169.226 247.684C170.98 240.895 154.679 228.28 152.077 225.536C147.189 234.799 147.054 235.238 148.431 241.005C151.049 251.982 140.541 268.101 142.738 274.165Z" fill="#FEC047"/>
<path fill-rule="evenodd" clip-rule="evenodd" d="M172.006 247.519C172.006 247.519 174.959 245.226 177.753 245.767C180.547 246.309 181.91 248.233 181.802 249.104C181.694 249.974 180.217 252.437 178.082 252.656C175.947 252.874 169.871 251.343 169.871 251.343L172.006 247.519Z" fill="white"/>
<path fill-rule="evenodd" clip-rule="evenodd" d="M166.076 199.826C166.076 199.826 154.696 200.53 150.758 206.011C145.211 213.735 135.58 245.258 138.206 252.476L172.827 252.325C172.827 252.325 173.667 248.414 172.5 246.52C171.334 244.625 152.364 241.564 151.487 240.69C150.609 239.817 162.432 223.642 162.432 221.017C162.432 218.392 166.076 199.826 166.076 199.826Z" fill="#FFE00C"/>
<path fill-rule="evenodd" clip-rule="evenodd" d="M174.979 260.431H216.893L224.448 234.122H182.596L174.979 260.431Z" fill="#F1F1F1"/>
<path d="M216.751 259.406H161.953V260.43H216.751V259.406Z" fill="#C6C6C6"/>
<path fill-rule="evenodd" clip-rule="evenodd" d="M203.583 246.862C203.853 245.937 203.313 245.186 202.387 245.186C201.899 245.212 201.431 245.387 201.045 245.687C200.659 245.986 200.374 246.396 200.228 246.862C199.958 247.784 200.498 248.535 201.421 248.535C201.909 248.508 202.376 248.333 202.762 248.034C203.148 247.735 203.435 247.326 203.583 246.862Z" fill="#C6C6C6"/>
<path fill-rule="evenodd" clip-rule="evenodd" d="M173.65 176.629C174.897 176.721 174.826 177.707 173.903 177.947C164.062 180.41 170.559 176.395 173.65 176.629Z" fill="#0D0D0D"/>
<path fill-rule="evenodd" clip-rule="evenodd" d="M399.376 383.928C396.812 387.184 393.626 389.899 390.002 391.914C383.853 395.296 376.759 396.926 381.159 398.454C385.559 399.983 391.988 401.176 398.261 399.357C402.658 398.083 407.817 397.816 409.182 395.741C410.548 393.665 405.943 387.96 407.169 380.172C408.159 373.93 399.376 383.928 399.376 383.928Z" fill="#F83718"/>
<path fill-rule="evenodd" clip-rule="evenodd" d="M421.747 318.106C421.747 318.106 396.943 316.163 390.014 317.368C383.085 318.572 367.88 318.556 377.83 346.57C385.622 368.524 395.248 389.353 395.248 389.353C400.412 390.62 404.139 394.18 410.739 393.153C410.739 393.153 402.414 343.913 395.677 336.828C405.453 338.425 415.125 340.605 424.64 343.355C450.043 350.608 460.254 346.975 460.254 346.975L464.033 333.74L421.747 318.106Z" fill="#0D0D0D"/>
<path d="M321.835 300.719H301.078V303.12H321.835V300.719Z" fill="#0D0D0D"/>
<path fill-rule="evenodd" clip-rule="evenodd" d="M293.799 240.711L319.177 240.406L327.423 284.477L303.249 291.201L293.799 240.711Z" fill="#0D0D0D"/>
<path fill-rule="evenodd" clip-rule="evenodd" d="M295.754 242.309L304.524 289.167L325.559 283.313L317.837 242.045L295.754 242.309Z" fill="#EBEBEB"/>
<path fill-rule="evenodd" clip-rule="evenodd" d="M301.078 303.122H306.965V290.167L303.251 291.202L301.078 279.581V303.122Z" fill="#0D0D0D"/>
<path fill-rule="evenodd" clip-rule="evenodd" d="M385.492 308.333H289.846C289.441 308.333 289.109 307.398 289.109 306.247V305.204C289.109 304.054 289.441 303.121 289.846 303.121H385.492C385.902 303.121 386.231 304.054 386.231 305.204V306.247C386.231 307.398 385.902 308.333 385.492 308.333Z" fill="#8D8D8D"/>
<path fill-rule="evenodd" clip-rule="evenodd" d="M440.377 219.911C445.959 219.76 443.886 215.616 450.308 217.27C453.684 218.141 451.193 219.526 455.574 219.076C459.955 218.626 462.119 218.17 462.673 221.03C463.226 223.889 463.483 224.803 465.599 225.239C467.715 225.676 468.663 229.452 465.599 232.009C462.535 234.567 464.025 235.618 464.705 237.725C465.386 239.833 463.07 239.978 461.817 241.935C460.565 243.891 462.972 244.261 461.164 245.956C459.355 247.651 456.821 247.5 456.821 247.5L449.212 232.931L440.377 219.911Z" fill="#0D0D0D"/>
<path fill-rule="evenodd" clip-rule="evenodd" d="M390.744 393.984C388.18 397.24 384.993 399.954 381.369 401.969C375.22 405.354 368.124 406.982 372.524 408.512C376.923 410.043 383.353 411.232 389.626 409.413C394.029 408.138 399.187 407.871 400.547 405.796C401.908 403.721 398.941 398.519 400.178 390.72C401.165 384.479 390.744 393.984 390.744 393.984Z" fill="#F83718"/>
<path fill-rule="evenodd" clip-rule="evenodd" d="M427.019 318.278C427.019 318.278 394.784 317.076 387.855 318.278C380.926 319.48 365.721 319.47 375.668 347.481C383.461 369.437 386.03 397.234 386.03 397.234L401.524 401.034C401.524 401.034 400.911 351.049 393.518 337.742C403.293 339.337 412.964 341.516 422.479 344.266C447.884 351.518 461.815 347.888 461.815 347.888L465.594 334.653L427.019 318.278Z" fill="#0D0D0D"/>
<path fill-rule="evenodd" clip-rule="evenodd" d="M453.941 235.184L461.817 258.42L451.868 264.961L446.227 244.886L453.941 235.184Z" fill="#FFD3CC"/>
<path fill-rule="evenodd" clip-rule="evenodd" d="M450.977 261.791L446.227 244.886L453.941 235.184L456.821 243.684C455.828 251.359 453.423 257.708 450.977 261.791Z" fill="#F2C4BD"/>
<path fill-rule="evenodd" clip-rule="evenodd" d="M433.845 239.116C433.591 246.185 437.068 252.302 442.593 252.844C448.119 253.386 453.164 248.125 453.857 241.086C454.551 234.047 450.637 227.907 445.112 227.36C439.586 226.813 434.255 227.964 433.845 239.116Z" fill="#FFD3CC"/>
<path fill-rule="evenodd" clip-rule="evenodd" d="M465.6 257.744C489.777 274.043 474.74 300.387 469.43 319.637C464.909 336.036 465.058 345.946 464.38 345.946C463.703 345.946 447.075 343.461 437.584 334.896C431.84 329.705 426.521 324.062 421.678 318.023C421.678 318.023 433.824 315.867 437.811 300.158C439.828 292.189 438.913 287.861 443.509 275.227C448.106 262.592 465.6 257.744 465.6 257.744Z" fill="#FFE00C"/>
<path fill-rule="evenodd" clip-rule="evenodd" d="M465.6 257.743L463.011 251.418C463.011 251.418 454.802 256.83 451.523 259.387C448.243 261.945 446.227 262.546 446.227 262.546C446.227 262.546 445.045 271.612 445.811 270.79C455.504 260.422 465.6 257.743 465.6 257.743Z" fill="#D1D1D1"/>
<path fill-rule="evenodd" clip-rule="evenodd" d="M476.315 412.768H474.204L459.066 349.711H463.709L476.315 412.768Z" fill="#8D8D8D"/>
<path fill-rule="evenodd" clip-rule="evenodd" d="M413.08 412.769H415.191L432.561 347.482H427.918L413.08 412.769Z" fill="#8D8D8D"/>
<path fill-rule="evenodd" clip-rule="evenodd" d="M452.801 352.071C461.258 352.071 466.614 350.557 470.033 347.22C474.271 343.097 475.149 336.71 475.162 328.396C475.189 310.905 476.158 307.291 481.1 296.611C481.359 296.043 481.381 295.395 481.163 294.81C480.945 294.225 480.503 293.75 479.935 293.488C479.367 293.227 478.719 293.201 478.131 293.415C477.544 293.63 477.066 294.068 476.801 294.633C471.591 305.922 470.468 310.07 470.441 328.388C470.428 336.818 469.361 341.297 466.74 343.838C464.06 346.444 459.215 347.52 451.028 347.317C443.125 347.118 437.683 346.016 433.313 345.129C427.563 343.962 423.406 343.119 418.467 345.469C417.918 345.749 417.5 346.232 417.302 346.816C417.105 347.399 417.143 348.036 417.409 348.592C417.675 349.148 418.148 349.578 418.726 349.791C419.305 350.003 419.944 349.983 420.507 349.732C424.017 348.064 426.986 348.654 432.354 349.759C436.911 350.684 442.577 351.832 450.898 352.036C451.549 352.066 452.186 352.071 452.801 352.071Z" fill="#8D8D8D"/>
<path fill-rule="evenodd" clip-rule="evenodd" d="M464.703 281.479C464.703 281.479 458.676 299.826 451.207 307.421C443.738 315.015 428.744 317.567 424.047 317.268C427.793 315.764 434.925 311.485 437.794 300.149C439.811 292.18 438.895 287.852 443.492 275.218C446.904 265.84 457.423 260.757 462.617 258.76C456.138 263.409 448.041 271.062 445.538 276.889C442.785 283.357 464.703 281.479 464.703 281.479Z" fill="#FEC047"/>
<path fill-rule="evenodd" clip-rule="evenodd" d="M381.542 297.579C381.542 297.579 371.15 292.844 370.019 293.294C368.888 293.744 357.367 300.694 357.367 301.845C357.367 302.996 367.535 297.555 367.535 297.555C367.535 297.555 366.404 300.56 367.082 302.004C367.759 303.449 375.576 303.446 382.627 302.993C389.677 302.54 381.542 297.579 381.542 297.579Z" fill="white"/>
<path fill-rule="evenodd" clip-rule="evenodd" d="M464.37 267.301C473.952 286.907 441.086 306.78 421.592 308.55C402.098 310.321 378.943 303.944 378.943 303.944L381.554 297.579C381.554 297.579 420.615 292.491 421.605 291.777C422.596 291.062 460.863 260.121 464.37 267.301Z" fill="#FFE00C"/>
<path fill-rule="evenodd" clip-rule="evenodd" d="M433.835 220.919C431.187 219.817 428.204 218.634 429.127 223.126C429.529 225.08 429.127 224.528 428.428 226.333C427.729 228.139 430.196 229.567 431 230.556C431.805 231.546 429.829 232.65 431.438 233.852C433.046 235.054 435.163 233.408 436.661 233.852C441.128 235.184 440.577 231.675 443.085 230.945C445.593 230.214 446.826 230.327 447.307 231.931C447.787 233.534 445.547 238.814 447.455 238.315C449.363 237.817 449.793 242.072 450.305 244.482C450.818 246.891 452.127 242.819 452.044 240.067C451.914 235.847 452.962 234.073 454.522 232.893C456.082 231.713 456.743 220.97 449.21 220.569C441.676 220.167 441.63 219.44 438.413 218.76C435.195 218.081 435.041 221.42 433.835 220.919Z" fill="#0D0D0D"/>
<path fill-rule="evenodd" clip-rule="evenodd" d="M297.988 308.334H303.516V408.318H297.988V308.334ZM371.821 308.334H377.349V408.318H371.821V308.334Z" fill="#8D8D8D"/>
<path fill-rule="evenodd" clip-rule="evenodd" d="M453.151 229.301C454.56 229.301 455.937 229.718 457.108 230.5C458.28 231.281 459.193 232.392 459.732 233.692C460.271 234.992 460.412 236.422 460.137 237.801C459.862 239.181 459.183 240.448 458.187 241.443C457.19 242.437 455.921 243.115 454.539 243.389C453.157 243.663 451.724 243.522 450.423 242.983C449.121 242.444 448.009 241.532 447.227 240.362C446.444 239.192 446.027 237.817 446.027 236.41C446.027 235.476 446.212 234.552 446.57 233.689C446.928 232.826 447.452 232.042 448.114 231.382C448.775 230.722 449.561 230.198 450.425 229.841C451.289 229.484 452.215 229.3 453.151 229.301Z" fill="#D1D1D1"/>
<path fill-rule="evenodd" clip-rule="evenodd" d="M451.851 216.407H454.82C455.024 216.407 455.22 216.488 455.364 216.631C455.509 216.774 455.591 216.969 455.592 217.173V234.421C455.592 234.625 455.51 234.82 455.365 234.964C455.221 235.108 455.025 235.189 454.82 235.189H451.851C451.647 235.188 451.452 235.107 451.308 234.963C451.164 234.819 451.083 234.624 451.082 234.421V217.173C451.083 216.969 451.164 216.775 451.308 216.631C451.452 216.488 451.648 216.407 451.851 216.407Z" fill="#F83718"/>
<path d="M456.309 237.144C456.725 235.384 455.633 233.62 453.87 233.205C452.108 232.789 450.341 233.879 449.925 235.639C449.509 237.399 450.601 239.163 452.364 239.578C454.127 239.994 455.893 238.904 456.309 237.144Z" fill="white"/>
<path fill-rule="evenodd" clip-rule="evenodd" d="M82.0619 248.92C81.2521 260.145 79.584 261.694 68.8652 262.559C79.584 263.422 81.244 264.985 82.0619 276.193C82.8717 264.971 84.5398 263.422 95.2586 262.559C84.5398 261.694 82.8825 260.134 82.0619 248.92ZM125.631 278.522C125.193 284.515 124.308 285.34 118.586 285.798C124.308 286.259 125.193 287.086 125.631 293.075C126.068 287.081 126.953 286.254 132.676 285.798C126.953 285.335 126.068 284.51 125.631 278.522ZM106.566 232.402C106.123 238.471 105.216 239.31 99.4289 239.779C105.227 240.245 106.123 241.083 106.566 247.149C107.008 241.083 107.915 240.245 113.7 239.779C107.891 239.315 106.995 238.471 106.566 232.402Z" fill="white"/>
<path d="M327.906 163.865C327.906 165.636 327.697 167.302 327.281 168.865C326.899 170.427 326.204 171.799 325.197 172.979C324.225 174.125 322.888 175.045 321.187 175.74C319.52 176.399 317.402 176.729 314.833 176.729C312.472 176.729 310.441 176.451 308.739 175.896C307.038 175.306 305.632 174.629 304.521 173.865L307.229 167.563C308.236 168.153 309.312 168.674 310.458 169.125C311.604 169.577 312.854 169.802 314.208 169.802C316.187 169.802 317.611 169.316 318.479 168.344C319.347 167.372 319.781 165.74 319.781 163.448V139.907H327.906V163.865ZM358.933 176C358.551 174.75 358.117 173.465 357.631 172.146C357.18 170.827 356.728 169.507 356.277 168.188H342.215C341.763 169.507 341.295 170.827 340.808 172.146C340.357 173.465 339.94 174.75 339.558 176H331.121C332.475 172.111 333.76 168.518 334.975 165.219C336.191 161.921 337.371 158.813 338.517 155.896C339.697 152.98 340.843 150.219 341.954 147.615C343.1 144.977 344.281 142.407 345.496 139.907H353.256C354.437 142.407 355.6 144.977 356.745 147.615C357.891 150.219 359.037 152.98 360.183 155.896C361.363 158.813 362.561 161.921 363.777 165.219C364.992 168.518 366.276 172.111 367.631 176H358.933ZM349.194 148.084C349.02 148.605 348.76 149.317 348.412 150.219C348.065 151.122 347.666 152.164 347.215 153.344C346.763 154.525 346.26 155.827 345.704 157.251C345.183 158.674 344.645 160.167 344.09 161.73H354.35C353.794 160.167 353.256 158.674 352.735 157.251C352.214 155.827 351.711 154.525 351.225 153.344C350.773 152.164 350.374 151.122 350.027 150.219C349.68 149.317 349.402 148.605 349.194 148.084ZM379.624 176C378.2 172.979 376.794 169.837 375.405 166.573C374.016 163.309 372.697 160.08 371.447 156.886C370.197 153.692 369.034 150.636 367.957 147.72C366.916 144.803 366.013 142.199 365.249 139.907H374.207C374.902 141.991 375.648 144.247 376.447 146.678C377.28 149.074 378.113 151.469 378.947 153.865C379.815 156.261 380.648 158.553 381.447 160.74C382.245 162.927 382.992 164.82 383.686 166.417C384.346 164.82 385.075 162.927 385.873 160.74C386.707 158.553 387.54 156.261 388.373 153.865C389.241 151.469 390.075 149.074 390.873 146.678C391.707 144.247 392.471 141.991 393.165 139.907H401.811C401.012 142.199 400.092 144.803 399.05 147.72C398.009 150.636 396.863 153.692 395.613 156.886C394.363 160.08 393.043 163.309 391.655 166.573C390.266 169.837 388.86 172.979 387.436 176H379.624ZM427.24 176C426.858 174.75 426.424 173.465 425.937 172.146C425.486 170.827 425.035 169.507 424.583 168.188H410.521C410.07 169.507 409.601 170.827 409.115 172.146C408.664 173.465 408.247 174.75 407.865 176H399.428C400.782 172.111 402.067 168.518 403.282 165.219C404.497 161.921 405.678 158.813 406.823 155.896C408.004 152.98 409.15 150.219 410.261 147.615C411.407 144.977 412.587 142.407 413.802 139.907H421.563C422.743 142.407 423.906 144.977 425.052 147.615C426.198 150.219 427.344 152.98 428.489 155.896C429.67 158.813 430.868 161.921 432.083 165.219C433.298 168.518 434.583 172.111 435.937 176H427.24ZM417.5 148.084C417.327 148.605 417.066 149.317 416.719 150.219C416.372 151.122 415.972 152.164 415.521 153.344C415.07 154.525 414.566 155.827 414.011 157.251C413.49 158.674 412.952 160.167 412.396 161.73H422.656C422.101 160.167 421.563 158.674 421.042 157.251C420.521 155.827 420.017 154.525 419.531 153.344C419.08 152.164 418.681 151.122 418.334 150.219C417.986 149.317 417.709 148.605 417.5 148.084Z" fill="#C1C1C1"/>
<path fill-rule="evenodd" clip-rule="evenodd" d="M291.141 298.736V396.734C291.141 398.736 290.345 400.655 288.928 402.07C287.51 403.485 285.588 404.28 283.583 404.28H123.558C121.553 404.28 119.631 403.485 118.214 402.07C116.796 400.655 116 398.736 116 396.734V298.736C116 296.735 116.796 294.816 118.214 293.401C119.631 291.985 121.553 291.19 123.558 291.19H283.583C285.588 291.19 287.51 291.985 288.928 293.401C290.345 294.816 291.141 296.735 291.141 298.736Z" fill="#F9F9F9"/>
<path fill-rule="evenodd" clip-rule="evenodd" d="M291.141 298.736V306.552H116V298.736C116 296.735 116.796 294.816 118.214 293.401C119.631 291.985 121.553 291.19 123.558 291.19H283.583C285.588 291.19 287.51 291.985 288.928 293.401C290.345 294.816 291.141 296.735 291.141 298.736Z" fill="#C1C1C1"/>
<path fill-rule="evenodd" clip-rule="evenodd" d="M150.597 298.874C150.597 299.727 150.343 300.561 149.869 301.27C149.394 301.979 148.72 302.532 147.931 302.858C147.141 303.185 146.273 303.27 145.435 303.104C144.597 302.937 143.828 302.527 143.224 301.924C142.62 301.32 142.209 300.552 142.042 299.716C141.875 298.879 141.961 298.012 142.288 297.224C142.615 296.436 143.168 295.763 143.878 295.289C144.589 294.815 145.424 294.562 146.278 294.562C147.423 294.562 148.522 295.017 149.332 295.825C150.142 296.634 150.597 297.731 150.597 298.874Z" fill="white"/>
<path fill-rule="evenodd" clip-rule="evenodd" d="M139.354 298.874C139.354 299.727 139.101 300.561 138.627 301.27C138.152 301.979 137.478 302.532 136.688 302.858C135.899 303.185 135.031 303.27 134.193 303.104C133.355 302.937 132.586 302.527 131.982 301.924C131.378 301.32 130.966 300.552 130.8 299.716C130.633 298.879 130.719 298.012 131.046 297.224C131.372 296.436 131.926 295.763 132.636 295.289C133.346 294.815 134.181 294.562 135.036 294.562C136.181 294.562 137.28 295.017 138.089 295.825C138.899 296.634 139.354 297.731 139.354 298.874Z" fill="white"/>
<path fill-rule="evenodd" clip-rule="evenodd" d="M127.825 298.874C127.825 299.727 127.572 300.561 127.097 301.27C126.623 301.979 125.948 302.532 125.159 302.858C124.37 303.185 123.502 303.27 122.664 303.104C121.826 302.937 121.056 302.527 120.452 301.924C119.848 301.32 119.437 300.552 119.27 299.716C119.104 298.879 119.189 298.012 119.516 297.224C119.843 296.436 120.397 295.763 121.107 295.289C121.817 294.815 122.652 294.562 123.506 294.562C124.652 294.562 125.75 295.017 126.56 295.825C127.37 296.634 127.825 297.731 127.825 298.874Z" fill="white"/>
<path d="M171.218 374.729C165.35 374.729 160.871 373.097 157.781 369.833C154.726 366.57 153.198 361.934 153.198 355.928C153.198 352.942 153.667 350.285 154.604 347.959C155.542 345.598 156.826 343.619 158.458 342.022C160.09 340.39 162.034 339.157 164.291 338.324C166.548 337.491 168.996 337.074 171.635 337.074C173.163 337.074 174.551 337.195 175.801 337.439C177.051 337.647 178.145 337.907 179.083 338.22C180.02 338.498 180.801 338.793 181.426 339.105C182.051 339.418 182.503 339.661 182.78 339.834L180.437 346.397C179.326 345.806 178.024 345.303 176.531 344.886C175.072 344.47 173.406 344.261 171.531 344.261C170.281 344.261 169.048 344.47 167.833 344.886C166.652 345.303 165.593 345.98 164.656 346.917C163.753 347.82 163.024 349.001 162.468 350.459C161.913 351.917 161.635 353.688 161.635 355.771C161.635 357.438 161.809 359 162.156 360.459C162.538 361.882 163.128 363.115 163.927 364.157C164.76 365.198 165.836 366.031 167.156 366.656C168.475 367.247 170.072 367.542 171.947 367.542C173.128 367.542 174.187 367.472 175.124 367.334C176.062 367.195 176.895 367.038 177.624 366.865C178.353 366.656 178.996 366.431 179.551 366.188C180.107 365.945 180.61 365.719 181.062 365.511L183.301 372.021C182.155 372.715 180.541 373.34 178.458 373.896C176.374 374.451 173.961 374.729 171.218 374.729ZM199.429 355.198H208.127V345.563H215.21V355.198H223.908V361.709H215.21V371.344H208.127V361.709H199.429V355.198ZM229.031 355.198H237.728V345.563H244.811V355.198H253.509V361.709H244.811V371.344H237.728V361.709H229.031V355.198Z" fill="#C1C1C1"/>
<path fill-rule="evenodd" clip-rule="evenodd" d="M182.562 343.028C182.288 343.329 182.107 343.702 182.04 344.104C181.974 344.505 182.025 344.916 182.187 345.289C182.727 346.799 184.543 348.483 186.641 350.165C186.911 350.38 187.148 350.58 187.353 350.76L187.515 350.903C187.556 350.943 187.599 350.979 187.639 351.016C189.594 352.816 188.859 353.229 192.374 356.883C196.38 361.044 199.144 361.12 199.932 360.742C200.59 360.419 199.243 358.212 197.745 355.73C197.672 355.608 197.605 355.487 197.529 355.366C197.33 355.04 197.135 354.7 196.938 354.369C195.184 351.383 195.632 349.979 196.047 345.537C196.388 341.923 201.681 325.355 201.681 325.355L193.996 324.031C193.996 324.031 191.685 337.237 189.137 339.261C187.772 340.339 186.246 340.355 184.94 341.147C184.846 341.204 184.754 341.26 184.67 341.32C183.894 341.792 183.185 342.367 182.562 343.028Z" fill="white"/>
<path fill-rule="evenodd" clip-rule="evenodd" d="M182.562 343.03C182.288 343.33 182.107 343.704 182.04 344.105C181.974 344.506 182.025 344.918 182.187 345.291C182.859 346.8 184.616 348.476 186.649 350.142C186.919 350.363 187.148 350.562 187.353 350.751L187.515 350.894C187.556 350.934 187.599 350.969 187.639 351.007C189.594 352.807 188.859 353.219 192.374 356.874C196.38 361.035 199.144 361.11 199.932 360.733C200.59 360.41 199.243 358.202 197.745 355.72C194.944 354.624 192.482 352.811 190.606 350.462C188.19 347.387 186.584 343.436 184.937 341.148C184.843 341.205 184.751 341.262 184.667 341.321C183.892 341.794 183.184 342.368 182.562 343.03Z" fill="#F83718"/>
<path fill-rule="evenodd" clip-rule="evenodd" d="M244.499 338.237C244.971 340.604 248.354 340.213 252.13 339.291C255.906 338.369 255.004 339.461 260.379 338.868C265.753 338.275 267.381 336.273 267.545 335.478C267.691 334.769 265.038 334.521 262.187 334.19C261.828 334.154 261.472 334.109 261.108 334.063C257.895 333.661 255.539 331.586 252.621 329.886C249.854 328.269 245.724 321.709 245.724 321.709L238.355 322.294C238.355 322.294 242.224 328.158 243.716 330.708C244.599 332.206 244.55 334.189 244.442 335.72C244.349 336.558 244.368 337.405 244.499 338.237Z" fill="white"/>
<path fill-rule="evenodd" clip-rule="evenodd" d="M252.128 339.299C255.907 338.377 255.003 339.469 260.377 338.876C265.751 338.283 267.379 336.281 267.544 335.485C267.69 334.777 265.036 334.529 262.186 334.197L262.161 334.254C259.859 335.73 257.2 336.556 254.466 336.644C250.816 336.731 246.957 335.688 244.441 335.728C244.348 336.566 244.367 337.412 244.497 338.245C244.97 340.603 248.352 340.213 252.128 339.299Z" fill="#F83718"/>
<path fill-rule="evenodd" clip-rule="evenodd" d="M216.254 291.189L200.371 333.867C198.766 333.985 197.151 333.837 195.594 333.427C193.434 332.808 190.973 331.183 190.973 331.183C190.973 331.183 194.914 290.219 202.137 281.684C209.36 273.149 216.254 291.189 216.254 291.189Z" fill="#0D0D0D"/>
<path fill-rule="evenodd" clip-rule="evenodd" d="M153.436 273.924C153.436 273.924 199.072 258.517 209.251 261.797C219.43 265.077 249.988 325.781 249.988 325.781C249.988 325.781 249.3 326.695 247.416 327.398C245.667 328.053 241.423 328.013 241.423 328.013C241.423 328.013 213.845 304.407 210.563 297.524C207.28 290.641 205.974 284.085 202.686 284.739C199.399 285.394 160.329 300.804 151.462 291.622C142.595 282.441 144.917 270.521 144.917 270.521L153.436 273.924Z" fill="#0D0D0D"/>
</svg>
