<svg width="100" height="100" viewBox="0 0 100 100" fill="none" xmlns="http://www.w3.org/2000/svg">
<path fill-rule="evenodd" clip-rule="evenodd" d="M31.6284 54.422C29.7331 54.422 27.8805 53.86 26.3046 52.8071C24.7288 51.7541 23.5006 50.2575 22.7753 48.5066C22.05 46.7556 21.8603 44.8289 22.23 42.97C22.5998 41.1112 23.5124 39.4038 24.8525 38.0636C26.1927 36.7235 27.9001 35.8108 29.7589 35.4411C31.6178 35.0713 33.5445 35.2611 35.2955 35.9864C37.0464 36.7117 38.543 37.9399 39.596 39.5157C40.6489 41.0916 41.211 42.9442 41.211 44.8395C41.2077 47.3799 40.1971 49.8154 38.4007 51.6118C36.6044 53.4082 34.1688 54.4188 31.6284 54.422ZM33.5701 43.257L34.2983 41.8856C33.9765 41.7011 33.6424 41.5389 33.2983 41.4002C32.9038 41.2429 32.4884 41.1439 32.0653 41.1065V40.0846H31.3663V41.1065C31.0557 41.1361 30.7509 41.2096 30.4609 41.3249C30.1914 41.4305 29.9444 41.5861 29.7328 41.7837C29.5267 41.9844 29.3618 42.2235 29.2474 42.4875C29.1215 42.7827 29.0595 43.1012 29.0653 43.422C29.0606 43.6634 29.1001 43.9036 29.1818 44.1307C29.2604 44.332 29.3813 44.5141 29.5362 44.6647C29.7133 44.8331 29.9166 44.9716 30.1381 45.0749C30.4152 45.2071 30.7026 45.3167 30.9973 45.4026L31.4828 45.5458V46.888C31.2416 46.8568 31.0042 46.8015 30.7741 46.723C30.5459 46.6453 30.3396 46.5628 30.1576 46.4803C30.0019 46.4094 29.851 46.3283 29.7061 46.2375C29.628 46.1889 29.5549 46.1328 29.4876 46.0701L28.7595 47.5264C29.1402 47.7773 29.5533 47.9749 29.9876 48.1138C30.4358 48.2595 30.8992 48.354 31.3687 48.3953V49.5798H32.0653V48.4074C32.3786 48.3945 32.6892 48.3431 32.9901 48.2545C33.2717 48.1748 33.536 48.0431 33.7692 47.8662C33.9973 47.69 34.1824 47.4643 34.3104 47.206C34.4502 46.9018 34.5191 46.5698 34.5119 46.2351C34.5191 45.944 34.4654 45.6547 34.3542 45.3856C34.2527 45.1545 34.1009 44.9488 33.91 44.7837C33.6992 44.6083 33.4615 44.4681 33.206 44.3686C32.9025 44.2477 32.5921 44.1448 32.2765 44.0604L31.9536 43.9803V42.5968C32.1445 42.6236 32.3323 42.6691 32.5143 42.7327C32.6988 42.7982 32.8687 42.8638 33.0192 42.9341C33.1479 42.9926 33.2727 43.059 33.3929 43.1332C33.4577 43.1677 33.5173 43.211 33.5701 43.2618V43.257ZM30.7692 43.1672C30.7657 43.2427 30.7799 43.3181 30.8106 43.3872C30.8414 43.4563 30.8879 43.5173 30.9464 43.5652C31.103 43.6881 31.2818 43.7796 31.4731 43.8346V42.5919C30.9998 42.6332 30.7643 42.8346 30.7643 43.1793L30.7692 43.1672ZM32.7303 46.3807C32.7331 46.3001 32.7149 46.2201 32.6774 46.1486C32.64 46.0772 32.5846 46.0166 32.5168 45.973C32.3411 45.8589 32.1509 45.7691 31.9512 45.706V46.9196C32.4674 46.9018 32.7255 46.7238 32.7255 46.3856L32.7303 46.3807Z" fill="#F83718"/>
<path fill-rule="evenodd" clip-rule="evenodd" d="M62.1187 34.3857H49.9197C49.6886 34.3857 49.467 34.2939 49.3036 34.1304C49.1402 33.967 49.0483 33.7454 49.0483 33.5143C49.0483 33.2832 49.1402 33.0616 49.3036 32.8982C49.467 32.7347 49.6886 32.6429 49.9197 32.6429H62.114C62.3451 32.6429 62.5666 32.7347 62.73 32.8982C62.8934 33.0616 62.9853 33.2832 62.9853 33.5143C62.9853 33.7454 62.8934 33.967 62.73 34.1304C62.5666 34.2939 62.3451 34.3857 62.114 34.3857H62.1187Z" fill="#F83718"/>
<path fill-rule="evenodd" clip-rule="evenodd" d="M76.0557 38.7376H49.9197C49.6886 38.7376 49.467 38.6458 49.3036 38.4824C49.1402 38.319 49.0483 38.0973 49.0483 37.8662C49.0483 37.6351 49.1402 37.4135 49.3036 37.2501C49.467 37.0867 49.6886 36.9949 49.9197 36.9949H76.0532C76.2843 36.9949 76.5059 37.0867 76.6694 37.2501C76.8328 37.4135 76.9245 37.6351 76.9245 37.8662C76.9245 38.0973 76.8328 38.319 76.6694 38.4824C76.5059 38.6458 76.2843 38.7376 76.0532 38.7376H76.0557Z" fill="#F83718"/>
<path fill-rule="evenodd" clip-rule="evenodd" d="M62.1187 43.9678H49.9197C49.6886 43.9678 49.467 43.876 49.3036 43.7126C49.1402 43.5492 49.0483 43.3276 49.0483 43.0965C49.0483 42.8654 49.1402 42.6437 49.3036 42.4803C49.467 42.3169 49.6886 42.2251 49.9197 42.2251H62.114C62.3451 42.2251 62.5666 42.3169 62.73 42.4803C62.8934 42.6437 62.9853 42.8654 62.9853 43.0965C62.9853 43.3276 62.8934 43.5492 62.73 43.7126C62.5666 43.876 62.3451 43.9678 62.114 43.9678H62.1187Z" fill="#F83718"/>
<path fill-rule="evenodd" clip-rule="evenodd" d="M76.0557 48.325H49.9197C49.6886 48.325 49.467 48.2332 49.3036 48.0698C49.1402 47.9064 49.0483 47.6847 49.0483 47.4536C49.0483 47.2225 49.1402 47.0009 49.3036 46.8375C49.467 46.6741 49.6886 46.5823 49.9197 46.5823H76.0532C76.2843 46.5823 76.5059 46.6741 76.6694 46.8375C76.8328 47.0009 76.9245 47.2225 76.9245 47.4536C76.9245 47.6847 76.8328 47.9064 76.6694 48.0698C76.5059 48.2332 76.2843 48.325 76.0532 48.325H76.0557Z" fill="#F83718"/>
<path fill-rule="evenodd" clip-rule="evenodd" d="M62.1187 53.5434H49.9197C49.6886 53.5434 49.467 53.4516 49.3036 53.2882C49.1402 53.1247 49.0483 52.9031 49.0483 52.672C49.0483 52.4409 49.1402 52.2193 49.3036 52.0559C49.467 51.8925 49.6886 51.8007 49.9197 51.8007H62.114C62.3451 51.8007 62.5666 51.8925 62.73 52.0559C62.8934 52.2193 62.9853 52.4409 62.9853 52.672C62.9853 52.9031 62.8934 53.1247 62.73 53.2882C62.5666 53.4516 62.3451 53.5434 62.114 53.5434H62.1187Z" fill="#F83718"/>
<path fill-rule="evenodd" clip-rule="evenodd" d="M76.056 57.9125H49.92C49.8019 57.9188 49.6837 57.9009 49.5727 57.86C49.4617 57.8191 49.3602 57.756 49.2743 57.6746C49.1885 57.5932 49.1201 57.4951 49.0734 57.3864C49.0267 57.2777 49.0027 57.1607 49.0027 57.0424C49.0027 56.9241 49.0267 56.807 49.0734 56.6983C49.1201 56.5896 49.1885 56.4916 49.2743 56.4102C49.3602 56.3288 49.4617 56.2657 49.5727 56.2248C49.6837 56.1839 49.8019 56.166 49.92 56.1722H76.0535C76.1716 56.166 76.2898 56.1839 76.4008 56.2248C76.5118 56.2657 76.6133 56.3288 76.6991 56.4102C76.785 56.4916 76.8533 56.5896 76.9 56.6983C76.9467 56.807 76.9708 56.9241 76.9708 57.0424C76.9708 57.1607 76.9467 57.2777 76.9 57.3864C76.8533 57.4951 76.785 57.5932 76.6991 57.6746C76.6133 57.756 76.5118 57.8191 76.4008 57.86C76.2898 57.9009 76.1716 57.9188 76.0535 57.9125H76.056Z" fill="#F83718"/>
<path fill-rule="evenodd" clip-rule="evenodd" d="M44.1844 91.0092H35.9854C35.841 91.0087 35.699 90.9725 35.572 90.9039C35.4449 90.8353 35.3368 90.7364 35.2573 90.616C35.1774 90.4958 35.1289 90.3575 35.1162 90.2138C35.1034 90.0701 35.1269 89.9255 35.1844 89.7931L40.4102 77.599C40.4778 77.4427 40.5896 77.3095 40.7319 77.216C40.8742 77.1224 41.0408 77.0724 41.2111 77.0723H46.3349C46.4621 77.0721 46.5879 77.0999 46.7032 77.1535C46.8186 77.2072 46.9209 77.2854 47.0028 77.3828C47.0847 77.4802 47.1442 77.5944 47.1773 77.7173C47.2104 77.8401 47.2161 77.9688 47.1941 78.0941L45.0412 90.2883C45.0074 90.4913 44.9028 90.6758 44.746 90.8091C44.5891 90.9423 44.3902 91.0158 44.1844 91.0164V91.0092ZM37.2985 89.2664H43.4441L45.2888 78.815H41.7791L37.2985 89.2664Z" fill="#F83718"/>
<path fill-rule="evenodd" clip-rule="evenodd" d="M63.8591 91.0094H55.6625C55.4563 91.0093 55.2568 90.9361 55.0995 90.8028C54.9421 90.6694 54.8372 90.4846 54.8033 90.2812L52.6527 78.087C52.6303 77.9618 52.6357 77.8333 52.6685 77.7104C52.7012 77.5875 52.7606 77.4733 52.8423 77.3758C52.9241 77.2784 53.0262 77.2 53.1415 77.1464C53.2568 77.0927 53.3824 77.065 53.5096 77.0652H58.6333C58.8036 77.0657 58.97 77.1157 59.1122 77.2093C59.2545 77.3028 59.3665 77.4358 59.4344 77.5919L64.66 89.7861C64.7166 89.9186 64.7395 90.063 64.7265 90.2065C64.7136 90.35 64.6653 90.488 64.586 90.6083C64.5066 90.7285 64.3986 90.8272 64.2718 90.8955C64.1449 90.9638 64.0032 90.9996 63.8591 90.9997V91.0094ZM56.3907 89.2666H62.5411L58.0605 78.8152H54.5484L56.3907 89.2666Z" fill="#F83718"/>
<path fill-rule="evenodd" clip-rule="evenodd" d="M55.6623 91.0095H44.1841C44.0569 91.0097 43.9312 90.982 43.8158 90.9283C43.7005 90.8746 43.5984 90.7963 43.5167 90.6988C43.4353 90.6011 43.376 90.487 43.3429 90.3642C43.3098 90.2414 43.3037 90.113 43.3249 89.9876L45.4778 77.791C45.5116 77.588 45.6162 77.4035 45.773 77.2703C45.9298 77.137 46.1288 77.0635 46.3346 77.0629H53.5094C53.7153 77.063 53.9144 77.1363 54.0714 77.2697C54.2283 77.403 54.3327 77.5878 54.3661 77.791L56.519 89.9852C56.5414 90.1105 56.536 90.2392 56.5033 90.3622C56.4705 90.4852 56.4112 90.5996 56.3295 90.6972C56.2479 90.7948 56.1458 90.8734 56.0305 90.9273C55.9152 90.9813 55.7896 91.0093 55.6623 91.0095ZM45.2253 89.2667H54.6283L52.7836 78.8153H47.07L45.2253 89.2667Z" fill="#F83718"/>
<path fill-rule="evenodd" clip-rule="evenodd" d="M84.8254 78.8126H15.0195C13.4181 78.8107 11.8828 78.1735 10.7507 77.0409C9.61852 75.9083 8.982 74.3728 8.98071 72.7713V67.4873C8.98071 67.373 9.00326 67.2598 9.04708 67.1543C9.0909 67.0487 9.15511 66.9528 9.23605 66.8721C9.317 66.7913 9.41307 66.7274 9.51877 66.6839C9.62447 66.6403 9.73772 66.6181 9.85203 66.6184H89.9952C90.1095 66.6181 90.2228 66.6403 90.3285 66.6839C90.4342 66.7274 90.5303 66.7913 90.6113 66.8721C90.6922 66.9528 90.7565 67.0487 90.8003 67.1543C90.8441 67.2598 90.8667 67.373 90.8667 67.4873V72.7713C90.8647 74.373 90.2275 75.9085 89.095 77.041C87.9624 78.1735 86.427 78.8107 84.8254 78.8126ZM10.721 68.349V72.7616C10.7223 73.9013 11.1755 74.9939 11.9814 75.7997C12.7872 76.6056 13.8799 77.0589 15.0195 77.0602H84.8254C85.965 77.0589 87.0576 76.6056 87.8635 75.7997C88.6693 74.9939 89.1226 73.9013 89.1239 72.7616V68.349H10.721Z" fill="#F83718"/>
<path fill-rule="evenodd" clip-rule="evenodd" d="M22.9173 89.2665C22.0556 89.2665 21.2133 89.0109 20.4968 88.5322C19.7804 88.0535 19.2219 87.373 18.8922 86.5769C18.5624 85.7808 18.4762 84.9048 18.6443 84.0597C18.8124 83.2146 19.2273 82.4382 19.8366 81.8289C20.4459 81.2196 21.2222 80.8047 22.0673 80.6366C22.9125 80.4685 23.7885 80.5547 24.5846 80.8845C25.3807 81.2143 26.0611 81.7727 26.5399 82.4892C27.0186 83.2056 27.2741 84.048 27.2741 84.9097C27.2709 86.0642 26.8109 87.1705 25.9945 87.9868C25.1781 88.8032 24.0718 89.2633 22.9173 89.2665ZM22.9173 82.298C22.4003 82.298 21.8949 82.4513 21.465 82.7386C21.0352 83.0258 20.7001 83.4341 20.5022 83.9117C20.3044 84.3894 20.2526 84.915 20.3535 85.4221C20.4544 85.9291 20.7033 86.3949 21.0689 86.7605C21.4345 87.1261 21.9003 87.3751 22.4074 87.4759C22.9144 87.5768 23.4401 87.525 23.9177 87.3272C24.3954 87.1293 24.8036 86.7943 25.0908 86.3644C25.3781 85.9345 25.5314 85.4291 25.5314 84.9121C25.5308 84.219 25.2551 83.5545 24.765 83.0644C24.2749 82.5743 23.6104 82.2986 22.9173 82.298Z" fill="#F83718"/>
<path fill-rule="evenodd" clip-rule="evenodd" d="M89.9929 68.3492H9.85204C9.73752 68.3495 9.6241 68.3272 9.51824 68.2835C9.41238 68.2398 9.3162 68.1757 9.23523 68.0947C9.15425 68.0137 9.09005 67.9175 9.04637 67.8117C9.0027 67.7058 8.9804 67.5924 8.98072 67.4778V30.3783C8.98329 27.9767 9.93844 25.6742 11.6366 23.976C13.3348 22.2778 15.6373 21.3226 18.0389 21.3201H81.8035C84.2055 21.322 86.5087 22.2769 88.2074 23.9752C89.9061 25.6734 90.8616 27.9763 90.8642 30.3783V67.4875C90.8645 67.6021 90.8422 67.7155 90.7985 67.8214C90.7548 67.9272 90.6907 68.0234 90.6097 68.1044C90.5287 68.1854 90.4326 68.2495 90.3267 68.2932C90.2208 68.3369 90.1074 68.3592 89.9929 68.3589V68.3492ZM10.721 66.6089H89.119V30.3783C89.1171 28.4381 88.3455 26.5778 86.9736 25.2059C85.6016 23.8339 83.7414 23.0623 81.8011 23.0604H18.0389C16.0987 23.0623 14.2385 23.8339 12.8665 25.2059C11.4946 26.5778 10.7229 28.4381 10.721 30.3783V66.6162V66.6089Z" fill="#F83718"/>
<path fill-rule="evenodd" clip-rule="evenodd" d="M81.5435 18.6065C80.6156 18.6065 79.7085 18.3314 78.9369 17.8158C78.1654 17.3003 77.5641 16.5675 77.209 15.7102C76.8539 14.8529 76.7609 13.9096 76.942 12.9995C77.123 12.0893 77.5698 11.2534 78.2259 10.5972C78.8821 9.94105 79.7181 9.49421 80.6282 9.31318C81.5383 9.13214 82.4817 9.22506 83.339 9.58016C84.1963 9.93527 84.929 10.5366 85.4446 11.3082C85.9601 12.0797 86.2353 12.9868 86.2353 13.9148C86.234 15.1587 85.7393 16.3513 84.8597 17.2309C83.9801 18.1105 82.7875 18.6052 81.5435 18.6065ZM81.5435 10.9657C80.9596 10.9653 80.3885 11.138 79.9028 11.4621C79.4171 11.7863 79.0384 12.2472 78.8147 12.7866C78.591 13.326 78.5324 13.9196 78.6462 14.4924C78.76 15.0652 79.0412 15.5913 79.4541 16.0042C79.867 16.4171 80.3931 16.6983 80.9659 16.8121C81.5386 16.9259 82.1323 16.8672 82.6717 16.6435C83.2111 16.4198 83.6721 16.0412 83.9962 15.5554C84.3203 15.0697 84.493 14.4987 84.4925 13.9148C84.4919 13.1328 84.181 12.3831 83.6281 11.8302C83.0752 11.2773 82.3255 10.9664 81.5435 10.9657Z" fill="#F83718"/>
<circle cx="32" cy="44" r="6" fill="#F83718"/>
</svg>
