<svg width="100" height="100" viewBox="0 0 100 100" fill="none" xmlns="http://www.w3.org/2000/svg">
<path fill-rule="evenodd" clip-rule="evenodd" d="M39.292 71.6746C39.1017 71.6757 38.9162 71.6152 38.763 71.5023L35.3795 69.0387L31.9935 71.4974C31.8401 71.6096 31.655 71.6703 31.4648 71.6707C31.2747 71.671 31.0894 71.611 30.9356 71.4992C30.7817 71.3875 30.6673 71.2298 30.6088 71.0489C30.5503 70.868 30.5507 70.6732 30.61 70.4926L31.9037 66.5144L28.5179 64.0557C28.3652 63.9435 28.2517 63.7861 28.1937 63.6058C28.1357 63.4255 28.1359 63.2314 28.1945 63.0513C28.2532 62.8712 28.3671 62.7141 28.5201 62.6025C28.6731 62.4909 28.8575 62.4303 29.0469 62.4295H33.2289L34.5226 58.4513C34.5834 58.2742 34.6979 58.1206 34.8502 58.0118C35.0025 57.903 35.185 57.8445 35.3722 57.8445C35.5593 57.8445 35.7419 57.903 35.8942 58.0118C36.0465 58.1206 36.161 58.2742 36.2217 58.4513L37.5154 62.4295H41.6974C41.8868 62.4303 42.0712 62.4909 42.2242 62.6025C42.3772 62.7141 42.4912 62.8712 42.5498 63.0513C42.6084 63.2314 42.6086 63.4255 42.5506 63.6058C42.4926 63.7861 42.3793 63.9435 42.2266 64.0557L38.8406 66.5144L40.1343 70.495C40.1924 70.6753 40.192 70.8693 40.1331 71.0493C40.0743 71.2294 39.96 71.3862 39.8066 71.4974C39.6579 71.609 39.4779 71.671 39.292 71.6746Z" fill="#F83718"/>
<path fill-rule="evenodd" clip-rule="evenodd" d="M55.6994 67.0968C55.5091 67.0975 55.3236 67.0371 55.1702 66.9245L50.3158 63.4075L45.4615 66.9245C45.308 67.0368 45.123 67.0974 44.9329 67.0977C44.7428 67.098 44.5574 67.038 44.4036 66.9263C44.2498 66.8146 44.1353 66.6569 44.0768 66.476C44.0183 66.2951 44.0187 66.1003 44.078 65.9196L45.9299 60.2279L41.0756 56.7085C40.9215 56.5973 40.8067 56.4401 40.7476 56.2595C40.6886 56.079 40.6883 55.8844 40.7468 55.7036C40.8053 55.5229 40.9197 55.3653 41.0734 55.2537C41.2271 55.142 41.4123 55.082 41.6023 55.0823H47.5901L49.4396 49.3881C49.4984 49.2077 49.6127 49.0506 49.7661 48.939C49.9196 48.8274 50.1043 48.7671 50.294 48.7667C50.4841 48.7666 50.6694 48.8267 50.8233 48.9383C50.9772 49.0499 51.0919 49.2073 51.1509 49.3881L53.0003 55.0823H58.9883C59.1782 55.082 59.3634 55.142 59.5171 55.2537C59.6708 55.3653 59.7851 55.5229 59.8436 55.7036C59.9021 55.8844 59.9018 56.079 59.8428 56.2595C59.7837 56.4401 59.669 56.5973 59.5149 56.7085L54.6606 60.2279L56.51 65.9196C56.5693 66.1 56.5698 66.2945 56.5113 66.4751C56.4528 66.6557 56.3385 66.8131 56.1848 66.9245C56.0443 67.03 55.8749 67.0901 55.6994 67.0968Z" fill="#F83718"/>
<path fill-rule="evenodd" clip-rule="evenodd" d="M61.6876 71.6748C61.5457 71.6749 61.4058 71.6413 61.2793 71.5769C61.1529 71.5125 61.0434 71.419 60.9601 71.3042C60.8767 71.1893 60.8217 71.0563 60.7997 70.9161C60.7777 70.7759 60.7891 70.6325 60.8332 70.4976L62.127 66.5194L58.7411 64.0607C58.5871 63.9495 58.4722 63.7923 58.4132 63.6117C58.3541 63.4312 58.3538 63.2365 58.4123 63.0558C58.4709 62.875 58.5853 62.7175 58.739 62.6059C58.8927 62.4942 59.0778 62.4342 59.2678 62.4345H63.4522L64.7435 58.4563C64.8028 58.2757 64.9175 58.1185 65.0713 58.0069C65.2252 57.8954 65.4102 57.8352 65.6003 57.835C65.7901 57.835 65.975 57.8951 66.1285 58.0067C66.282 58.1183 66.3962 58.2757 66.4546 58.4563L67.7459 62.4345H71.9304C72.1204 62.4342 72.3055 62.4942 72.4592 62.6059C72.6129 62.7175 72.7273 62.875 72.7858 63.0558C72.8444 63.2365 72.8441 63.4312 72.785 63.6117C72.7259 63.7923 72.6111 63.9495 72.4571 64.0607L69.0736 66.5194L70.3648 70.5C70.4233 70.6805 70.4231 70.8749 70.3643 71.0552C70.3055 71.2356 70.1911 71.3927 70.0375 71.5041C69.8838 71.6154 69.6989 71.6752 69.5091 71.6749C69.3194 71.6746 69.1347 71.6142 68.9814 71.5024L65.6051 69.0388L62.2071 71.5024C62.0565 71.6132 61.8746 71.6736 61.6876 71.6748Z" fill="#F83718"/>
<path fill-rule="evenodd" clip-rule="evenodd" d="M77.811 90.9998H22.2674C19.9797 90.9973 17.7865 90.0873 16.1688 88.4697C14.5512 86.8521 13.6412 84.6588 13.6387 82.3712V33.1163C13.6412 30.8289 14.5513 28.6359 16.169 27.0187C17.7867 25.4014 19.9799 24.492 22.2674 24.4901H77.811C80.0985 24.492 82.2918 25.4014 83.9095 27.0187C85.5272 28.6359 86.4371 30.8289 86.4396 33.1163V82.3687C86.4364 84.6562 85.5264 86.8491 83.9089 88.4666C82.2914 90.0841 80.0985 90.9942 77.811 90.9974V90.9998ZM22.2674 26.2887C20.4567 26.2913 18.7208 27.0117 17.4405 28.292C16.1602 29.5723 15.4398 31.3081 15.4373 33.1188V82.3712C15.4392 84.182 16.1593 85.9182 17.4398 87.1987C18.7203 88.4792 20.4565 89.1994 22.2674 89.2013H77.811C79.6219 89.1994 81.358 88.4792 82.6385 87.1987C83.919 85.9182 84.6392 84.182 84.6412 82.3712V33.1163C84.6392 31.3055 83.919 29.5693 82.6385 28.2889C81.358 27.0084 79.6219 26.2882 77.811 26.2863L22.2674 26.2887Z" fill="#F83718"/>
<path fill-rule="evenodd" clip-rule="evenodd" d="M85.5395 38.8709H14.5395C14.4174 38.8772 14.2955 38.8587 14.1808 38.8164C14.0662 38.7741 13.9614 38.7088 13.8728 38.6247C13.7842 38.5406 13.7136 38.4393 13.6654 38.327C13.6172 38.2148 13.5923 38.0938 13.5923 37.9716C13.5923 37.8494 13.6172 37.7285 13.6654 37.6162C13.7136 37.504 13.7842 37.4027 13.8728 37.3186C13.9614 37.2345 14.0662 37.1692 14.1808 37.1269C14.2955 37.0846 14.4174 37.066 14.5395 37.0724H85.5395C85.7699 37.0844 85.9869 37.1843 86.1458 37.3517C86.3046 37.519 86.3932 37.7409 86.3932 37.9716C86.3932 38.2023 86.3046 38.4243 86.1458 38.5916C85.9869 38.759 85.7699 38.8589 85.5395 38.8709Z" fill="#F83718"/>
<path fill-rule="evenodd" clip-rule="evenodd" d="M40.8258 34.6019C40.2497 34.6019 39.6865 34.431 39.2075 34.111C38.7286 33.791 38.3552 33.336 38.1348 32.8038C37.9143 32.2716 37.8567 31.686 37.9691 31.121C38.0815 30.556 38.3589 30.037 38.7662 29.6297C39.1735 29.2224 39.6925 28.945 40.2575 28.8326C40.8225 28.7202 41.4082 28.7779 41.9404 28.9983C42.4726 29.2188 42.9274 29.5921 43.2475 30.0711C43.5675 30.55 43.7384 31.1132 43.7384 31.6893C43.7384 32.4617 43.4315 33.2025 42.8853 33.7488C42.3391 34.295 41.5982 34.6019 40.8258 34.6019Z" fill="#F83718"/>
<path fill-rule="evenodd" clip-rule="evenodd" d="M32.7387 34.6019C32.1627 34.6019 31.5996 34.431 31.1206 34.111C30.6417 33.791 30.2683 33.336 30.0478 32.8038C29.8274 32.2716 29.7698 31.686 29.8822 31.121C29.9945 30.556 30.2718 30.037 30.6792 29.6297C31.0865 29.2224 31.6056 28.945 32.1706 28.8326C32.7356 28.7202 33.3211 28.7779 33.8534 28.9983C34.3856 29.2188 34.8405 29.5921 35.1606 30.0711C35.4806 30.55 35.6513 31.1132 35.6513 31.6893C35.6513 32.4617 35.3445 33.2025 34.7983 33.7488C34.252 34.295 33.5112 34.6019 32.7387 34.6019Z" fill="#F83718"/>
<path fill-rule="evenodd" clip-rule="evenodd" d="M24.6489 34.6019C24.0728 34.6019 23.5098 34.431 23.0308 34.111C22.5518 33.791 22.1784 33.336 21.958 32.8038C21.7375 32.2716 21.6799 31.686 21.7923 31.121C21.9047 30.556 22.1821 30.037 22.5894 29.6297C22.9968 29.2224 23.5157 28.945 24.0807 28.8326C24.6457 28.7202 25.2313 28.7779 25.7635 28.9983C26.2957 29.2188 26.7507 29.5921 27.0707 30.0711C27.3908 30.55 27.5615 31.1132 27.5615 31.6893C27.5615 32.4617 27.2546 33.2025 26.7084 33.7488C26.1622 34.295 25.4213 34.6019 24.6489 34.6019Z" fill="#F83718"/>
<path fill-rule="evenodd" clip-rule="evenodd" d="M78.35 83.8083H21.7287C21.6107 83.8086 21.4937 83.7855 21.3846 83.7405C21.2755 83.6955 21.1764 83.6294 21.093 83.5459C21.0095 83.4625 20.9434 83.3633 20.8984 83.2542C20.8533 83.1451 20.8302 83.0282 20.8306 82.9101V45.1626C20.8306 44.9244 20.9253 44.696 21.0937 44.5276C21.2621 44.3592 21.4905 44.2645 21.7287 44.2645H78.35C78.5882 44.2645 78.8167 44.3592 78.9851 44.5276C79.1535 44.696 79.2481 44.9244 79.2481 45.1626V82.9101C79.2481 83.1483 79.1535 83.3768 78.9851 83.5452C78.8167 83.7136 78.5882 83.8083 78.35 83.8083ZM22.6292 82.0121H77.452V46.0607H22.6292V82.0121Z" fill="#F83718"/>
<path fill-rule="evenodd" clip-rule="evenodd" d="M78.3501 77.5169H21.7288C21.4984 77.5049 21.2813 77.405 21.1225 77.2376C20.9636 77.0703 20.875 76.8484 20.875 76.6177C20.875 76.3869 20.9636 76.165 21.1225 75.9977C21.2813 75.8303 21.4984 75.7304 21.7288 75.7184H78.3501C78.5805 75.7304 78.7975 75.8303 78.9564 75.9977C79.1153 76.165 79.2039 76.3869 79.2039 76.6177C79.2039 76.8484 79.1153 77.0703 78.9564 77.2376C78.7975 77.405 78.5805 77.5049 78.3501 77.5169Z" fill="#F83718"/>
<path fill-rule="evenodd" clip-rule="evenodd" d="M81.0464 19.0993C80.1573 19.0998 79.2879 18.8366 78.5484 18.3429C77.8088 17.8493 77.2322 17.1474 76.8916 16.326C76.551 15.5047 76.4618 14.6008 76.6349 13.7287C76.8081 12.8565 77.236 12.0554 77.8645 11.4265C78.4931 10.7976 79.294 10.3692 80.1661 10.1956C81.0381 10.0219 81.942 10.1108 82.7636 10.451C83.5851 10.7911 84.2874 11.3672 84.7814 12.1065C85.2754 12.8458 85.5391 13.715 85.5391 14.6041C85.5378 15.7955 85.0641 16.9377 84.2219 17.7804C83.3797 18.623 82.2378 19.0974 81.0464 19.0993ZM81.0464 11.9099C80.513 11.9095 79.9913 12.0672 79.5476 12.3633C79.1038 12.6593 78.7578 13.0802 78.5533 13.5729C78.3489 14.0656 78.2951 14.6079 78.3989 15.1312C78.5027 15.6544 78.7593 16.1352 79.1363 16.5125C79.5133 16.8899 79.9938 17.1469 80.517 17.2512C81.0402 17.3554 81.5825 17.3022 82.0754 17.0982C82.5682 16.8941 82.9896 16.5485 83.286 16.1049C83.5824 15.6614 83.7406 15.14 83.7406 14.6066C83.74 13.892 83.456 13.2068 82.9509 12.7013C82.4459 12.1958 81.761 11.9112 81.0464 11.9099Z" fill="#F83718"/>
<path fill-rule="evenodd" clip-rule="evenodd" d="M28.9182 20.0094C27.8514 20.0094 26.8086 19.6931 25.9216 19.1004C25.0347 18.5076 24.3433 17.6652 23.9352 16.6796C23.5271 15.6939 23.4204 14.6094 23.6287 13.5632C23.837 12.5169 24.3509 11.5559 25.1054 10.8018C25.8599 10.0476 26.8211 9.5342 27.8674 9.32637C28.9137 9.11855 29.9983 9.22564 30.9837 9.63421C31.9692 10.0428 32.8113 10.7345 33.4036 11.6217C33.9959 12.5089 34.3118 13.5519 34.3113 14.6187C34.3094 16.0482 33.7405 17.4186 32.7295 18.4292C31.7184 19.4398 30.3477 20.0081 28.9182 20.0094ZM28.9182 11.0288C28.2071 11.0288 27.512 11.2397 26.9208 11.6348C26.3296 12.0299 25.8689 12.5915 25.5969 13.2484C25.3249 13.9054 25.2538 14.6283 25.3927 15.3257C25.5316 16.023 25.8742 16.6636 26.3772 17.1662C26.8802 17.6688 27.5209 18.011 28.2183 18.1494C28.9158 18.2878 29.6386 18.2163 30.2954 17.9438C30.9522 17.6714 31.5135 17.2103 31.9082 16.6188C32.3029 16.0274 32.5133 15.3321 32.5128 14.6211C32.5144 14.1479 32.4226 13.679 32.2427 13.2413C32.0628 12.8037 31.7982 12.4059 31.4643 12.0706C31.1304 11.7353 30.7336 11.4692 30.2967 11.2875C29.8598 11.1058 29.3913 11.0121 28.9182 11.0118V11.0288Z" fill="#F83718"/>
</svg>
